<?xml version="1.0" encoding="utf-8"?>
<!-- Generator: Adobe Illustrator 25.4.1, SVG Export Plug-In . SVG Version: 6.00 Build 0)  -->
<svg version="1.1" id="Layer_1" xmlns="http://www.w3.org/2000/svg" xmlns:xlink="http://www.w3.org/1999/xlink" x="0px" y="0px" viewBox="0 0 1500 1004" style="enable-background:new 0 0 1500 1004;" xml:space="preserve"><g><g><path class="st0" d="M0,398.3c0,0,93.6,107.2,58.8,277.5C23,851.2,54.9,976.9,155.9,974c101-2.9,454.4-62.2,672.1,30H0V398.3z"/><g><g><rect x="27.2" y="753.3" class="st1" width="1.6" height="4.8"/></g><g><path class="st1" d="M28.8,743.6h-1.6v-9.7h1.6V743.6z M28.8,724.3h-1.6v-9.7h1.6V724.3z M28.8,704.9h-1.6v-9.7h1.6V704.9z M28.8,685.5h-1.6v-9.7h1.6V685.5z M28.8,666.1h-1.6v-9.7h1.6V666.1z M28.8,646.8h-1.6v-9.7h1.6V646.8z M28.8,627.4h-1.6v-9.7h1.6V627.4z M28.8,608h-1.6v-9.7h1.6V608z M28.8,588.6h-1.6v-9.7h1.6V588.6z M28.8,569.3h-1.6v-9.7h1.6V569.3z M28.8,549.9h-1.6v-9.7h1.6V549.9z M28.8,530.5h-1.6v-9.7h1.6V530.5z M28.8,511.1h-1.6v-9.7h1.6V511.1z M28.8,491.8h-1.6v-9.7h1.6V491.8z M28.8,472.4h-1.6v-9.7h1.6V472.4z M28.8,453h-1.6v-9.7h1.6V453z M28.8,433.6h-1.6v-9.7h1.6V433.6z M28.8,414.3h-1.6v-9.7h1.6V414.3z M28.8,394.9h-1.6v-9.7h1.6V394.9z M28.8,375.5h-1.6v-9.7h1.6V375.5z M28.8,356.1h-1.6v-9.7h1.6V356.1z M28.8,336.8h-1.6v-9.7h1.6V336.8z M28.8,317.4h-1.6v-9.7h1.6V317.4z M28.8,298h-1.6v-9.7h1.6V298z M28.8,278.6h-1.6v-9.7h1.6V278.6z M28.8,259.3h-1.6v-9.7h1.6V259.3z M28.8,239.9h-1.6v-9.7h1.6V239.9z M28.8,220.5h-1.6v-9.7h1.6V220.5z M28.8,201.1h-1.6v-9.7h1.6V201.1z M28.8,181.8h-1.6v-9.7h1.6V181.8z M28.8,162.4h-1.6v-9.7h1.6V162.4z"/></g></g><g><circle class="st1" cx="28" cy="144" r="5"/></g><g><path class="st1" d="M727.3,973.1h-9.7v-1.6h9.7V973.1z M707.9,973.1h-9.7v-1.6h9.7V973.1z M688.6,973.1h-9.7v-1.6h9.7V973.1z M669.3,973.1h-9.7v-1.6h9.7V973.1z M649.9,973.1h-9.7v-1.6h9.7V973.1z M630.6,973.1h-9.7v-1.6h9.7V973.1z M611.3,973.1h-9.7v-1.6h9.7V973.1z M591.9,973.1h-9.7v-1.6h9.7V973.1z M572.6,973.1h-9.7v-1.6h9.7V973.1z M553.3,973.1h-9.7v-1.6h9.7V973.1z M533.9,973.1h-9.7v-1.6h9.7V973.1z M514.6,973.1H505v-1.6h9.7V973.1z M495.3,973.1h-9.7v-1.6h9.7V973.1z M476,973.1h-9.7v-1.6h9.7V973.1z M456.6,973.1H447v-1.6h9.7V973.1z M437.3,973.1h-9.7v-1.6h9.7V973.1z M418,973.1h-9.7v-1.6h9.7V973.1z M398.6,973.1H389v-1.6h9.7V973.1z M379.3,973.1h-9.7v-1.6h9.7V973.1z M360,973.1h-9.7v-1.6h9.7V973.1z M340.6,973.1H331v-1.6h9.7V973.1z M321.3,973.1h-9.7v-1.6h9.7V973.1z M302,973.1h-9.7v-1.6h9.7V973.1z M282.6,973.1H273v-1.6h9.7V973.1z M263.3,973.1h-9.7v-1.6h9.7V973.1z M244,973.1h-9.7v-1.6h9.7V973.1z M224.6,973.1H215v-1.6h9.7V973.1z"/></g><g><path class="st1" d="M1250.3,973.1h-9.7v-1.6h9.7V973.1z M1230.9,973.1h-9.7v-1.6h9.7V973.1z M1211.6,973.1h-9.7v-1.6h9.7V973.1z M1192.3,973.1h-9.7v-1.6h9.7V973.1z M1172.9,973.1h-9.7v-1.6h9.7V973.1z M1153.6,973.1h-9.7v-1.6h9.7V973.1z M1134.3,973.1h-9.7v-1.6h9.7V973.1z M1114.9,973.1h-9.7v-1.6h9.7V973.1z M1307.6,973.1h-9.7v-1.6h9.7V973.1z M1288.3,973.1h-9.7v-1.6h9.7V973.1z M1268.9,973.1h-9.7v-1.6h9.7V973.1z M1362.6,973.1h-9.7v-1.6h9.7V973.1z M1380.6,973.1h-9.7v-1.6h9.7V973.1z M1396.6,973.1h-9.7v-1.6h9.7V973.1z M1343.3,973.1h-9.7v-1.6h9.7V973.1z M1324.9,973.1h-9.7v-1.6h9.7V973.1z M1095.6,973.1h-9.7v-1.6h9.7V973.1z M1076.3,973.1h-9.7v-1.6h9.7V973.1z M1056.9,973.1h-9.7v-1.6h9.7V973.1z M1037.6,973.1h-9.7v-1.6h9.7V973.1z M1018.3,973.1h-9.7v-1.6h9.7V973.1z M999,973.1h-9.7v-1.6h9.7V973.1z M979.6,973.1H970v-1.6h9.7V973.1z M960.3,973.1h-9.7v-1.6h9.7V973.1z M941,973.1h-9.7v-1.6h9.7V973.1z M921.6,973.1H912v-1.6h9.7V973.1z M902.3,973.1h-9.7v-1.6h9.7V973.1z M883,973.1h-9.7v-1.6h9.7V973.1z M863.6,973.1H854v-1.6h9.7V973.1z M844.3,973.1h-9.7v-1.6h9.7V973.1z M825,973.1h-9.7v-1.6h9.7V973.1z M805.6,973.1H796v-1.6h9.7V973.1z M786.3,973.1h-9.7v-1.6h9.7V973.1z M767,973.1h-9.7v-1.6h9.7V973.1z M747.6,973.1H738v-1.6h9.7V973.1z"/></g><g><circle class="st1" cx="1401.7" cy="971.4" r="5"/></g></g></g></svg>
