<?xml version="1.0" encoding="utf-8"?>
<!-- Generator: Adobe Illustrator 25.4.1, SVG Export Plug-In . SVG Version: 6.00 Build 0)  -->
<svg class="portrait" version="1.1" id="Layer_1" xmlns="http://www.w3.org/2000/svg" xmlns:xlink="http://www.w3.org/1999/xlink" x="0px" y="0px" viewBox="0 0 768 1024" style="enable-background:new 0 0 768 1024;" xml:space="preserve"><g><g><g><rect x="29" y="775.3" class="st0" width="1.6" height="4.8"/></g><g><path class="st0" d="M30.6,765.6H29v-9.7h1.6V765.6z M30.6,746.2H29v-9.7h1.6V746.2z M30.6,726.8H29v-9.7h1.6V726.8z M30.6,707.5H29v-9.7h1.6V707.5z M30.6,688.1H29v-9.7h1.6V688.1z M30.6,668.7H29V659h1.6V668.7z M30.6,649.3H29v-9.7h1.6V649.3z M30.6,630H29v-9.7h1.6V630z M30.6,610.6H29v-9.7h1.6V610.6z M30.6,591.2H29v-9.7h1.6V591.2z M30.6,571.8H29v-9.7h1.6V571.8z M30.6,552.5H29v-9.7h1.6V552.5z M30.6,533.1H29v-9.7h1.6V533.1z M30.6,513.7H29V504h1.6V513.7z M30.6,494.3H29v-9.7h1.6V494.3z M30.6,475H29v-9.7h1.6V475z M30.6,455.6H29v-9.7h1.6V455.6z M30.6,436.2H29v-9.7h1.6V436.2z M30.6,416.8H29v-9.7h1.6V416.8z M30.6,397.5H29v-9.7h1.6V397.5z M30.6,378.1H29v-9.7h1.6V378.1z M30.6,358.7H29V349h1.6V358.7z M30.6,339.3H29v-9.7h1.6V339.3z M30.6,320H29v-9.7h1.6V320z M30.6,300.6H29v-9.7h1.6V300.6z M30.6,281.2H29v-9.7h1.6V281.2z M30.6,261.8H29v-9.7h1.6V261.8z M30.6,242.5H29v-9.7h1.6V242.5z M30.6,223.1H29v-9.7h1.6V223.1z M30.6,203.7H29V194h1.6V203.7z M30.6,184.3H29v-9.7h1.6V184.3z M30.6,165H29v-9.7h1.6V165z M30.6,145.6H29v-9.7h1.6V145.6z M30.6,126.2H29v-9.7h1.6V126.2z M30.6,106.8H29v-9.7h1.6V106.8z M30.6,87.5H29v-9.7h1.6V87.5z"/></g></g><g><circle class="st0" cx="29.8" cy="73" r="5"/></g><g class="st1"><path class="st2" d="M0,462.3c0,0,86.7,99.4,54.5,257.3c-33.2,162.7-3.6,279.2,90,276.5s421.3-57.7,623.2,27.8H0V462.3z"/></g><g><path class="st0" d="M729.1,995.1h-9.7v-1.6h9.7V995.1z M709.8,995.1h-9.7v-1.6h9.7V995.1z M690.4,995.1h-9.7v-1.6h9.7V995.1z M671.1,995.1h-9.7v-1.6h9.7V995.1z M651.8,995.1h-9.7v-1.6h9.7V995.1z M632.4,995.1h-9.7v-1.6h9.7V995.1z M613.1,995.1h-9.7v-1.6h9.7V995.1z M593.8,995.1h-9.7v-1.6h9.7V995.1z M574.4,995.1h-9.7v-1.6h9.7V995.1z M555.1,995.1h-9.7v-1.6h9.7V995.1z M535.8,995.1h-9.7v-1.6h9.7V995.1z M516.4,995.1h-9.7v-1.6h9.7V995.1z M497.1,995.1h-9.7v-1.6h9.7V995.1z M477.8,995.1h-9.7v-1.6h9.7V995.1z M458.4,995.1h-9.7v-1.6h9.7V995.1z M439.1,995.1h-9.7v-1.6h9.7V995.1z M419.8,995.1h-9.7v-1.6h9.7V995.1z M400.4,995.1h-9.7v-1.6h9.7V995.1z M381.1,995.1h-9.7v-1.6h9.7V995.1z M361.8,995.1h-9.7v-1.6h9.7V995.1z M342.4,995.1h-9.7v-1.6h9.7V995.1z M323.1,995.1h-9.7v-1.6h9.7V995.1z M303.8,995.1h-9.7v-1.6h9.7V995.1z M284.4,995.1h-9.7v-1.6h9.7V995.1z M265.1,995.1h-9.7v-1.6h9.7V995.1z M245.8,995.1h-9.7v-1.6h9.7V995.1z M226.4,995.1h-9.7v-1.6h9.7V995.1z"/></g><g><circle class="st0" cx="729.5" cy="993.3" r="5"/></g></g></svg>
