<svg id="Layer_1" data-name="Layer 1" xmlns="http://www.w3.org/2000/svg" viewBox="0 0 238.51 516.46">
    <defs>
        <style>.cls-1,.cls-10,.cls-2,.cls-3,.cls-8{fill:none;stroke-miterlimit:10;}.cls-1,.cls-2,.cls-3{stroke:#afafaf;stroke-width:0.5px;}.cls-2{stroke-dasharray:3.01 3.01;}.cls-3{stroke-dasharray:3;}.cls-4{fill:#e5e5e5;}.cls-5{fill:#007F80;opacity:0.4;}.cls-6,.cls-9{opacity:0.5;}.cls-7,.cls-9{fill:#aaa;}.cls-10,.cls-8{stroke:#aaa;}.cls-10{stroke-width:0.75px;}</style>
    </defs>
    <line class="cls-1" x1="9.24" y1="440.77" x2="9.24" y2="439.27" />
    <line class="cls-2" x1="9.24" y1="436.26" x2="9.24" y2="95" />
    <line class="cls-1" x1="9.24" y1="93.5" x2="9.24" y2="92" />
    <line class="cls-3" x1="67.28" y1="507.23" x2="226.64" y2="507.23" />
    <circle class="cls-4" cx="9.12" cy="90.64" r="1.55" />
    <circle class="cls-4" cx="226.42" cy="506.94" r="1.55" />
    <path class="cls-5" d="M0,342.14S26.92,373,16.92,422c-10.3,50.5-1.11,86.66,27.95,85.83s130.76-17.91,193.4,8.63H0Z" />
    <g class="cls-6">
        <path class="cls-7" d="M61.76,486.82a29.35,29.35,0,0,1-8.42,11.35c-.29.24.11.66.4.42A30,30,0,0,0,62.32,487C62.46,486.64,61.9,486.48,61.76,486.82Z" />
        <path class="cls-7" d="M67.19,497.9a23,23,0,0,1-10.33,5.2.29.29,0,0,0,.14.57,23.78,23.78,0,0,0,10.59-5.34C67.87,498.08,67.48,497.66,67.19,497.9Z" />
        <path class="cls-7" d="M61.71,495.61c.23-.3-.27-.6-.49-.31A19.91,19.91,0,0,1,56,500.05c-.32.19-.05.71.27.51A20.59,20.59,0,0,0,61.71,495.61Z" />
    </g>
    <g class="cls-6">
        <path class="cls-8" d="M27.35,460.54l-.17-.24a.87.87,0,0,1,.4-1.34,2.83,2.83,0,0,0,1.59-1.58l-.81,0a5,5,0,0,0-2.16.43.74.74,0,0,1-1-.47l-.15-.56a1.3,1.3,0,0,1,.27-1.17,7.62,7.62,0,0,1,3.51-2.07.79.79,0,0,1,.95.43h0a.78.78,0,0,1-.46,1.06l-.38.13a2.25,2.25,0,0,0-1.19.83,3.68,3.68,0,0,1,1.43-.28c1.18,0,1.76.52,1.76,1.55a4,4,0,0,1-1.41,2.69,8.21,8.21,0,0,1-.91.81A.87.87,0,0,1,27.35,460.54Zm1.34,1.31-1.77-.2a1.45,1.45,0,0,0-1.6,1.55l1.46,20.27a2.19,2.19,0,0,0,2.18,2h.78a2.18,2.18,0,0,0,2.17-2.4l-1.94-20A1.43,1.43,0,0,0,28.69,461.85Z" />
    </g>
    <g class="cls-6">
        <path class="cls-8" d="M38.39,497.42a14.79,14.79,0,0,1,1.9-5.42q2-3.48,5.16-3.48a5.29,5.29,0,0,1,3.12,1q2.15,1.62,2.15,5.68c0,2-1.1,3.77-3.3,5.3a9.75,9.75,0,0,1-5.16,1.82h0A1,1,0,0,1,41,503.37l-1.18-.43a1.77,1.77,0,0,1-1.15-1.33h0a4.53,4.53,0,0,1-1.23-.92,7.85,7.85,0,0,1-2.13,6,8.73,8.73,0,0,1-6.2,2q-8,0-8-7.22a14.27,14.27,0,0,1,.1-1.74,4.09,4.09,0,0,1,2.5-3.26l1.91-.78A1.1,1.1,0,0,1,27,497.12a10.48,10.48,0,0,0-1,4C26,503,27,504,29.1,504q4.18,0,4.19-4.13a17.16,17.16,0,0,0-1.7-6.65,2.41,2.41,0,0,1,.81-2.92l.79-.57a1.24,1.24,0,0,1,1.94.78Q36.22,496.09,38.39,497.42Zm6.33-2.25a2,2,0,0,0-1.42.71,3.17,3.17,0,0,0-.74,1.46l-.16.83,0,.74c2.47,0,3.7-.67,3.7-2a1.94,1.94,0,0,0-.41-1.13A1.13,1.13,0,0,0,44.72,495.17Z" />
        <path class="cls-8" d="M48.23,485.35a1.54,1.54,0,0,1-.94,1.36,3.48,3.48,0,0,1-1.7.41,3.23,3.23,0,0,1-1.71-.41,1.45,1.45,0,0,1,0-2.71,3.55,3.55,0,0,1,1.69-.41,3.37,3.37,0,0,1,1.7.41A1.49,1.49,0,0,1,48.23,485.35Z" />
    </g>
    <g class="cls-6">
        <path class="cls-8" d="M13.39,479.44a4.77,4.77,0,0,1-3.05-3.8l-.07-.76a6.36,6.36,0,0,1,1.15-3.62,6.1,6.1,0,0,1,3.89-2.56l.54-.08.62,0a9.57,9.57,0,0,1,3.3.63,1,1,0,0,1,.52,1.42l-1.56,2.77a1.13,1.13,0,0,1-1.14.56l-.44,0a1.7,1.7,0,0,0-.59.1,1.73,1.73,0,0,0-1.25,1.62,1.12,1.12,0,0,0,.6.92,2.18,2.18,0,0,0,1.1.32,2.28,2.28,0,0,0,.59-.1,5.71,5.71,0,0,0,2-1.37.46.46,0,0,1,.8.32v2.87a1.14,1.14,0,0,1-1,1.12,8.8,8.8,0,0,0-2.83,1c-1.74,1-2.62,2.24-2.62,3.78,0,1.93.89,2.89,2.65,2.89a7.28,7.28,0,0,0,3-.77,7.36,7.36,0,0,0,1.47-.9.24.24,0,0,1,.38.27l-1.33,3.38A2.68,2.68,0,0,1,19,490.8a7.39,7.39,0,0,1-3.51.82,6,6,0,0,1-4.27-1.51A5.38,5.38,0,0,1,9.57,486C9.57,483.51,10.85,481.33,13.39,479.44Z" />
    </g>
    <g class="cls-6">
        <path class="cls-7" d="M6.14,447.76a43,43,0,0,1,11.07,11.06c.23.34-.26.74-.49.4a42.69,42.69,0,0,0-10.95-11C5.43,448,5.8,447.52,6.14,447.76Z" />
        <path class="cls-7" d="M18.5,457.42a18.47,18.47,0,0,0-3.56-4.68c-.29-.28.2-.68.49-.4a18.87,18.87,0,0,1,3.65,4.82C19.27,457.52,18.69,457.77,18.5,457.42Z" />
        <path class="cls-7" d="M20.65,456A29.54,29.54,0,0,0,15.1,445.5c-.26-.31.23-.71.49-.4a29.79,29.79,0,0,1,5.64,10.63C21.34,456.12,20.76,456.38,20.65,456Z" />
    </g>
    <path class="cls-9" d="M14.86,503.9c-.18.7-1.28.51-1.1-.19.24-1.35-.42-1.83-2-1.43a1.34,1.34,0,0,0-.51,1.84,2,2,0,0,0,2,1.73,3.12,3.12,0,0,0,3.36-2.56c.66-3.1-2.08-5.66-5-5.61-.72,0-.83-1.1-.11-1.11a6.12,6.12,0,0,1,6.28,4.84c.48,2.81-1.4,5.79-4.47,5.58-2.45-.17-4.55-3.17-2.57-5.26A2.41,2.41,0,0,1,14.86,503.9Z" />
    <path class="cls-9" d="M44.17,506.7a4.88,4.88,0,0,1,.79.57,2.85,2.85,0,0,0,1.64.86,3.28,3.28,0,0,0,2.2-1,2.59,2.59,0,0,1,1.65-.82,2.38,2.38,0,0,1,1.13.57,2.58,2.58,0,0,0,1.75.68,2.83,2.83,0,0,0,1.49-.75l.21-.16c.22-.17.77-.54,1.15-.35a.4.4,0,0,0,.53-.17.38.38,0,0,0-.15-.53,1.89,1.89,0,0,0-2,.44l-.21.16a2.27,2.27,0,0,1-1.06.59,2,2,0,0,1-1.23-.55,3.07,3.07,0,0,0-1.52-.71,3.28,3.28,0,0,0-2.21,1,2.64,2.64,0,0,1-1.64.82,2.33,2.33,0,0,1-1.21-.68,5.24,5.24,0,0,0-.93-.67,2.78,2.78,0,0,0-3.35.86.39.39,0,0,0,0,.48l.07.07a.4.4,0,0,0,.55-.11A2,2,0,0,1,44.17,506.7Z" />
    <g class="cls-6">
        <path class="cls-10" d="M47.92,472.76a3.75,3.75,0,0,1-2.45,3.47,9.05,9.05,0,0,1-4,.91,6.16,6.16,0,0,1-2.84-.57,2.36,2.36,0,0,1-1.44-2.23q0-1.8,2.82-3.12a.81.81,0,0,1,1,.27h0a.81.81,0,0,1-.36,1.21c-1.27.53-1.9,1-1.9,1.33s1.06.65,3.2.65c2.6,0,3.9-.6,3.9-1.78a2.09,2.09,0,0,0-.22-.9,1.15,1.15,0,0,1,.37-1.42l.33-.24a.6.6,0,0,1,.88.21A5.25,5.25,0,0,1,47.92,472.76ZM41,479a.8.8,0,0,1,.41-.7,1.32,1.32,0,0,1,.73-.21,1.35,1.35,0,0,1,.73.21.78.78,0,0,1,.4.7.8.8,0,0,1-.4.71,1.26,1.26,0,0,1-.73.22,1.28,1.28,0,0,1-.73-.22A.79.79,0,0,1,41,479Z" />
    </g>
</svg>