<?xml version="1.0" encoding="utf-8"?>
<!-- Generator: Adobe Illustrator 25.4.1, SVG Export Plug-In . SVG Version: 6.00 Build 0)  -->
<svg version="1.1" id="Layer_1" xmlns="http://www.w3.org/2000/svg" xmlns:xlink="http://www.w3.org/1999/xlink" x="0px" y="0px"
	 viewBox="0 0 238.5 516.5" style="enable-background:new 0 0 238.5 516.5;" xml:space="preserve">
<style type="text/css">
	.st0{fill:none;stroke:#AEAEAE;stroke-miterlimit:10;}
	.st1{fill:none;stroke:#AEAEAE;stroke-miterlimit:10;stroke-dasharray:8.9167,8.9167;}
	.st2{fill:none;stroke:#AEAEAE;stroke-miterlimit:10;stroke-dasharray:9;}
	.st3{fill:#E4E4E4;}
	.st4{opacity:0.4;fill:#A0D9BE;}
	.st5{opacity:0.5;}
	.st6{fill:#A9A9A9;}
	.st7{opacity:0.5;fill:#A9A9A9;}
	.st8{fill:none;stroke:#AEAEAE;stroke-width:0.5;stroke-miterlimit:10;}
	.st9{fill:none;stroke:#AEAEAE;stroke-width:0.5;stroke-miterlimit:10;stroke-dasharray:3.0067,3.0067;}
	.st10{fill:none;stroke:#AEAEAE;stroke-width:0.5;stroke-miterlimit:10;stroke-dasharray:3;}
	.st11{opacity:0.4;fill:#A0D9BE;}
</style>
<g>
	<g>
		<g>
			<line class="st8" x1="229" y1="440.8" x2="229" y2="439.3"/>
			<line class="st9" x1="229" y1="436.3" x2="229" y2="95"/>
			<line class="st8" x1="229" y1="93.5" x2="229" y2="92"/>
		</g>
	</g>
	<line class="st10" x1="171" y1="507.2" x2="11.6" y2="507.2"/>
	<circle class="st3" cx="229.2" cy="90.6" r="1.6"/>
	<circle class="st3" cx="11.9" cy="506.9" r="1.6"/>
	<path class="st11" d="M238.3,342.1c0,0-26.9,30.9-16.9,79.9c10.3,50.5,1.1,86.7-27.9,85.8C164.4,507,62.6,489.9,0,516.5h238.3
		V342.1z"/>
	<g>
		<g class="st5">
			<path class="st6" d="M170.1,497c0.7,0.2,0.5,1.2-0.2,1.1c-2.6-0.7-5.3-1.4-7.9-2c-0.7-0.2-0.5-1.2,0.2-1.1
				C164.8,495.7,167.5,496.4,170.1,497z"/>
			<path class="st6" d="M162.1,499.8c-0.7,0.1-0.8-1-0.1-1.1c3-0.3,5.9-0.2,8.8,0.5c0.7,0.2,0.5,1.2-0.2,1.1
				C167.8,499.6,165,499.5,162.1,499.8z"/>
			<path class="st6" d="M169.3,502.6c-1.7,0.3-3.3,0.5-5,0.8c-0.7,0.1-0.8-1-0.1-1.1c1.7-0.3,3.3-0.5,5-0.8
				C169.9,501.4,170,502.5,169.3,502.6z"/>
		</g>
		<g class="st5">
			<path class="st6" d="M197.6,485.6c-0.9-0.3-2.1-0.3-2.8-0.5c-2.1-0.5-4.2-1.2-6.3-1.3c-2.4-0.1-5.2,0.9-7.4,1.8
				c-1.6,0.6-3.7,1.1-4.8,2.4c-0.8,0.9-1.1,2-1.4,3.1c-0.5,2.2-0.6,4.6-0.5,6.9c0,1.8-0.1,5.1,1.6,6.3c0.8,0.5,2,0.5,2.9,0.5
				c2.1,0.2,4.3,0.3,6.4,0.5c1.8,0.1,3.8,0.9,5.5-0.1c2.4-1.5,4.8-3.2,7.3-4.8c0.3-0.2,0.5-0.4,0.7-0.6c0.2-0.3,0.3-0.8,0.3-1.2
				c0.2-2.1,0.4-4.2,0.4-6.4c0-1.6,0.4-4.1-0.3-5.6C198.9,486.1,198.3,485.8,197.6,485.6z M195.2,486.9c-0.5,0.3-0.9,0.6-1.5,0.8
				c-1.1,0.4-2,1.1-3.1,1.6c-0.2,0.1-0.4,0.1-0.5,0.2c-0.2,0-0.4,0-0.6,0c-1.7-0.2-3.5-0.6-5.2-0.8c-0.9-0.1-1.9-0.2-2.8-0.3
				c-0.5-0.1-2.1-0.6-2.6-0.3c1.7-0.8,3.4-1.5,5.2-2.1c1.8-0.6,3.5-1.2,5.4-1.1c2.1,0.1,4.2,0.8,6.3,1.3c0.2,0,0.3,0.1,0.5,0
				C196,486.4,195.6,486.7,195.2,486.9z M188.1,503.6c-1.7,0.2-3.6-0.3-5.3-0.4c-1.5-0.1-5.1,0.2-6.1-1.3c-0.8-1.2-0.4-4.7-0.4-6.1
				c0.1-1.7,0.1-3.5,0.8-5.1c0.3-0.7,0.3-0.7,1-0.7c0.8,0,1.8,0.2,2.6,0.3c2.9,0.3,5.8,0.4,8.6,0.8c0.1,0,0.3,0.1,0.4,0.2
				c0,0.1,0.1,0.2,0.1,0.2c0.4,2.5,0.1,5.1,0,7.5c-0.1,1,0,2-0.2,2.9C189.4,503.5,189.6,503.4,188.1,503.6z M191.6,502
				c0-0.2,0-0.5,0-0.7c0.1-1.9,0.2-3.9,0.3-5.8c0.1-1.5,0.4-3.2,0.1-4.7c-0.1-0.8,4.5-2.4,5.2-2.6c0.7-0.2,0.8-0.3,1,0.5
				c0.2,0.9-0.1,2.1-0.1,3c-0.1,1.3-0.2,2.5-0.3,3.8c-0.1,0.8,0.1,2.4-0.6,2.9c-1.1,0.7-2.2,1.3-3.3,2.1
				C193.3,500.8,192.3,501.9,191.6,502z"/>
			<path class="st6" d="M183.9,496.5c1-0.8,1.3-2.2,0.5-3.3c-0.2-0.2-0.4-0.4-0.6-0.6c-0.6-0.3-1.4-0.4-2-0.4c-0.4,0-0.7,0-1.1,0
				c-0.3,0-0.8-0.1-1,0.2c-0.1,0.1,0,0.4,0,0.5c0,0.2,0,0.4,0,0.6c0,0.4,0,0.8,0,1.2c0,0.7,0.1,1.5,0.1,2.2c0,0.7,0.1,1.5,0.1,2.2
				c0,0.7,0.1,1.4,0.1,2.2c0,0.1,0,0.1,0,0.2c0,0.1,0.1,0.1,0.2,0.1c0.1,0,0.3,0,0.4,0c0.1,0,0.2,0,0.3,0c0.2,0,0.5,0,0.7,0
				c0.5,0,0.9-0.1,1.4-0.1c0.4-0.1,0.9-0.2,1.3-0.4c0.4-0.2,0.7-0.5,0.9-0.9c0,0,0,0,0-0.1C186,498.6,185.3,497,183.9,496.5z
				 M184.8,498C184.7,498,184.7,498,184.8,498c-0.4,0.3-0.7,0.6-1,0.9c0-0.1,0-0.2,0-0.2c0.3-0.3,0.7-0.5,1-0.8
				C184.7,497.9,184.7,497.9,184.8,498z M184.6,497.7c-0.3,0.3-0.6,0.5-1,0.8c0,0,0-0.1-0.1-0.1c0.3-0.3,0.6-0.6,0.9-0.9
				C184.5,497.5,184.6,497.6,184.6,497.7z M184.3,497.3c-0.3,0.3-0.6,0.5-0.9,0.9c0,0-0.1-0.1-0.1-0.1
				C183.6,497.8,183.9,497.5,184.3,497.3C184.2,497.3,184.3,497.3,184.3,497.3z M184,497.1c-0.3,0.3-0.6,0.5-0.9,0.8
				c0,0-0.1-0.1-0.1-0.1c0.3-0.3,0.6-0.5,0.8-0.8C183.9,497.1,184,497.1,184,497.1z M182.3,497.7
				C182.3,497.7,182.2,497.7,182.3,497.7c0.3-0.3,0.6-0.5,0.9-0.8c0,0,0,0,0.1,0C182.9,497.2,182.6,497.4,182.3,497.7z M183.4,496.9
				c0.1,0,0.1,0,0.2,0c-0.3,0.3-0.5,0.5-0.8,0.8c-0.1,0-0.2-0.1-0.3-0.1C182.8,497.5,183.2,497.2,183.4,496.9z M181.9,497.7
				C181.9,497.7,181.9,497.7,181.9,497.7C181.8,497.7,181.8,497.7,181.9,497.7c-0.1,0-0.2,0-0.2,0c0.4-0.3,0.7-0.6,1.1-0.9
				c0,0,0.1,0.1,0.1,0.1C182.5,497.1,182.2,497.4,181.9,497.7z M182.1,498.3c0.2,0,0.5,0,0.7,0.1c0.3,0.1,0.5,0.5,0.3,0.8
				c-0.2,0.3-0.6,0.3-0.9,0.4C182.1,499.2,182.1,498.7,182.1,498.3z M184.2,494.2c-0.3,0.2-0.7,0.4-1,0.7c0-0.1,0-0.2,0-0.3
				c0.3-0.2,0.6-0.4,0.9-0.6C184.1,494.1,184.2,494.1,184.2,494.2z M183.9,493.6c0,0,0.1,0.1,0.1,0.1c-0.3,0.2-0.6,0.4-0.9,0.6
				c0-0.1-0.1-0.1-0.1-0.2c0.1-0.1,0.2-0.1,0.3-0.2C183.5,493.9,183.7,493.8,183.9,493.6z M183.8,493.5c-0.1,0.1-0.3,0.2-0.4,0.2
				c-0.1,0.1-0.2,0.2-0.4,0.2c0,0-0.1,0.1-0.1,0.1c-0.1-0.1-0.1-0.1-0.2-0.1c0.3-0.2,0.6-0.4,0.9-0.6
				C183.7,493.4,183.7,493.4,183.8,493.5z M183.4,493.2c-0.3,0.2-0.6,0.4-0.9,0.6c-0.1-0.1-0.3-0.1-0.4-0.1c0.3-0.2,0.7-0.4,1-0.6
				C183.2,493.1,183.3,493.1,183.4,493.2z M182,495.1c0-0.3,0-0.6,0-0.9c0.2,0,0.6,0.2,0.6,0.4C182.6,495,182.3,495.1,182,495.1z
				 M180.3,492.9c0.2,0,0.4,0,0.6,0c-0.2,0.1-0.4,0.2-0.6,0.4C180.3,493.1,180.3,493,180.3,492.9z M180.3,493.5
				c0.3-0.2,0.7-0.4,1-0.6c0.1,0,0.1,0,0.2,0c-0.4,0.2-0.8,0.6-1.2,0.8C180.3,493.6,180.3,493.5,180.3,493.5z M180.3,493.9
				c0.6-0.3,1-0.8,1.6-1c0,0,0,0,0.1,0c-0.2,0.2-0.5,0.3-0.7,0.5c-0.4,0.2-0.7,0.5-1.1,0.7C180.3,494,180.3,493.9,180.3,493.9z
				 M180.4,494.3c0.4-0.2,0.7-0.5,1.1-0.7c0.3-0.2,0.6-0.5,1-0.7c0.1,0,0.2,0,0.3,0c0,0,0.1,0,0.1,0c-0.4,0.2-0.7,0.5-1.1,0.7
				c0,0-0.1,0-0.1,0c0,0,0,0,0,0c-0.1,0-0.2,0.1-0.3,0.2c-0.3,0.2-0.6,0.4-1,0.6C180.4,494.4,180.4,494.4,180.4,494.3z M180.4,494.7
				c0.3-0.2,0.6-0.4,0.9-0.6c0,0,0,0.1,0,0.1c-0.3,0.2-0.6,0.4-0.9,0.6C180.4,494.8,180.4,494.7,180.4,494.7z M180.4,495.1
				c0.3-0.2,0.6-0.4,0.9-0.6c0,0,0,0.1,0,0.1c-0.3,0.2-0.6,0.4-0.9,0.7C180.4,495.2,180.4,495.2,180.4,495.1z M180.4,495.5
				c0.3-0.2,0.6-0.4,0.9-0.7c0,0.1,0,0.1,0,0.2c-0.3,0.2-0.6,0.4-0.9,0.6C180.4,495.6,180.4,495.6,180.4,495.5z M180.4,496
				c0.3-0.3,0.6-0.5,0.9-0.7c0,0,0,0,0,0.1C181,495.5,180.7,495.8,180.4,496C180.4,496,180.4,496,180.4,496z M180.4,496.3
				c0.2-0.1,0.3-0.2,0.5-0.4c0.2-0.1,0.3-0.2,0.5-0.3c0,0,0,0,0,0.1c-0.3,0.3-0.6,0.5-0.9,0.8C180.4,496.4,180.4,496.4,180.4,496.3z
				 M180.5,496.8c0.3-0.3,0.7-0.7,1.1-1c0.1,0,0.2,0,0.3,0c0,0,0,0,0,0c-0.5,0.4-1,0.8-1.4,1.2C180.5,496.9,180.5,496.8,180.5,496.8
				z M180.5,497.3c0.5-0.6,1.2-1.1,1.8-1.6c0.1,0,0.3-0.1,0.4-0.2c0.1-0.1,0.2-0.2,0.3-0.3c0.4-0.3,0.8-0.5,1.2-0.8c0,0,0,0.1,0,0.1
				C183,495.5,181.6,496.3,180.5,497.3C180.5,497.3,180.5,497.3,180.5,497.3z M180.5,497.6c1.1-1.1,2.5-1.9,3.7-2.8
				c0,0.1,0,0.2-0.1,0.3c-1.3,0.8-2.6,1.7-3.7,2.8C180.5,497.8,180.5,497.7,180.5,497.6z M180.5,498.2c1.1-1.1,2.3-1.9,3.5-2.7
				c-0.2,0.4-0.6,0.7-1.1,0.8c-0.1,0-0.2,0.2-0.2,0.3c-0.7,0.6-1.5,1.2-2.2,1.8C180.5,498.3,180.5,498.2,180.5,498.2z M180.5,498.6
				c0.3-0.2,0.6-0.5,0.9-0.7c0,0,0,0,0,0.1c0,0,0,0.1,0,0.1c-0.3,0.3-0.6,0.6-0.9,0.8C180.5,498.8,180.5,498.7,180.5,498.6z
				 M180.5,499.2c0.3-0.3,0.6-0.6,0.9-0.9c0,0,0,0,0,0c-0.3,0.4-0.6,0.7-0.9,1.1C180.6,499.4,180.5,499.3,180.5,499.2z M180.6,499.9
				c0.3-0.4,0.6-0.8,0.9-1.1c0,0.1,0,0.1,0,0.2c-0.3,0.4-0.6,0.8-0.9,1.1C180.6,500,180.6,499.9,180.6,499.9z M180.6,500.3
				C180.6,500.3,180.6,500.3,180.6,500.3c0.3-0.4,0.6-0.8,0.9-1.1c0,0.1,0,0.2,0,0.2c0,0,0,0-0.1,0c-0.2,0.4-0.5,0.7-0.8,1.1
				C180.6,500.5,180.6,500.4,180.6,500.3z M180.7,501C180.7,501,180.6,501,180.7,501c-0.1,0-0.1-0.1-0.1-0.1
				c0.3-0.4,0.6-0.8,0.9-1.2c0,0,0,0,0,0c0,0.1,0,0.2,0,0.3C181.3,500.4,181,500.7,180.7,501z M181,501c0.2-0.3,0.5-0.5,0.7-0.8
				c0,0,0.1,0,0.2,0c0,0,0,0,0.1,0c-0.2,0.3-0.4,0.5-0.6,0.8C181.2,501,181.1,501,181,501z M181.6,501c0.2-0.3,0.4-0.5,0.7-0.8
				c0.1,0,0.2,0,0.3-0.1c-0.2,0.3-0.5,0.6-0.7,0.8C181.7,501,181.7,501,181.6,501z M182.2,501c0,0-0.1,0-0.1,0
				c0.3-0.3,0.5-0.6,0.8-0.9c0.1,0,0.2-0.1,0.2-0.1C182.9,500.3,182.5,500.6,182.2,501C182.2,500.9,182.2,501,182.2,501z
				 M183.8,500.6C183.8,500.6,183.8,500.6,183.8,500.6c0.3-0.3,0.6-0.7,1-1C184.6,500.1,184.2,500.4,183.8,500.6z M184.9,499.2
				c-0.5,0.5-1,1-1.6,1.6c-0.1,0-0.2,0-0.3,0.1c0.6-0.6,1.2-1.2,1.9-1.8C184.9,499.1,184.9,499.1,184.9,499.2z M184.9,498.7
				C184.9,498.7,184.9,498.7,184.9,498.7c-0.8,0.7-1.5,1.4-2.2,2.2c-0.1,0-0.1,0-0.2,0c0.8-0.8,1.5-1.7,2.4-2.4
				C184.9,498.6,184.9,498.7,184.9,498.7z M184.8,498.3c-0.4,0.4-0.8,0.7-1.2,1.1c0-0.1,0.1-0.1,0.1-0.2c0.4-0.4,0.7-0.7,1.1-1.1
				C184.8,498.2,184.9,498.2,184.8,498.3C184.9,498.3,184.9,498.3,184.8,498.3C184.8,498.3,184.8,498.3,184.8,498.3z"/>
		</g>
		<g class="st5">
			<path class="st6" d="M226,483.1c-1.2-0.3-2.6-0.3-3.6-0.4c-2.7-0.5-5.3-1.2-8-1.2c-3.1,0-6.4,1.4-9.2,2.7
				c-1.9,0.9-4.6,1.6-5.9,3.3c-0.9,1.1-1.3,2.6-1.5,4c-0.5,2.8-0.4,5.8-0.3,8.7c0.1,2.2,0.2,6.4,2.3,7.8c1,0.6,2.5,0.5,3.6,0.5
				c2.7,0.1,5.4,0.2,8.1,0.3c2.3,0.1,4.8,1,6.9-0.4c3-2.1,5.9-4.3,8.9-6.4c0.3-0.2,0.7-0.5,0.9-0.8c0.3-0.4,0.3-1,0.4-1.5
				c0.2-2.7,0.2-5.3,0.1-8c-0.1-2,0.3-5.2-0.7-7C227.6,483.7,226.9,483.3,226,483.1z M223.1,485c-0.6,0.4-1.1,0.8-1.8,1.1
				c-1.3,0.6-2.5,1.5-3.8,2.2c-0.2,0.1-0.4,0.2-0.7,0.2c-0.2,0-0.5,0-0.7,0c-2.2-0.2-4.4-0.5-6.5-0.7c-1.2-0.1-2.3-0.1-3.5-0.2
				c-0.7,0-2.7-0.6-3.3-0.3c2.1-1.1,4.2-2.1,6.4-2.9c2.2-0.9,4.3-1.7,6.7-1.7c2.6,0,5.3,0.8,8,1.3c0.2,0,0.4,0.1,0.6,0
				C224,484.3,223.5,484.6,223.1,485z M215.1,506.3c-2.1,0.3-4.5-0.1-6.6-0.2c-1.9-0.1-6.4,0.5-7.7-1.2c-1.1-1.4-0.8-5.9-0.8-7.7
				c0-2.1,0-4.5,0.7-6.5c0.3-0.9,0.3-0.9,1.2-1c1-0.1,2.2,0.2,3.3,0.2c3.6,0.2,7.3,0.1,10.9,0.5c0.2,0,0.4,0,0.5,0.2
				c0.1,0.1,0.1,0.2,0.1,0.3c0.6,3.1,0.4,6.4,0.4,9.5c0,1.2,0.1,2.5,0,3.7C216.7,506.1,217,506,215.1,506.3z M219.4,504.1
				c0-0.3-0.1-0.6-0.1-0.9c0-2.5,0-4.9,0-7.4c0-1.9,0.3-4-0.1-5.9c-0.2-0.9,5.6-3.2,6.4-3.5c0.9-0.3,1-0.4,1.2,0.5
				c0.3,1.1,0,2.7,0,3.8c0,1.6,0,3.2-0.1,4.8c0,0.9,0.3,3.1-0.6,3.7c-1.3,0.9-2.7,1.8-4,2.8C221.5,502.5,220.3,503.9,219.4,504.1z"
				/>
			<path class="st6" d="M212.3,500.1c0,0-0.1,0-0.1,0c-0.5,0-1,0-1.4,0.1c-0.1,0-0.2,0-0.3,0.1c-0.2,0.1-0.2,0.5-0.3,0.8
				c-0.1,0.3-0.3,0.5-0.6,0.7c-0.4,0.2-0.8,0.2-1.1,0c-0.3-0.2-0.5-0.5-0.7-0.8c-0.4-0.8-0.5-1.7-0.5-2.6c-0.1-1-0.1-2.2,0.4-3.1
				c0.2-0.5,0.7-1,1.3-0.9c0.2,0,0.4,0.1,0.5,0.3c0.2,0.2,0,0.5,0.2,0.7c0.2,0.2,0.6,0.1,0.8,0.1c0.4-0.1,0.8-0.1,1.2-0.2
				c0.1,0,0.2,0,0.2-0.1c0.5-0.3,0.1-1.4-0.1-1.7c-0.3-0.6-0.7-1.1-1.1-1.4c-0.9-0.7-2.1-0.9-3.2-0.5c-2.8,1-3,4.4-2.9,6.9
				c0.2,2.5,1.1,5.4,3.9,6c2.4,0.5,4.6-1.5,4.4-3.9C212.7,500.3,212.5,500.1,212.3,500.1z M211.1,501C211.1,501,211.1,501,211.1,501
				C211.1,501,211.1,501.1,211.1,501C211.1,501.1,211.1,501,211.1,501z M211.2,494.6c0,0-0.1,0-0.1,0
				C211.1,494.6,211.1,494.6,211.2,494.6C211.2,494.6,211.2,494.6,211.2,494.6z M211,493.8c0.1,0.1,0.1,0.3,0.1,0.4
				c-0.3,0.1-0.6,0.3-0.9,0.4c0,0,0,0,0,0c0-0.1-0.1-0.2-0.2-0.3C210.4,494.2,210.7,494.1,211,493.8C211,493.9,211,493.9,211,493.8z
				 M210.9,493.6c0,0-0.1,0-0.1,0c-0.3,0.2-0.6,0.3-0.8,0.5c-0.1-0.1-0.2-0.2-0.3-0.3c0.3-0.2,0.6-0.4,1-0.6
				C210.7,493.4,210.8,493.5,210.9,493.6z M210.4,493c-0.3,0.2-0.7,0.5-1,0.7c-0.1-0.1-0.2-0.1-0.3-0.1c0.3-0.3,0.7-0.5,1.1-0.8
				C210.3,492.9,210.4,493,210.4,493z M209.9,492.6c-0.4,0.3-0.8,0.6-1.2,0.9c-0.2,0-0.4,0-0.6,0.1c0.5-0.4,1-0.8,1.5-1.2
				C209.7,492.5,209.8,492.6,209.9,492.6z M206.4,493.3c0.3-0.4,0.7-0.6,1.1-0.8c-0.4,0.3-0.8,0.7-1.2,1.1
				C206.3,493.5,206.4,493.4,206.4,493.3z M205.8,494.3c0.8-0.7,1.5-1.3,2.3-1.9c0,0,0,0,0-0.1c0.1,0,0.2,0,0.3,0
				c-1,0.9-2,1.8-2.9,2.8C205.6,494.8,205.7,494.6,205.8,494.3z M205.4,495.6c1.1-1.1,2.3-2.2,3.5-3.3c0.1,0,0.2,0,0.4,0.1
				c-1.4,1-2.6,2.1-3.8,3.4C205.4,495.7,205.4,495.6,205.4,495.6z M205.4,496.2c0.6-0.6,1.2-1.2,1.8-1.7c-0.1,0.2-0.3,0.4-0.4,0.7
				c-0.5,0.4-1,0.9-1.4,1.3C205.4,496.4,205.4,496.3,205.4,496.2z M205.3,496.9c0.4-0.4,0.8-0.8,1.3-1.2c0,0.2-0.1,0.3-0.1,0.5
				c-0.4,0.4-0.8,0.7-1.2,1.1C205.3,497.1,205.3,497,205.3,496.9z M205.3,497.7c0.3-0.4,0.7-0.7,1.1-1.1c0,0.2,0,0.3,0,0.5
				c-0.4,0.4-0.7,0.7-1,1.1C205.4,498,205.3,497.9,205.3,497.7z M205.4,498.6c0.3-0.4,0.6-0.7,1-1.1c0,0.1,0,0.2,0,0.3
				c-0.3,0.3-0.6,0.7-0.9,1C205.4,498.8,205.4,498.7,205.4,498.6z M205.5,499.3c0.3-0.3,0.6-0.7,0.9-1c0,0,0,0,0,0.1
				c0,0.1,0,0.2,0,0.3c-0.3,0.3-0.6,0.7-0.9,1.1C205.5,499.5,205.5,499.4,205.5,499.3z M205.6,500c0.3-0.4,0.5-0.7,0.8-1.1
				c0,0.1,0,0.2,0,0.3c-0.3,0.3-0.6,0.6-0.8,1C205.6,500.2,205.6,500.1,205.6,500z M205.7,500.6c0.2-0.3,0.5-0.7,0.8-1
				c0,0.1,0,0.2,0.1,0.3c-0.2,0.3-0.5,0.6-0.8,0.9C205.8,500.8,205.8,500.7,205.7,500.6z M205.9,501.1c0.2-0.3,0.5-0.6,0.8-0.9
				c0,0.1,0.1,0.2,0.1,0.3c-0.3,0.3-0.5,0.6-0.7,0.9C206,501.3,206,501.2,205.9,501.1z M206.2,501.7c0.2-0.3,0.4-0.6,0.7-0.9
				c0,0.1,0.1,0.2,0.1,0.2c-0.2,0.3-0.5,0.6-0.7,0.9C206.3,501.9,206.2,501.8,206.2,501.7z M206.5,502.2c0.2-0.3,0.4-0.6,0.7-0.8
				c0,0,0,0.1,0.1,0.1c-0.2,0.3-0.4,0.6-0.7,0.9C206.5,502.3,206.5,502.2,206.5,502.2z M206.7,502.5c0.2-0.3,0.4-0.6,0.6-0.8
				c0.1,0.1,0.1,0.1,0.2,0.2c-0.2,0.3-0.4,0.6-0.6,0.9C206.9,502.7,206.8,502.6,206.7,502.5z M207.1,502.9c0.2-0.3,0.4-0.6,0.6-0.9
				c0.1,0.1,0.2,0.2,0.3,0.2c-0.3,0.2-0.5,0.5-0.7,0.8C207.3,503.1,207.2,503,207.1,502.9z M207.9,503.4c-0.1,0-0.2-0.1-0.2-0.1
				c0.2-0.3,0.4-0.5,0.6-0.8c0,0,0-0.1,0-0.1c0,0,0,0,0,0c0.1,0,0.2,0.1,0.3,0.1C208.4,502.8,208.2,503.1,207.9,503.4
				C207.9,503.4,207.9,503.4,207.9,503.4z M208.2,503.5c0.2-0.3,0.5-0.6,0.8-0.8c0,0,0-0.1,0-0.1c0.2,0,0.4,0,0.6-0.1
				c-0.3,0.4-0.7,0.7-1,1.1C208.5,503.6,208.4,503.6,208.2,503.5z M209.4,503.7c-0.1,0-0.3,0-0.4,0c0.8-0.9,1.7-1.8,2.5-2.7
				c0.1,0,0.2,0,0.3,0C210.9,501.8,210.1,502.7,209.4,503.7z M211.7,502c-0.5,0.5-0.9,1-1.4,1.5c-0.2,0.1-0.3,0.1-0.5,0.2
				c0.6-0.8,1.3-1.6,2.1-2.3C211.8,501.6,211.8,501.8,211.7,502z"/>
		</g>
		<g class="st5">
			<path class="st6" d="M201,483.7c0-0.2-0.1-0.3-0.1-0.5c-0.1-0.3-0.2-0.7-0.2-1c0-0.2-0.1-0.3-0.1-0.5c-0.5-2-0.9-4-1.4-5.9
				c-0.1-0.5-0.8-0.4-1.2-0.4c-0.1,0-0.3,0-0.5,0c-0.1,0-0.2,0-0.3,0c-0.2,0-0.2,0.3-0.3,0.4c-0.1,0.2-0.2,0.4-0.3,0.6
				c-0.2,0.4-0.4,0.8-0.5,1.2c-0.8,1.8-1.6,3.7-2.5,5.5c-0.1,0.2-0.2,0.4-0.1,0.5c0.1,0.2,0.3,0.2,0.4,0.2c0.5,0,1,0.1,1.5,0.1
				c0.2,0,0.3-0.2,0.4-0.3c0.2-0.3,0.3-0.6,0.4-0.9c0.3-0.6,0.5-1.2,0.8-1.8c0.4,0,0.9,0.1,1.3,0.1c0,0,0.2,0.8,0.2,0.9
				c0.1,0.3,0.2,0.6,0.2,0.9c0.1,0.3,0.2,0.6,0.2,0.9c0.1,0.3,0.1,0.6,0.5,0.6c0.3,0,0.5,0,0.8,0.1c0.1,0,0.3,0,0.4,0
				c0.1,0,0.2,0,0.4,0c0,0,0,0,0.1,0c0,0,0.1-0.1,0.1-0.1C201.1,484,201,483.8,201,483.7C201,483.7,201,483.7,201,483.7z
				 M199.4,479.2c-0.3,0.2-0.6,0.4-1,0.5c0-0.1,0.1-0.1,0-0.2c0,0,0,0,0,0c0.3-0.2,0.6-0.3,0.9-0.5
				C199.3,479.1,199.3,479.1,199.4,479.2z M199.3,478.8c-0.3,0.2-0.6,0.4-0.9,0.5c0-0.1-0.1-0.1-0.1-0.2c0.3-0.2,0.6-0.3,0.9-0.5
				C199.2,478.7,199.2,478.7,199.3,478.8z M199.2,478.4c-0.3,0.2-0.6,0.4-1,0.5c0,0,0,0,0-0.1C198.5,478.7,198.8,478.5,199.2,478.4
				C199.1,478.3,199.2,478.4,199.2,478.4z M199,477.8c0,0.1,0,0.2,0.1,0.3c-0.4,0.2-0.7,0.4-1,0.6c0-0.1-0.1-0.2-0.1-0.2
				C198.3,478.3,198.7,478,199,477.8z M197.4,475.9c0.1,0,0.2,0,0.3,0c-0.1,0.1-0.3,0.1-0.4,0.2C197.3,476.1,197.4,476,197.4,475.9z
				 M197.2,476.4c0.3-0.2,0.6-0.3,0.9-0.4c0,0,0.1,0,0.1,0c-0.4,0.2-0.8,0.4-1.2,0.7C197.1,476.6,197.1,476.5,197.2,476.4z
				 M196.9,477.1c0.5-0.4,1.1-0.7,1.7-1c0,0,0,0,0,0c0,0,0,0,0,0c0,0,0,0.1,0,0.1c0,0,0,0,0,0C198,476.4,197.4,476.8,196.9,477.1
				C196.8,477.1,196.9,477.1,196.9,477.1z M196.7,477.5c0.6-0.4,1.3-0.8,2-1.1c0,0,0,0,0,0.1c-0.7,0.5-1.4,0.9-2.1,1.3
				C196.6,477.7,196.6,477.6,196.7,477.5z M196.4,478.1c0.8-0.5,1.6-0.9,2.3-1.4c0,0.1,0,0.1,0,0.2c-0.8,0.6-1.7,1.1-2.5,1.6
				C196.3,478.3,196.4,478.2,196.4,478.1z M196.1,478.7c0.9-0.6,1.8-1.1,2.7-1.7c0,0.1,0,0.1,0,0.2c-1,0.6-1.9,1.2-2.9,1.8
				C196,478.9,196.1,478.8,196.1,478.7z M195.9,479.3C195.9,479.3,195.9,479.3,195.9,479.3c1-0.7,2-1.3,3.1-1.9c0,0.1,0,0.1,0.1,0.2
				c-0.3,0.2-0.7,0.4-1.1,0.6c-0.1-0.1-0.3-0.1-0.4,0c0,0-0.1,0.1-0.1,0.1c0,0.1-0.1,0.2-0.1,0.2
				C196.8,478.9,196.3,479.1,195.9,479.3C195.8,479.3,195.8,479.3,195.9,479.3z M197.7,479.4c-0.1,0-0.1,0-0.2,0
				c0-0.1,0.1-0.1,0.1-0.2C197.7,479.2,197.7,479.3,197.7,479.4z M195.7,479.6c0.5-0.2,0.9-0.5,1.4-0.7c0,0.1-0.1,0.1-0.1,0.2
				c-0.3,0.2-0.7,0.4-1.1,0.6c-0.1,0-0.2,0.1-0.3,0.1C195.7,479.7,195.7,479.7,195.7,479.6z M195.5,480.1c0.2-0.1,0.5-0.2,0.7-0.3
				c0.2-0.1,0.4-0.2,0.7-0.3c0,0,0,0,0,0c0,0,0,0,0,0.1c-0.5,0.3-0.9,0.6-1.4,0.8C195.4,480.2,195.5,480.1,195.5,480.1z
				 M195.3,480.5c0.5-0.2,1-0.5,1.5-0.8c0,0,0,0,0,0c-0.5,0.3-1.1,0.6-1.6,0.9C195.3,480.6,195.3,480.6,195.3,480.5z M195.1,483.3
				C195.1,483.3,195.1,483.3,195.1,483.3C195.1,483.3,195.1,483.3,195.1,483.3C195.1,483.3,195.1,483.3,195.1,483.3z M195.3,483
				c-0.2,0.1-0.3,0.2-0.5,0.3c0,0,0,0,0,0c0,0-0.1,0-0.1,0C194.9,483.2,195.1,483,195.3,483C195.3,482.9,195.3,483,195.3,483z
				 M195.4,482.6c-0.4,0.2-0.8,0.4-1.2,0.6c0,0,0,0,0,0c-0.1,0-0.1,0-0.2,0c0,0,0,0,0,0c0,0,0,0,0,0c0.5-0.3,1-0.6,1.5-0.9
				C195.5,482.4,195.5,482.5,195.4,482.6z M195.7,482c-0.5,0.3-1,0.6-1.5,0.9c0.1-0.1,0.1-0.3,0.2-0.4c0,0,0,0,0.1,0
				c0.4-0.2,0.9-0.4,1.3-0.6C195.7,481.9,195.7,482,195.7,482z M195.9,481.6c-0.4,0.3-0.9,0.5-1.4,0.7c0-0.1,0-0.1,0.1-0.2
				c0,0,0,0,0.1,0c0.4-0.2,0.9-0.4,1.3-0.6C195.9,481.5,195.9,481.6,195.9,481.6z M196.1,481.2c-0.5,0.3-0.9,0.5-1.4,0.7
				c0-0.1,0.1-0.1,0.1-0.2c0.5-0.2,0.9-0.4,1.4-0.6C196.1,481.1,196.1,481.1,196.1,481.2z M196.2,480.8c-0.5,0.2-0.9,0.4-1.3,0.6
				c0,0,0-0.1,0-0.1c0.4-0.3,0.9-0.5,1.4-0.7C196.3,480.7,196.3,480.7,196.2,480.8z M196.6,480.2c0,0-0.1,0-0.1,0.1
				c-0.5,0.2-0.9,0.4-1.4,0.7c0,0,0,0,0,0c0.6-0.4,1.2-0.7,1.9-1.1c0,0,0.1,0,0.1,0c0,0,0.1,0,0.1,0
				C197,480,196.8,480.1,196.6,480.2z M197,480.2c0.2-0.1,0.3-0.2,0.5-0.3c0.2,0,0.3,0,0.5,0c-0.2,0.1-0.4,0.2-0.6,0.3
				C197.3,480.3,197.1,480.3,197,480.2z M198,480.3C198,480.3,198,480.3,198,480.3c-0.1,0-0.2,0-0.2,0c0.2-0.1,0.4-0.2,0.6-0.3
				c0.3-0.2,0.7-0.4,1-0.6c0,0,0,0.1,0,0.1C199,479.8,198.5,480,198,480.3z M198.5,480.3c0,0-0.1,0-0.1,0c0.4-0.2,0.8-0.4,1.2-0.6
				c0,0.1,0,0.1,0,0.2c0,0,0,0-0.1,0c-0.3,0.2-0.6,0.3-0.9,0.5C198.6,480.4,198.5,480.4,198.5,480.3z M198.7,480.7c0,0,0-0.1,0-0.1
				c0.3-0.1,0.6-0.3,0.8-0.4c0,0,0,0,0,0c0,0.1,0,0.2,0.1,0.3c-0.3,0.2-0.6,0.3-0.9,0.4C198.7,480.8,198.7,480.7,198.7,480.7z
				 M198.8,481.1c0.3-0.1,0.6-0.3,0.9-0.4c0,0.1,0,0.1,0,0.2c-0.3,0.2-0.6,0.4-0.9,0.6C198.8,481.2,198.8,481.1,198.8,481.1z
				 M199,481.7c0-0.1,0-0.1,0-0.2c0.3-0.2,0.6-0.4,0.9-0.6c0,0,0,0.1,0,0.1C199.5,481.3,199.2,481.5,199,481.7z M199,481.9
				c0.3-0.2,0.6-0.4,0.8-0.6c0,0,0,0.1,0,0.1c-0.3,0.2-0.5,0.4-0.8,0.6C199,482,199,482,199,481.9z M199.1,482.4
				C199.1,482.3,199.1,482.3,199.1,482.4c0.3-0.3,0.5-0.5,0.8-0.7c0,0.1,0,0.1,0,0.2C199.7,482,199.4,482.2,199.1,482.4z
				 M199.2,482.6c0.3-0.2,0.5-0.4,0.8-0.5c0,0,0,0.1,0,0.1C199.8,482.3,199.5,482.5,199.2,482.6
				C199.2,482.6,199.2,482.6,199.2,482.6z M199.3,482.8c0.3-0.2,0.6-0.3,0.8-0.5c0,0.1,0,0.1,0,0.2c-0.3,0.1-0.6,0.3-0.8,0.5
				C199.3,483,199.3,482.9,199.3,482.8z M199.4,483.2C199.4,483.2,199.4,483.2,199.4,483.2c0.3-0.2,0.5-0.3,0.8-0.5
				c0,0.1,0,0.1,0,0.2c-0.3,0.1-0.6,0.3-0.8,0.4C199.4,483.3,199.4,483.2,199.4,483.2z M199.6,483.6c-0.1,0-0.1,0-0.2,0
				c0,0,0,0,0-0.1c0.3-0.2,0.5-0.3,0.8-0.4c0,0.1,0,0.1,0.1,0.2C200.1,483.4,199.9,483.5,199.6,483.6
				C199.7,483.6,199.7,483.6,199.6,483.6z M200.1,483.6c0.1,0,0.2-0.1,0.3-0.1c0,0,0,0.1,0,0.1C200.3,483.6,200.2,483.6,200.1,483.6
				z"/>
			<path class="st6" d="M209,471.1c-0.8-0.2-1.7-0.2-2.3-0.4c-1.7-0.4-3.3-0.9-5.1-1c-1.9-0.1-4.1,0.7-5.9,1.4
				c-1.3,0.5-3,0.9-3.9,1.9c-0.6,0.7-0.9,1.6-1.1,2.5c-0.4,1.8-0.5,3.7-0.4,5.5c0,1.4-0.1,4.1,1.2,5c0.6,0.4,1.6,0.4,2.3,0.4
				c1.7,0.1,3.4,0.3,5.1,0.4c1.4,0.1,3.1,0.8,4.4-0.1c2-1.2,3.9-2.6,5.8-3.8c0.2-0.1,0.4-0.3,0.6-0.5c0.2-0.3,0.2-0.6,0.3-1
				c0.2-1.7,0.3-3.4,0.3-5.1c0-1.3,0.3-3.3-0.2-4.5C210,471.5,209.5,471.2,209,471.1z M207,472.2c-0.4,0.2-0.7,0.5-1.2,0.7
				c-0.9,0.4-1.6,0.9-2.5,1.3c-0.1,0.1-0.3,0.1-0.4,0.1c-0.2,0-0.3,0-0.5,0c-1.4-0.2-2.8-0.5-4.1-0.7c-0.7-0.1-1.5-0.1-2.2-0.2
				c-0.4,0-1.7-0.4-2.1-0.3c1.3-0.7,2.7-1.2,4.1-1.7c1.4-0.5,2.8-1,4.3-0.9c1.7,0.1,3.4,0.7,5,1.1c0.1,0,0.3,0.1,0.4,0
				C207.6,471.8,207.3,472,207,472.2z M201.3,485.5c-1.3,0.2-2.9-0.2-4.2-0.3c-1.2-0.1-4.1,0.1-4.9-1c-0.7-0.9-0.3-3.8-0.3-4.9
				c0.1-1.3,0.1-2.8,0.6-4.1c0.2-0.6,0.2-0.5,0.8-0.6c0.7,0,1.4,0.2,2.1,0.2c2.3,0.3,4.6,0.3,6.9,0.6c0.1,0,0.2,0,0.3,0.1
				c0,0.1,0.1,0.1,0.1,0.2c0.3,2,0.1,4,0,6c0,0.8,0,1.6-0.1,2.3C202.3,485.4,202.5,485.3,201.3,485.5z M204.1,484.2
				c0-0.2,0-0.4,0-0.6c0.1-1.6,0.2-3.1,0.3-4.7c0.1-1.2,0.3-2.5,0.1-3.7c-0.1-0.6,3.6-1.9,4.1-2c0.6-0.2,0.6-0.2,0.8,0.4
				c0.2,0.7-0.1,1.7-0.1,2.4c-0.1,1-0.1,2-0.2,3c-0.1,0.6,0.1,2-0.5,2.3c-0.9,0.5-1.8,1.1-2.6,1.6
				C205.5,483.2,204.7,484.1,204.1,484.2z"/>
		</g>
		<g class="st5">
			<path class="st6" d="M232.3,451.5c-6.6,4.6-12.4,10.3-16.9,16.9c-0.4,0.5,0.4,1.1,0.8,0.6c4.5-6.6,10.2-12.2,16.7-16.8
				C233.4,452,232.8,451.2,232.3,451.5z"/>
			<path class="st6" d="M213.4,466.3c1.4-2.7,3.2-5,5.4-7.2c0.4-0.4-0.3-1-0.8-0.6c-2.3,2.2-4.1,4.6-5.6,7.4
				C212.2,466.5,213.1,466.9,213.4,466.3z"/>
			<path class="st6" d="M210.1,464.1c1.7-5.9,4.6-11.3,8.5-16c0.4-0.5-0.4-1.1-0.8-0.6c-4,4.8-6.9,10.3-8.6,16.3
				C209,464.3,209.9,464.7,210.1,464.1z"/>
		</g>
		<path class="st7" d="M184.9,478.9c-0.1,0.6-1,0.4-0.9-0.2c0.2-1.1-0.3-1.5-1.6-1.1c-0.6,0.4-0.7,0.9-0.4,1.5
			c0.2,0.9,0.7,1.3,1.6,1.4c1.3,0.1,2.4-0.8,2.7-2.1c0.5-2.5-1.7-4.5-4-4.5c-0.6,0-0.7-0.9-0.1-0.9c2.3,0,4.6,1.5,5,3.9
			c0.4,2.2-1.1,4.6-3.6,4.5c-2-0.1-3.7-2.5-2.1-4.2C183,475.7,185.5,476.9,184.9,478.9z"/>
		<g>
			<path class="st7" d="M218.8,475.6c-0.1,0.1-0.3,0.2-0.4,0.3c-0.3,0.2-0.5,0.4-0.9,0.5c-0.5,0-0.8-0.3-1.2-0.5
				c-0.3-0.2-0.6-0.5-0.9-0.4c-0.2,0-0.4,0.2-0.6,0.3c-0.3,0.2-0.6,0.4-0.9,0.4c-0.3,0-0.6-0.2-0.8-0.4c0,0-0.1-0.1-0.1-0.1
				c-0.1-0.1-0.4-0.3-0.6-0.2c-0.1,0.1-0.2,0-0.3-0.1c-0.1-0.1,0-0.2,0.1-0.3c0.3-0.2,0.7-0.1,1.1,0.2c0,0,0.1,0.1,0.1,0.1
				c0.2,0.2,0.4,0.3,0.6,0.3c0.2,0,0.4-0.1,0.7-0.3c0.2-0.2,0.5-0.4,0.8-0.4c0.5,0,0.9,0.3,1.2,0.5c0.3,0.2,0.6,0.5,0.9,0.4
				c0.2,0,0.4-0.2,0.6-0.4c0.2-0.1,0.3-0.3,0.5-0.4c0.6-0.3,1.4-0.1,1.8,0.5c0.1,0.1,0.1,0.2,0,0.3c0,0,0,0,0,0
				c-0.1,0.1-0.2,0-0.3-0.1C219.8,475.6,219.2,475.4,218.8,475.6z"/>
			<path class="st7" d="M218.8,477.9c-0.1,0.1-0.3,0.2-0.4,0.3c-0.3,0.2-0.5,0.4-0.9,0.5c-0.5,0-0.8-0.3-1.2-0.5
				c-0.3-0.2-0.6-0.5-0.9-0.4c-0.2,0-0.4,0.2-0.6,0.3c-0.3,0.2-0.6,0.4-0.9,0.4c-0.3,0-0.6-0.2-0.8-0.4c0,0-0.1-0.1-0.1-0.1
				c-0.1-0.1-0.4-0.3-0.6-0.2c-0.1,0.1-0.2,0-0.3-0.1c-0.1-0.1,0-0.2,0.1-0.3c0.3-0.2,0.7-0.1,1.1,0.2c0,0,0.1,0.1,0.1,0.1
				c0.2,0.2,0.4,0.3,0.6,0.3c0.2,0,0.4-0.1,0.7-0.3c0.2-0.2,0.5-0.4,0.8-0.4c0.5,0,0.9,0.3,1.2,0.5c0.3,0.2,0.6,0.5,0.9,0.4
				c0.2,0,0.4-0.2,0.6-0.4c0.2-0.1,0.3-0.3,0.5-0.4c0.6-0.3,1.4-0.1,1.8,0.5c0.1,0.1,0.1,0.2,0,0.3c0,0,0,0,0,0
				c-0.1,0.1-0.2,0-0.3-0.1C219.8,477.8,219.2,477.7,218.8,477.9z"/>
		</g>
	</g>
</g>
</svg>
