<svg id="Layer_1" data-name="Layer 1" xmlns="http://www.w3.org/2000/svg" viewBox="0 0 238.51 516.46">
    <defs>
        <style>.cls-1,.cls-2,.cls-3{fill:none;stroke:#afafaf;stroke-miterlimit:10;stroke-width:0.5px;}.cls-2{stroke-dasharray:3.01 3.01;}.cls-3{stroke-dasharray:3;}.cls-4{fill:#e5e5e5;}.cls-5{fill:#b2c78b;opacity:0.4;}.cls-6,.cls-8{opacity:0.5;}.cls-7,.cls-8{fill:#aaa;}</style>
    </defs>
    <line class="cls-1" x1="9.24" y1="440.77" x2="9.24" y2="439.27" />
    <line class="cls-2" x1="9.24" y1="436.26" x2="9.24" y2="95" />
    <line class="cls-1" x1="9.24" y1="93.5" x2="9.24" y2="92" />
    <line class="cls-3" x1="67.28" y1="507.23" x2="226.64" y2="507.23" />
    <circle class="cls-4" cx="9.12" cy="90.64" r="1.55" />
    <circle class="cls-4" cx="226.42" cy="506.94" r="1.55" />
    <path class="cls-5" d="M0,342.14S26.92,373,16.92,422c-10.3,50.5-1.11,86.66,27.95,85.83s130.76-17.91,193.4,8.63H0Z" />
    <g class="cls-6">
        <path class="cls-7" d="M68.17,497.05c-.66.17-.48,1.22.19,1.05l7.92-2c.67-.17.49-1.22-.18-1.05Z" />
        <path class="cls-7" d="M76.15,499.8a.53.53,0,0,0,.1-1.06,24.44,24.44,0,0,0-8.77.54c-.67.17-.49,1.22.18,1.06A23.8,23.8,0,0,1,76.15,499.8Z" />
        <path class="cls-7" d="M69,502.62l5,.78c.68.11.78-1,.1-1.06l-5-.79C68.41,501.45,68.31,502.51,69,502.62Z" />
    </g>
    <g class="cls-6">
        <path class="cls-7" d="M57.83,498.77h-.11c-.4,0-.83,0-1.23.07a.53.53,0,0,0-.24.08c-.2.12-.17.47-.26.67a1.17,1.17,0,0,1-.54.58,1.11,1.11,0,0,1-1,0,1.47,1.47,0,0,1-.59-.69,7,7,0,0,1-.45-2.27,5.44,5.44,0,0,1,.36-2.68c.21-.42.6-.88,1.12-.78a.69.69,0,0,1,.44.26c.14.18,0,.46.16.62s.53.11.72.08l1-.14a.56.56,0,0,0,.21-.06c.4-.22.05-1.19-.09-1.48a3.39,3.39,0,0,0-1-1.26,2.91,2.91,0,0,0-2.8-.42c-2.4.9-2.66,3.86-2.5,6s1,4.71,3.36,5.18a3.16,3.16,0,0,0,3.79-3.42A.39.39,0,0,0,57.83,498.77Zm-1.07.78h0l0,0Zm.12-5.59h-.12l.12-.05Zm-.18-.67c0,.12.09.25.13.38-.25.11-.5.23-.74.36h0a2.1,2.1,0,0,0-.13-.26l.72-.44Zm-.09-.18a.13.13,0,0,0-.1,0l-.72.44a1.75,1.75,0,0,0-.23-.24c.29-.17.56-.36.84-.55A1.85,1.85,0,0,1,56.61,493.11Zm-.38-.52c-.29.21-.59.4-.89.59a1.39,1.39,0,0,0-.28-.12l.92-.68A1.64,1.64,0,0,1,56.23,492.59Zm-.47-.36-1,.78a1.68,1.68,0,0,0-.56.13c.43-.36.87-.71,1.32-1A1.43,1.43,0,0,1,55.76,492.23Zm-3,.61a2.59,2.59,0,0,1,.91-.7l-1.08.92Zm-.52.85c.65-.57,1.31-1.14,2-1.68l0-.05.3,0q-1.32,1.17-2.55,2.43A4.08,4.08,0,0,1,52.21,493.69Zm-.33,1.12c1-1,2-1.95,3-2.87l.31.06a29.07,29.07,0,0,0-3.34,2.93S51.87,494.85,51.88,494.81Zm-.07.52c.5-.52,1-1,1.53-1.48a3.56,3.56,0,0,0-.31.58c-.42.38-.83.76-1.24,1.16A2.46,2.46,0,0,0,51.81,495.33Zm0,.61,1.1-1.05c0,.14-.07.28-.1.42-.34.31-.68.63-1,1Zm0,.68c.3-.32.61-.62.94-.92,0,.15,0,.3,0,.45-.3.3-.59.62-.87,1C51.8,497,51.79,496.78,51.79,496.62Zm.05.84a12.39,12.39,0,0,1,.83-.94v.28c-.28.28-.55.57-.81.88A1.8,1.8,0,0,1,51.84,497.46Zm0,.55c.26-.3.52-.59.79-.87v.05c0,.08,0,.15,0,.23a10.9,10.9,0,0,0-.75.93Zm.12.67c.22-.32.47-.62.72-.92l0,.25c-.25.27-.49.56-.71.85C52,498.8,52,498.74,52,498.68Zm.12.49c.21-.29.44-.57.68-.84a1.89,1.89,0,0,1,0,.23,5.87,5.87,0,0,1-.66.83C52.17,499.31,52.15,499.24,52.13,499.17Zm.16.48c.21-.26.46-.5.66-.77a1.42,1.42,0,0,0,.07.22c-.22.26-.43.52-.63.79Zm.23.49c.18-.26.39-.52.6-.77a2,2,0,0,0,.1.21c-.21.25-.4.5-.6.75A1.14,1.14,0,0,1,52.52,500.14Zm.25.42c.19-.26.38-.5.58-.74l.06.09c-.2.24-.39.49-.57.74Zm.23.29c.18-.25.37-.49.56-.73l.15.16a4.89,4.89,0,0,1-.55.74Zm.35.34a6.76,6.76,0,0,0,.55-.74,2.11,2.11,0,0,0,.29.2,3.7,3.7,0,0,0-.6.72Zm.66.43-.21-.12a2.88,2.88,0,0,1,.55-.66.12.12,0,0,0,0-.09l0,0,.29.1a6.15,6.15,0,0,0-.68.76Zm.27.1A5.82,5.82,0,0,1,55,501a.09.09,0,0,0,0-.07,1.29,1.29,0,0,0,.56-.06c-.3.32-.59.64-.88,1A3.06,3.06,0,0,1,54.28,501.72Zm1,.13H55c.7-.79,1.44-1.55,2.17-2.32h.28A18,18,0,0,0,55.31,501.85Zm2-1.49c-.43.39-.81.83-1.2,1.26a2.45,2.45,0,0,1-.45.17,18,18,0,0,1,1.81-2A2.58,2.58,0,0,1,57.32,500.36Z" />
        <path class="cls-7" d="M39.1,486.69c-.72,1.47-.34,4-.32,5.6,0,2.12.18,4.24.4,6.35a2.47,2.47,0,0,0,.35,1.2,2.59,2.59,0,0,0,.73.62c2.44,1.56,4.85,3.26,7.28,4.78,1.68,1,3.68.24,5.49.1l6.43-.5a6,6,0,0,0,2.88-.55c1.68-1.16,1.56-4.48,1.58-6.26a30.4,30.4,0,0,0-.53-6.87A6.91,6.91,0,0,0,62,488c-1.15-1.32-3.27-1.76-4.84-2.41-2.23-.91-5-1.92-7.38-1.8a36.13,36.13,0,0,0-6.32,1.28c-.77.17-1.9.2-2.84.47A2.33,2.33,0,0,0,39.1,486.69Zm2.81-.5a.72.72,0,0,0,.5,0,37.81,37.81,0,0,1,6.27-1.32,13.48,13.48,0,0,1,5.4,1.1,37.44,37.44,0,0,1,5.18,2.1c-.46-.23-2,.27-2.59.33-.92.1-1.85.14-2.77.26-1.71.24-3.43.62-5.17.83a2.25,2.25,0,0,1-.58,0,2.12,2.12,0,0,1-.54-.17c-1.08-.44-2-1.14-3.09-1.58a10.35,10.35,0,0,1-1.47-.82Zm6.76,15.72c-.12-1-.1-2-.15-2.92a37.16,37.16,0,0,1,0-7.53.45.45,0,0,1,.08-.23.52.52,0,0,1,.38-.17c2.86-.43,5.75-.46,8.62-.79a16.43,16.43,0,0,1,2.59-.29c.72,0,.72,0,1,.71a16.61,16.61,0,0,1,.76,5.11c.08,1.43.48,4.95-.36,6.14-1,1.45-4.56,1.15-6.1,1.27a29.1,29.1,0,0,1-5.25.41C48.64,503.44,48.86,503.49,48.67,501.91Zm-4.33-1.55c-1.07-.71-2.16-1.4-3.26-2.06-.73-.44-.53-2.13-.59-2.88-.11-1.26-.2-2.53-.26-3.79a11.59,11.59,0,0,1-.12-3c.19-.78.26-.68,1-.48s5.29,1.8,5.18,2.56a23.76,23.76,0,0,0,.13,4.69l.3,5.83a4.66,4.66,0,0,1,0,.75C46,501.9,45,500.77,44.34,500.36Z" />
    </g>
    <g class="cls-6">
        <path class="cls-7" d="M32.11,497.64a3.07,3.07,0,0,0,.62-4.29,2.67,2.67,0,0,0-.82-.71,5.35,5.35,0,0,0-2.65-.54c-.46,0-.92,0-1.38,0s-1-.07-1.23.31c-.11.16,0,.49,0,.67l0,.8.06,1.56c0,.94.07,1.88.1,2.82s.08,1.88.11,2.82S27,503,27,503.91a.63.63,0,0,0,0,.27.4.4,0,0,0,.22.16,1.4,1.4,0,0,0,.5,0h.42l.89,0a15.78,15.78,0,0,0,1.82-.17,5.47,5.47,0,0,0,1.67-.55,3.2,3.2,0,0,0,1.21-1.21.56.56,0,0,0,0-.08A3.27,3.27,0,0,0,32.11,497.64Zm1.09,1.95a.09.09,0,0,0-.07,0c-.42.38-.84.77-1.24,1.17a1,1,0,0,0,0-.31l1.28-1.05ZM33,499.2l-1.24,1a.75.75,0,0,0-.07-.12A10.87,10.87,0,0,1,32.8,499,1.55,1.55,0,0,1,33,499.2Zm-.38-.43a9.61,9.61,0,0,0-1.1,1.11l-.15-.14c.36-.37.74-.72,1.14-1.06Zm-.35-.24c-.39.33-.77.68-1.13,1.05l-.18-.1L32,498.42Zm-2.29.69h-.06c.39-.33.78-.66,1.16-1h.08C30.77,498.57,30.36,498.88,30,499.22Zm1.52-1,.24.05-1.06,1.05-.35-.1C30.72,498.94,31.12,498.62,31.49,498.27Zm-2,.94h-.11a.47.47,0,0,0-.17,0l1.4-1.14a.36.36,0,0,0,.11.1Zm.21.8a2.18,2.18,0,0,1,.88.16.74.74,0,0,1,.4,1c-.22.36-.75.44-1.22.48Zm2.72-5.28c-.41.29-.84.57-1.28.85a1.07,1.07,0,0,0,0-.4,7.55,7.55,0,0,0,1.18-.74A1.4,1.4,0,0,1,32.43,494.73Zm-.32-.74.12.2a7.22,7.22,0,0,1-1.15.73,1.13,1.13,0,0,0-.12-.21c.14-.07.27-.17.37-.23C31.58,494.33,31.84,494.13,32.11,494Zm-.17-.21-.51.32-.48.29-.17.11a2.11,2.11,0,0,0-.23-.19c.39-.25.76-.52,1.15-.76A1.75,1.75,0,0,1,31.94,493.78Zm-.48-.4c-.4.25-.78.52-1.17.78a2,2,0,0,0-.56-.19l1.28-.8A2.35,2.35,0,0,1,31.46,493.38Zm-1.88,2.55,0-1.15c.32,0,.74.23.8.51C30.46,495.75,30,495.87,29.58,495.93Zm-2.15-3h.76c-.26.14-.5.3-.74.46Zm0,.78a10.06,10.06,0,0,1,1.3-.8H29c-.54.31-1,.72-1.57,1Zm0,.54c.74-.39,1.35-1,2.13-1.31h.1c-.3.19-.59.42-.85.6-.46.32-.9.66-1.37,1Zm0,.58c.47-.3.92-.64,1.38-1a11.22,11.22,0,0,1,1.29-.88l.36,0,.11,0c-.48.29-.95.59-1.43.9l-.1,0h0a.34.34,0,0,0-.33.26l-1.25.77Zm0,.48,1.23-.75v.17c-.4.28-.82.52-1.22.79Zm0,.53c.4-.28.81-.52,1.21-.79v.17c-.4.3-.81.57-1.21.86Zm0,.57,1.2-.86v.25a7.07,7.07,0,0,0-1.2.82Zm0,.55a7.65,7.65,0,0,1,1.19-.86v.08a5.7,5.7,0,0,0-1.18.87Zm0,.44.59-.47c.2-.15.39-.31.6-.44l0,.07a12.24,12.24,0,0,0-1.21,1.06Zm0,.59a13.88,13.88,0,0,1,1.4-1.25.45.45,0,0,0,.41,0h0a13.58,13.58,0,0,0-1.8,1.58Zm0,.7A13.51,13.51,0,0,1,30,496.66a1.63,1.63,0,0,0,.55-.22A1.3,1.3,0,0,0,31,496l1.5-1c0,.07,0,.13,0,.19-1.62,1.21-3.35,2.24-4.85,3.6Zm0,.43a51.16,51.16,0,0,1,4.82-3.6,1.28,1.28,0,0,1-.07.34,31,31,0,0,0-4.73,3.57Zm0,.67a28.39,28.39,0,0,1,4.54-3.49,2.14,2.14,0,0,1-1.4,1.06.4.4,0,0,0-.3.38L27.7,500.1Zm0,.61,1.18-1v.28c-.4.35-.79.71-1.16,1.09Zm0,.78c.38-.39.77-.76,1.17-1.12v.06c-.39.48-.78,1-1.15,1.45Zm0,.82c.37-.5.76-1,1.15-1.47v.23l-1.15,1.48Zm0,.63.05,0,1.1-1.41v.3a.12.12,0,0,0-.08.06A16,16,0,0,1,27.81,503Zm.15.87h-.12v-.14c.4-.49.8-1,1.16-1.5v0a.45.45,0,0,0,.05.34C28.69,502.73,28.3,503.13,28,503.54Zm.37,0c.31-.35.62-.69.91-1a.38.38,0,0,0,.22,0h.08c-.28.34-.56.67-.83,1Zm.74,0c.28-.35.58-.69.86-1l.44-.07c-.33.36-.64.72-.95,1.1Zm.86-.05h-.13c.34-.41.7-.81,1.06-1.21l.29-.13c-.41.43-.82.87-1.21,1.33Zm2-.42h0l1.29-1.29A2.38,2.38,0,0,1,31.94,503Zm1.44-1.83-2,2-.34.08c.77-.82,1.57-1.62,2.41-2.37A2.06,2.06,0,0,1,33.38,501.2Zm0-.62h0c-1,.88-1.94,1.82-2.84,2.79l-.24,0a41.35,41.35,0,0,1,3.07-3.14A1.53,1.53,0,0,1,33.42,500.58Zm-.18-.53c-.51.47-1,.95-1.49,1.44a1,1,0,0,0,.09-.28c.47-.47.95-.93,1.45-1.37l0,.13s0,0,0,0A.14.14,0,0,0,33.24,500.05Z" />
        <path class="cls-7" d="M10.24,484.43c-1,1.8-.66,5-.72,7-.08,2.67,0,5.34.14,8A3.12,3.12,0,0,0,10,501a3.29,3.29,0,0,0,.89.81c3,2.1,5.9,4.37,8.88,6.42,2,1.41,4.61.52,6.89.44l8.1-.26c1.14,0,2.62.12,3.64-.52,2.19-1.37,2.22-5.54,2.35-7.78a38.11,38.11,0,0,0-.28-8.67,8.56,8.56,0,0,0-1.53-4c-1.36-1.72-4-2.4-5.94-3.3-2.74-1.27-6.11-2.7-9.16-2.69a46.19,46.19,0,0,0-8,1.25c-1,.17-2.4.14-3.61.43A2.92,2.92,0,0,0,10.24,484.43ZM13.8,484a.9.9,0,0,0,.63,0,50.1,50.1,0,0,1,8-1.3,17.4,17.4,0,0,1,6.72,1.69,48.42,48.42,0,0,1,6.38,2.94c-.56-.31-2.59.22-3.26.27-1.16.08-2.34.07-3.5.17-2.17.2-4.34.58-6.54.74a2.55,2.55,0,0,1-.73,0,2.26,2.26,0,0,1-.67-.25c-1.33-.62-2.46-1.54-3.8-2.16A13.9,13.9,0,0,1,15.19,485Zm7.59,20.14c-.09-1.22,0-2.46,0-3.68,0-3.12-.23-6.4.39-9.47a.5.5,0,0,1,.6-.47c3.61-.38,7.25-.25,10.88-.5a20,20,0,0,1,3.27-.22c.9.09.9.06,1.21.95a20.63,20.63,0,0,1,.66,6.46c0,1.8.32,6.25-.79,7.69-1.37,1.77-5.81,1.19-7.74,1.25-2.1.07-4.56.56-6.63.22S21.54,506.1,21.39,504.1ZM16,501.9q-1.95-1.44-4-2.78c-.89-.59-.54-2.7-.58-3.65-.06-1.59-.1-3.18-.11-4.77a14.85,14.85,0,0,1,0-3.77c.28-1,.37-.83,1.25-.54S19.18,489,19,489.9a29.71,29.71,0,0,0-.12,5.89q0,3.68.05,7.36a7.4,7.4,0,0,1-.05.94C18,503.93,16.79,502.45,16,501.9Z" />
    </g>
    <g class="cls-6">
        <path class="cls-7" d="M37.27,483.72a.78.78,0,0,0,0,.4.2.2,0,0,0,.08.12h.07a1.54,1.54,0,0,0,.37,0l.4,0,.79-.06c.37,0,.4-.29.49-.6l.23-.89.24-.89a5,5,0,0,1,.23-.86l1.27-.09.8,1.84c.13.3.25.62.4.91s.16.35.37.34l1.53-.11c.16,0,.37,0,.43-.17a.85.85,0,0,0-.15-.55c-.86-1.82-1.67-3.66-2.5-5.5-.18-.4-.36-.8-.55-1.2l-.28-.62c-.06-.14-.13-.37-.31-.41a1.9,1.9,0,0,0-.34,0,3.27,3.27,0,0,0-.45,0c-.39,0-1.09-.05-1.22.43-.55,1.93-.94,3.93-1.4,5.89l-.11.46c-.08.33-.16.66-.23,1l-.12.49ZM39,479l.87.52v0a.26.26,0,0,0,0,.23,8.84,8.84,0,0,1-.95-.53Zm.09-.38a8.48,8.48,0,0,0,.93.52,1.54,1.54,0,0,1-.08.19l-.9-.53Zm.06-.29a5.28,5.28,0,0,1,1,.56l0,.07a7.78,7.78,0,0,1-1-.55Zm1.16.13a2.6,2.6,0,0,1-.1.25,5.62,5.62,0,0,0-1-.58l.07-.29C39.59,478.05,39.93,478.25,40.29,478.45Zm.7-2.31-.44-.18.34,0Zm.24.53c-.38-.25-.8-.45-1.2-.66h.15c.3.17.64.26.94.44Zm.21.48a9.78,9.78,0,0,0-1.8-1h0l0-.13h0a10.15,10.15,0,0,1,1.72,1Zm.27.6c-.71-.43-1.44-.84-2.14-1.31l0-.07a12.19,12.19,0,0,1,2,1.1Zm.3.65c-.84-.53-1.72-1-2.52-1.59l0-.16c.76.5,1.56.94,2.34,1.41Zm.27.59c-.94-.63-1.9-1.23-2.89-1.79l0-.19c.87.62,1.82,1.13,2.72,1.71Zm.16.36c-.47-.24-.95-.47-1.42-.72l-.12-.24a.33.33,0,0,0-.13-.13.28.28,0,0,0-.4,0c-.37-.2-.73-.42-1.07-.65l.05-.22c1,.59,2,1.22,3,1.89l.05,0Zm-1.81-.19.11.2-.2,0Zm2,.64-.31-.14c-.36-.18-.73-.35-1.08-.56l-.08-.17,1.39.71Zm.21.46a12.63,12.63,0,0,1-1.4-.76.14.14,0,0,0,0-.06v0l.67.34a6.69,6.69,0,0,1,.67.32Zm.18.39-1.59-.91v0a8.82,8.82,0,0,0,1.52.8Zm.09,2.67h0Zm-.17-.41c.23.13.46.26.7.37h-.15A2.39,2.39,0,0,1,43,483Zm-.24-.56c.48.3,1,.56,1.47.86h0v0H44a12.25,12.25,0,0,1-1.19-.63Zm-.21-.47c.43.23.87.43,1.32.63h.05l.18.39c-.49-.3-1-.57-1.49-.88Zm-.17-.4a12.14,12.14,0,0,0,1.31.63h.05l.07.15c-.47-.21-.93-.43-1.38-.68Zm-.19-.43c.45.21.89.44,1.35.63l.09.19a14.8,14.8,0,0,1-1.38-.69Zm-.2-.46a10.21,10.21,0,0,1,1.39.73l0,.09c-.45-.2-.89-.43-1.34-.62Zm-.83-.67h.1l.1,0c.62.37,1.25.7,1.86,1.08v0c-.44-.26-.92-.47-1.38-.69a.29.29,0,0,0-.14-.08A4.29,4.29,0,0,1,41.12,479.92Zm-.26.36-.57-.3.52,0a4.66,4.66,0,0,0,.47.3Zm-2-.73,0-.12c.34.21.69.39,1,.57.19.11.39.2.6.3l-.2,0,0,0C39.81,480,39.31,479.82,38.84,479.55Zm.84.84a7.84,7.84,0,0,1-.86-.45.07.07,0,0,0-.06,0l0-.17c.37.21.77.39,1.15.59h-.14A.28.28,0,0,0,39.68,480.39Zm-.13.47-.91-.45.08-.31h0a6.9,6.9,0,0,0,.85.45.34.34,0,0,0,0,.14Zm-.13.48a7.91,7.91,0,0,0-.86-.56l0-.17.89.44Zm-.94-.24,0-.12a6.93,6.93,0,0,1,.85.56l0,.18C39,481.53,38.77,481.29,38.48,481.1Zm.74,1c-.28-.19-.55-.41-.82-.62l0-.15c.28.2.55.43.84.62Zm-.91-.25,0-.16c.27.21.54.42.82.61l0,.09A7.48,7.48,0,0,0,38.31,481.82Zm.76.83-.84-.49,0-.14c.29.15.55.36.83.54ZM39,483a3.81,3.81,0,0,0-.84-.46l0-.19c.27.17.55.33.83.48Zm-.09.32a5,5,0,0,0-.83-.43l0-.16a3.77,3.77,0,0,1,.8.46h0Zm-.29.25-.64-.27,0-.22a5.06,5.06,0,0,1,.83.44l0,.05-.19,0Zm-.72.07,0-.15.29.13Z" />
        <path class="cls-7" d="M28.08,472c-.57,1.17-.26,3.21-.24,4.48,0,1.69.15,3.39.34,5.08a1.91,1.91,0,0,0,.28,1A2,2,0,0,0,29,483c2,1.24,3.89,2.59,5.84,3.81,1.34.83,2.95.18,4.39.06,1.72-.14,3.43-.27,5.14-.42a4.76,4.76,0,0,0,2.3-.44c1.35-.94,1.24-3.58,1.25-5a24.71,24.71,0,0,0-.44-5.5,5.55,5.55,0,0,0-1.1-2.49c-.92-1.05-2.62-1.4-3.87-1.91a15,15,0,0,0-5.91-1.43,30,30,0,0,0-5.05,1c-.61.14-1.52.17-2.27.39A1.87,1.87,0,0,0,28.08,472Zm2.25-.41a.55.55,0,0,0,.4,0,31.08,31.08,0,0,1,5-1.08,10.93,10.93,0,0,1,4.32.87A29.73,29.73,0,0,1,44.21,473c-.37-.18-1.64.22-2.07.27-.73.08-1.48.12-2.21.22-1.37.19-2.75.5-4.14.67a1.78,1.78,0,0,1-.46,0,2.49,2.49,0,0,1-.44-.14c-.86-.35-1.61-.91-2.47-1.26a9.46,9.46,0,0,1-1.18-.65Zm5.44,12.56c-.09-.77-.08-1.56-.13-2.33a30.38,30.38,0,0,1,0-6,.42.42,0,0,1,.06-.19.44.44,0,0,1,.3-.13c2.29-.35,4.6-.38,6.9-.65a12.17,12.17,0,0,1,2.07-.24c.58,0,.57,0,.8.56a13.12,13.12,0,0,1,.61,4.09c.07,1.14.4,4-.26,4.91-.81,1.16-3.65.93-4.88,1a23,23,0,0,1-4.2.34C35.75,485.34,35.93,485.39,35.77,484.12Zm-3.46-1.23c-.86-.57-1.73-1.12-2.62-1.64-.58-.35-.42-1.7-.48-2.3-.09-1-.16-2-.22-3a9.63,9.63,0,0,1-.09-2.39c.15-.63.2-.55.77-.39s4.23,1.43,4.15,2a18.82,18.82,0,0,0,.11,3.75c.09,1.56.17,3.12.26,4.67a4,4,0,0,1,0,.6C33.6,484.12,32.8,483.22,32.31,482.89Z" />
    </g>
    <g class="cls-6">
        <path class="cls-7" d="M6,451.53a65.82,65.82,0,0,1,16.93,16.93c.35.51-.4,1.12-.75.61A64.87,64.87,0,0,0,5.44,452.32C4.92,452,5.49,451.18,6,451.53Z" />
        <path class="cls-7" d="M24.9,466.3a28.5,28.5,0,0,0-5.44-7.15c-.45-.43.31-1,.75-.61a29.49,29.49,0,0,1,5.58,7.37C26.08,466.46,25.19,466.85,24.9,466.3Z" />
        <path class="cls-7" d="M28.18,464.12a44.83,44.83,0,0,0-8.47-16,.48.48,0,0,1,.75-.61,45.55,45.55,0,0,1,8.61,16.25C29.24,464.32,28.36,464.72,28.18,464.12Z" />
    </g>
    <path class="cls-8" d="M53.33,478.89c.15.55,1,.4.89-.16-.2-1.08.33-1.47,1.58-1.15a1.09,1.09,0,0,1,.41,1.48,1.64,1.64,0,0,1-1.59,1.39,2.51,2.51,0,0,1-2.69-2.06,3.87,3.87,0,0,1,4-4.49c.57,0,.66-.88.09-.89a4.9,4.9,0,0,0-5,3.88c-.38,2.25,1.12,4.63,3.58,4.47,2-.14,3.65-2.55,2.06-4.21A1.93,1.93,0,0,0,53.33,478.89Z" />
    <path class="cls-8" d="M19.48,475.61a2.39,2.39,0,0,1,.42.31,1.6,1.6,0,0,0,.88.46,1.79,1.79,0,0,0,1.19-.53c.3-.24.58-.47.88-.44a1.21,1.21,0,0,1,.61.3,1.39,1.39,0,0,0,.94.37,1.5,1.5,0,0,0,.8-.41l.11-.08c.12-.09.42-.29.62-.19a.22.22,0,0,0,.29-.09.2.2,0,0,0-.08-.28,1,1,0,0,0-1.07.23l-.12.09a1.2,1.2,0,0,1-.57.31,1,1,0,0,1-.66-.29,1.65,1.65,0,0,0-.81-.38,1.77,1.77,0,0,0-1.2.53,1.42,1.42,0,0,1-.88.44,1.37,1.37,0,0,1-.65-.36,2,2,0,0,0-.5-.36,1.48,1.48,0,0,0-1.8.46.21.21,0,0,0,0,.26l0,0a.21.21,0,0,0,.29-.05A1.06,1.06,0,0,1,19.48,475.61Z" />
    <path class="cls-8" d="M19.48,477.9a2.39,2.39,0,0,1,.42.31,1.6,1.6,0,0,0,.88.46,1.79,1.79,0,0,0,1.19-.53c.3-.24.58-.47.88-.44a1.39,1.39,0,0,1,.61.3,1.39,1.39,0,0,0,.94.37,1.56,1.56,0,0,0,.8-.4l.11-.09c.12-.09.42-.29.62-.19a.22.22,0,0,0,.29-.09.2.2,0,0,0-.08-.28,1,1,0,0,0-1.07.23l-.12.09a1.12,1.12,0,0,1-.57.31,1,1,0,0,1-.66-.29,1.65,1.65,0,0,0-.81-.38,1.77,1.77,0,0,0-1.2.53,1.42,1.42,0,0,1-.88.44,1.22,1.22,0,0,1-.65-.36,2.28,2.28,0,0,0-.5-.36,1.48,1.48,0,0,0-1.8.46.21.21,0,0,0,0,.26l0,0a.21.21,0,0,0,.29,0A1.06,1.06,0,0,1,19.48,477.9Z" />
</svg>