<?xml version="1.0" encoding="utf-8"?>
<!-- Generator: Adobe Illustrator 25.4.1, SVG Export Plug-In . SVG Version: 6.00 Build 0)  -->
<svg version="1.1" id="Layer_1" xmlns="http://www.w3.org/2000/svg" xmlns:xlink="http://www.w3.org/1999/xlink" x="0px" y="0px"
	 viewBox="0 0 1500 1000" style="enable-background:new 0 0 1500 1000;" xml:space="preserve">
<style type="text/css">
	.st0{fill:none;stroke:#AEAEAE;stroke-miterlimit:10;}
	.st1{fill:none;stroke:#AEAEAE;stroke-miterlimit:10;stroke-dasharray:8.9167,8.9167;}
	.st2{fill:none;stroke:#AEAEAE;stroke-miterlimit:10;stroke-dasharray:9;}
	.st3{fill:#E4E4E4;}
	.st4{opacity:0.4;fill:#B2C78B;}
	.st5{opacity:0.5;}
	.st6{fill:#A9A9A9;}
	.st7{opacity:0.5;fill:#A9A9A9;}
	.st8{fill:none;stroke:#AEAEAE;stroke-width:0.5;stroke-miterlimit:10;}
	.st9{fill:none;stroke:#AEAEAE;stroke-width:0.5;stroke-miterlimit:10;stroke-dasharray:3.0067,3.0067;}
	.st10{fill:none;stroke:#AEAEAE;stroke-width:0.5;stroke-miterlimit:10;stroke-dasharray:3;}
	.st11{opacity:0.4;fill:#B1C787;}
</style>
<g>
	<g>	
		<g>
			<g>
				<g>
					<line class="st0" x1="1468.3" y1="740.3" x2="1468.3" y2="735.8"/>
					<line class="st1" x1="1468.3" y1="726.9" x2="1468.3" y2="285.5"/>
					<line class="st0" x1="1468.3" y1="281" x2="1468.3" y2="276.5"/>
				</g>
			</g>
			<line class="st2" x1="1269.1" y1="968.3" x2="198" y2="968.3"/>
			<circle class="st3" cx="1468.7" cy="265.6" r="5.3"/>
			<circle class="st3" cx="189.4" cy="967.3" r="5.3"/>
			<path class="st4" d="M1500,401.9c0,0-92.4,105.9-58.1,274c35.4,173.3,3.8,297.3-95.9,294.5c-99.7-2.8-448.7-61.5-663.6,29.6H1500
				V401.9z"/>
			<g>
				<g class="st5">
					<path class="st6" d="M1266,933.4c2.3,0.6,1.7,4.2-0.6,3.6c-9.1-2.3-18.1-4.6-27.2-7c-2.3-0.6-1.7-4.2,0.6-3.6
						C1247.8,928.7,1256.9,931,1266,933.4z"/>
					<path class="st6" d="M1238.6,942.8c-2.4,0.3-2.7-3.4-0.3-3.7c10.2-1.2,20.2-0.6,30.1,1.9c2.3,0.6,1.7,4.2-0.6,3.6
						C1258.1,942.3,1248.4,941.7,1238.6,942.8z"/>
					<path class="st6" d="M1263.2,952.5c-5.7,0.9-11.5,1.8-17.2,2.7c-2.3,0.4-2.7-3.3-0.3-3.7c5.7-0.9,11.5-1.8,17.2-2.7
						C1265.2,948.5,1265.5,952.1,1263.2,952.5z"/>
				</g>
				<g class="st5">
					<path class="st6" d="M1360.5,894c-3.2-0.9-7.1-1-9.8-1.6c-7.2-1.7-14.3-4-21.7-4.4c-8.3-0.4-17.7,3.1-25.3,6.2
						c-5.4,2.2-12.7,3.7-16.6,8.3c-2.6,3-3.8,6.9-4.7,10.7c-1.7,7.7-1.9,15.7-1.8,23.6c0.1,6.1-0.4,17.5,5.4,21.5
						c2.7,1.9,6.8,1.6,9.9,1.9c7.4,0.6,14.7,1.1,22.1,1.7c6.2,0.5,13.1,3.2,18.8-0.3c8.4-5.2,16.6-11.1,25-16.4
						c0.9-0.6,1.9-1.2,2.5-2.1c0.8-1.2,1-2.7,1.2-4.1c0.8-7.2,1.3-14.5,1.4-21.8c0.1-5.4,1.4-14.2-1.1-19.2
						C1364.8,895.8,1362.8,894.7,1360.5,894z M1352.2,898.7c-1.6,1-3.2,2-5,2.8c-3.7,1.5-6.9,3.9-10.6,5.4c-0.6,0.2-1.2,0.5-1.9,0.6
						c-0.7,0.1-1.3,0-2-0.1c-6-0.7-11.9-2-17.7-2.8c-3.1-0.4-6.4-0.6-9.5-0.9c-1.8-0.2-7.3-1.9-8.9-1.1c5.7-2.8,11.7-5.3,17.8-7.2
						c6.1-2.1,12-4.2,18.5-3.8c7.2,0.5,14.5,2.9,21.5,4.5c0.6,0.1,1.2,0.3,1.7,0C1354.8,896.9,1353.5,897.8,1352.2,898.7z
						 M1327.7,955.9c-5.7,0.7-12.3-1-18-1.4c-5.3-0.4-17.4,0.6-20.9-4.4c-2.9-4.1-1.5-16.2-1.2-21.1c0.3-5.7,0.4-12.2,2.6-17.5
						c1-2.4,1-2.3,3.4-2.4c2.8-0.2,6.1,0.7,8.9,1c9.9,1.1,19.8,1.2,29.6,2.7c0.5,0.1,1,0.2,1.3,0.6c0.2,0.2,0.2,0.5,0.3,0.8
						c1.3,8.4,0.3,17.4-0.1,25.9c-0.2,3.3-0.1,6.7-0.5,10C1332.3,955.5,1333,955.3,1327.7,955.9z M1339.7,950.3
						c-0.1-0.9-0.1-1.7,0-2.6c0.3-6.7,0.7-13.4,1-20c0.3-5.3,1.2-10.8,0.4-16.1c-0.4-2.6,15.6-8.2,17.8-8.8c2.4-0.7,2.7-1,3.3,1.6
						c0.7,2.9-0.2,7.2-0.4,10.3c-0.2,4.3-0.5,8.7-0.9,13c-0.2,2.6,0.5,8.4-2,9.9c-3.8,2.3-7.5,4.6-11.2,7.1
						C1345.7,946.1,1342.2,950,1339.7,950.3z"/>
					<path class="st6" d="M1313.4,931.4c3.4-2.6,4.5-7.6,1.6-11.4c-0.6-0.8-1.3-1.4-2.2-1.9c-2.1-1.2-4.6-1.4-7-1.4
						c-1.2,0-2.4,0-3.7,0.1c-1,0.1-2.6-0.2-3.3,0.8c-0.3,0.4-0.1,1.3,0,1.8c0,0.7,0.1,1.4,0.1,2.1c0.1,1.4,0.1,2.8,0.2,4.1
						c0.1,2.5,0.2,5,0.3,7.5c0.1,2.5,0.2,5,0.3,7.5c0.1,2.5,0.2,4.9,0.3,7.4c0,0.3,0,0.5,0.1,0.7c0.1,0.2,0.3,0.4,0.6,0.4
						c0.4,0.1,0.9,0.1,1.3,0c0.4,0,0.7,0,1.1-0.1c0.8,0,1.6-0.1,2.4-0.1c1.6-0.1,3.2-0.2,4.8-0.5c1.5-0.3,3-0.7,4.4-1.5
						c1.3-0.8,2.5-1.8,3.2-3.2c0-0.1,0.1-0.1,0.1-0.2C1320.7,938.5,1318.1,933.2,1313.4,931.4z M1316.3,936.5c-0.1,0-0.1,0-0.2,0.1
						c-1.1,1-2.2,2-3.3,3.1c0-0.3,0-0.6-0.1-0.8c1.1-0.9,2.3-1.8,3.4-2.8C1316.2,936.2,1316.2,936.4,1316.3,936.5z M1315.7,935.5
						c-1.1,0.9-2.2,1.8-3.3,2.7c-0.1-0.1-0.1-0.2-0.2-0.3c0.9-1.1,1.9-2.1,3-3C1315.4,935,1315.6,935.3,1315.7,935.5z M1314.7,934.3
						c-1.1,0.9-2,1.9-2.9,2.9c-0.1-0.1-0.3-0.3-0.4-0.4c1-1,2-1.9,3-2.8C1314.5,934.2,1314.6,934.3,1314.7,934.3z M1313.8,933.7
						c-1,0.9-2.1,1.8-3,2.8c-0.2-0.1-0.3-0.2-0.5-0.3c0.9-0.9,1.9-1.9,2.8-2.8C1313.4,933.5,1313.6,933.6,1313.8,933.7z
						 M1307.7,935.5c-0.1,0-0.1,0-0.2,0c1-0.9,2.1-1.8,3.1-2.7c0.1,0,0.1,0,0.2,0C1309.8,933.8,1308.8,934.6,1307.7,935.5z
						 M1311.8,933c0.2,0,0.4,0.1,0.6,0.1c-0.9,0.9-1.9,1.9-2.8,2.8c-0.3-0.1-0.6-0.2-0.9-0.3C1309.7,934.8,1310.8,934,1311.8,933z
						 M1306.5,935.5c0,0-0.1,0-0.1,0c-0.1,0-0.1,0-0.2,0c-0.1,0-0.3-0.1-0.5-0.1c1.2-1,2.5-2,3.7-3c0.1,0.1,0.2,0.2,0.3,0.2
						C1308.7,933.7,1307.6,934.6,1306.5,935.5z M1307,937.6c0.8,0,1.6,0.1,2.3,0.4c1,0.5,1.7,1.7,1.1,2.7c-0.6,1-2,1.2-3.2,1.3
						C1307.1,940.6,1307.1,939.1,1307,937.6z M1314.3,923.6c-1.1,0.8-2.3,1.5-3.4,2.3c0.1-0.3,0.1-0.7,0-1.1c1.1-0.6,2.1-1.2,3.1-2
						C1314.1,923.1,1314.2,923.4,1314.3,923.6z M1313.4,921.7c0.1,0.2,0.2,0.3,0.3,0.5c-1,0.7-2,1.4-3,1.9c-0.1-0.2-0.2-0.4-0.3-0.6
						c0.4-0.2,0.7-0.4,1-0.6C1312,922.6,1312.7,922,1313.4,921.7z M1312.9,921.1c-0.5,0.3-0.9,0.6-1.3,0.9c-0.4,0.3-0.8,0.5-1.3,0.8
						c-0.1,0.1-0.3,0.2-0.5,0.3c-0.2-0.2-0.4-0.3-0.6-0.5c1-0.7,2-1.4,3.1-2C1312.5,920.7,1312.8,920.9,1312.9,921.1z M1311.7,920.1
						c-1.1,0.7-2.1,1.4-3.1,2.1c-0.5-0.2-1-0.4-1.5-0.5c1.1-0.7,2.3-1.4,3.4-2.1C1310.9,919.6,1311.3,919.8,1311.7,920.1z
						 M1306.7,926.8c0-1,0-2,0-3c0.9,0.1,2,0.6,2.1,1.3C1309,926.3,1307.7,926.7,1306.7,926.8z M1301,919c0.7,0,1.3,0,2,0
						c-0.7,0.4-1.3,0.8-2,1.2C1301,919.8,1301,919.4,1301,919z M1301.1,921c1.1-0.8,2.2-1.5,3.4-2.1c0.2,0,0.5,0,0.7,0
						c-1.4,0.8-2.7,1.9-4.2,2.7C1301.1,921.5,1301.1,921.2,1301.1,921z M1301.1,922.5c2-1,3.6-2.6,5.6-3.5c0.1,0,0.2,0,0.3,0
						c-0.8,0.5-1.5,1.1-2.2,1.6c-1.2,0.8-2.4,1.7-3.6,2.6C1301.1,922.9,1301.1,922.7,1301.1,922.5z M1301.2,924
						c1.3-0.8,2.4-1.7,3.6-2.5c1-0.7,2.2-1.7,3.4-2.3c0.3,0,0.6,0,1,0.1c0.1,0,0.2,0,0.3,0c-1.3,0.8-2.5,1.6-3.8,2.4
						c-0.1,0-0.2,0-0.3,0.1c0,0,0,0-0.1,0c-0.4,0-0.8,0.2-0.9,0.7c-1.1,0.7-2.2,1.4-3.3,2C1301.2,924.3,1301.2,924.2,1301.2,924z
						 M1301.2,925.3c1.1-0.6,2.2-1.3,3.3-2c0,0.2,0,0.3,0,0.5c-1.1,0.7-2.2,1.4-3.2,2.1C1301.2,925.6,1301.2,925.5,1301.2,925.3z
						 M1301.3,926.7c1.1-0.7,2.2-1.4,3.2-2.1c0,0.1,0,0.3,0,0.4c-1,0.8-2.1,1.5-3.2,2.3C1301.3,927.1,1301.3,926.9,1301.3,926.7z
						 M1301.3,928.2c1-0.8,2.1-1.5,3.2-2.3c0,0.2,0,0.4,0,0.6c-1.1,0.6-2.2,1.3-3.2,2.2C1301.4,928.6,1301.3,928.4,1301.3,928.2z
						 M1301.4,929.7c1-0.9,2-1.6,3.1-2.3c0,0.1,0,0.1,0,0.2c-1.1,0.5-2.2,1.4-3.1,2.3C1301.4,929.8,1301.4,929.7,1301.4,929.7z
						 M1301.4,930.8c0.5-0.4,1-0.8,1.6-1.2c0.5-0.4,1-0.8,1.6-1.2c0,0.1,0,0.1,0.1,0.2c-1.1,0.9-2.2,1.8-3.2,2.8
						C1301.5,931.2,1301.4,931,1301.4,930.8z M1301.5,932.4c1.2-1.2,2.4-2.3,3.7-3.3c0.4,0.2,0.8,0.1,1.1,0c0,0,0,0,0,0
						c-1.7,1.3-3.3,2.7-4.8,4.2C1301.5,932.9,1301.5,932.7,1301.5,932.4z M1301.6,934.2c1.8-2.1,4-3.9,6.3-5.5
						c0.5-0.1,1-0.3,1.5-0.6c0.4-0.3,0.8-0.7,1.1-1.1c1.3-0.9,2.7-1.7,4-2.6c0,0.2,0,0.3,0,0.5c-4.3,3.2-8.9,5.9-12.9,9.5
						C1301.6,934.4,1301.6,934.3,1301.6,934.2z M1301.6,935.4c3.9-3.7,8.5-6.4,12.8-9.6c0,0.3-0.1,0.6-0.2,0.9
						c-4.4,2.9-8.8,5.8-12.6,9.5C1301.6,935.9,1301.6,935.7,1301.6,935.4z M1301.7,937.2c3.6-3.6,7.8-6.5,12.1-9.3
						c-0.7,1.3-1.9,2.3-3.7,2.8c-0.5,0.1-0.8,0.6-0.8,1c-2.5,2-5,4.1-7.5,6.1C1301.7,937.6,1301.7,937.4,1301.7,937.2z
						 M1301.7,938.8c1-0.9,2.1-1.7,3.1-2.6c0,0.1,0,0.2,0,0.3c0,0.2,0,0.3,0,0.5c-1.1,0.9-2.1,1.9-3.1,2.9
						C1301.8,939.5,1301.7,939.1,1301.7,938.8z M1301.8,940.8c1-1,2-2,3.1-3c0,0.1,0,0.1,0,0.2c-1,1.3-2.1,2.6-3.1,3.9
						C1301.8,941.5,1301.8,941.2,1301.8,940.8z M1301.9,943c1-1.3,2-2.6,3.1-3.9c0,0.2,0,0.4,0,0.6c-1,1.3-2,2.6-3.1,3.9
						C1301.9,943.4,1301.9,943.2,1301.9,943z M1302,944.7c0,0,0.1-0.1,0.1-0.1c1-1.3,1.9-2.5,2.9-3.8c0,0.3,0,0.5,0,0.8
						c-0.1,0-0.2,0.1-0.2,0.2c-0.9,1.3-1.8,2.6-2.8,3.8C1302,945.3,1302,945,1302,944.7z M1302.4,947c-0.1,0-0.2,0-0.3,0
						c0-0.1,0-0.3,0-0.4c1.1-1.3,2.1-2.6,3.1-4c0,0,0,0.1,0,0.1c-0.1,0.3,0,0.6,0.1,0.9C1304.3,944.9,1303.3,945.9,1302.4,947z
						 M1303.4,947c0.8-0.9,1.6-1.8,2.4-2.8c0.2,0.1,0.4,0.1,0.6,0.1c0.1,0,0.1,0,0.2,0c-0.7,0.9-1.5,1.8-2.2,2.7
						C1304,946.9,1303.7,946.9,1303.4,947z M1305.3,946.9c0.8-0.9,1.5-1.8,2.3-2.8c0.4-0.1,0.8-0.1,1.2-0.2c-0.9,1-1.7,1.9-2.5,2.9
						C1305.9,946.9,1305.6,946.9,1305.3,946.9z M1307.6,946.8c-0.1,0-0.2,0-0.4,0c0.9-1.1,1.9-2.2,2.8-3.2c0.3-0.1,0.5-0.2,0.8-0.3
						C1309.7,944.4,1308.7,945.6,1307.6,946.8C1307.6,946.8,1307.6,946.8,1307.6,946.8z M1312.9,945.7
						C1312.9,945.7,1312.9,945.7,1312.9,945.7c1.1-1.1,2.2-2.3,3.4-3.4C1315.7,943.7,1314.5,945,1312.9,945.7z M1316.8,940.8
						c-1.8,1.8-3.6,3.6-5.4,5.4c-0.3,0.1-0.6,0.2-0.9,0.2c2-2.2,4.2-4.3,6.4-6.3C1316.8,940.3,1316.8,940.6,1316.8,940.8z
						 M1316.9,939.1C1316.9,939.1,1316.8,939.2,1316.9,939.1c-2.7,2.4-5.2,4.9-7.6,7.4c-0.2,0-0.4,0.1-0.6,0.1
						c2.6-2.9,5.3-5.7,8.2-8.3C1316.8,938.6,1316.9,938.9,1316.9,939.1z M1316.4,937.7c-1.4,1.2-2.7,2.5-4,3.8
						c0.1-0.2,0.2-0.5,0.3-0.7c1.2-1.2,2.5-2.5,3.8-3.6c0,0.1,0.1,0.2,0.1,0.4c0,0,0,0.1,0,0.1
						C1316.6,937.6,1316.5,937.7,1316.4,937.7z"/>
				</g>
				<g class="st5">
					<path class="st6" d="M1458,885.6c-4.1-1-9-0.9-12.4-1.5c-9.1-1.7-18.2-4.2-27.5-4.3c-10.5-0.1-22,4.9-31.5,9.2
						c-6.6,3.1-15.7,5.4-20.4,11.3c-3.1,3.9-4.4,8.9-5.3,13.7c-1.7,9.8-1.5,19.9-0.9,29.8c0.4,7.7,0.5,22,8,26.7
						c3.5,2.2,8.6,1.6,12.5,1.8c9.3,0.3,18.5,0.6,27.8,0.9c7.8,0.3,16.6,3.3,23.7-1.5c10.2-7,20.3-14.8,30.5-22.1
						c1.1-0.8,2.3-1.6,3-2.8c1-1.5,1.1-3.4,1.2-5.3c0.6-9.1,0.8-18.3,0.5-27.5c-0.2-6.8,0.9-17.9-2.5-24.1
						C1463.5,887.6,1460.9,886.3,1458,885.6z M1447.9,891.9c-1.9,1.4-3.9,2.7-6.2,3.8c-4.6,2.1-8.5,5.3-13,7.4
						c-0.7,0.3-1.5,0.7-2.3,0.8c-0.8,0.2-1.7,0.1-2.5,0c-7.5-0.5-15-1.9-22.4-2.5c-4-0.4-8-0.3-12-0.6c-2.3-0.2-9.3-2-11.2-0.9
						c7-3.9,14.4-7.3,21.9-10.1c7.6-3,14.8-6,23.1-5.8c9.1,0.2,18.3,2.8,27.3,4.5c0.7,0.1,1.5,0.3,2.1-0.1
						C1451,889.6,1449.4,890.7,1447.9,891.9z M1420.3,965.2c-7.1,1.2-15.6-0.5-22.8-0.7c-6.6-0.2-21.9,1.8-26.6-4.3
						c-3.8-4.9-2.8-20.2-2.7-26.4c0.1-7.2-0.2-15.3,2.2-22.2c1.1-3.1,1.1-3,4.2-3.3c3.5-0.4,7.7,0.5,11.2,0.8
						c12.5,0.8,24.9,0.4,37.4,1.7c0.6,0.1,1.3,0.2,1.7,0.6c0.2,0.3,0.3,0.6,0.4,1c2.1,10.5,1.4,21.8,1.3,32.5
						c0,4.2,0.2,8.5-0.1,12.6C1426,964.4,1427,964.1,1420.3,965.2z M1435.2,957.5c-0.2-1.1-0.2-2.1-0.2-3.2
						c0.1-8.4,0.1-16.8,0.2-25.2c0-6.6,0.9-13.7-0.4-20.2c-0.6-3.2,19.1-11.2,21.8-12.1c3-1,3.3-1.5,4.3,1.9
						c1.1,3.6,0.1,9.1,0.1,12.9c0,5.5-0.2,10.9-0.4,16.4c-0.1,3.2,1.1,10.5-2,12.5c-4.6,3.1-9.2,6.2-13.7,9.5
						C1442.4,951.9,1438.3,957,1435.2,957.5z"/>
					<path class="st6" d="M1410.8,944c-0.1,0-0.3,0-0.4,0c-1.6,0.1-3.3,0-4.9,0.3c-0.3,0.1-0.7,0.1-1,0.3c-0.8,0.5-0.7,1.9-1,2.6
						c-0.4,1-1.2,1.8-2.1,2.3c-1.2,0.6-2.7,0.6-3.9-0.1c-1.1-0.6-1.8-1.6-2.3-2.7c-1.2-2.7-1.6-6-1.8-8.9c-0.2-3.4-0.2-7.5,1.4-10.6
						c0.8-1.7,2.4-3.5,4.4-3.1c0.7,0.1,1.3,0.5,1.8,1c0.5,0.7,0,1.8,0.6,2.5c0.6,0.6,2.1,0.4,2.9,0.3c1.4-0.2,2.7-0.4,4.1-0.6
						c0.3,0,0.6-0.1,0.8-0.2c1.6-0.9,0.2-4.7-0.3-5.9c-0.9-1.9-2.3-3.7-3.9-5c-3.2-2.5-7.3-3-11-1.6c-9.5,3.5-10.5,15.2-9.9,23.8
						c0.6,8.4,3.8,18.6,13.3,20.5c8.4,1.7,15.7-5.1,15-13.5C1412.3,944.4,1411.5,944,1410.8,944z M1406.6,947.1
						C1406.6,947.1,1406.6,947.1,1406.6,947.1c0,0,0,0.1,0,0.1C1406.5,947.1,1406.6,947.1,1406.6,947.1z M1407,925
						c-0.2,0-0.3,0-0.5,0c0.2-0.1,0.3-0.1,0.5-0.2C1407,924.9,1407,925,1407,925z M1406.3,922.4c0.2,0.5,0.4,1,0.5,1.5
						c-1,0.4-2,0.9-2.9,1.4c0,0,0,0-0.1,0c-0.2-0.4-0.3-0.7-0.5-1c1-0.6,1.9-1.2,2.9-1.7C1406.2,922.5,1406.3,922.4,1406.3,922.4z
						 M1406,921.7c-0.1,0-0.3,0-0.4,0.1c-0.9,0.6-1.9,1.2-2.8,1.7c-0.3-0.3-0.6-0.7-0.9-0.9c1.1-0.7,2.2-1.4,3.3-2.2
						C1405.4,920.8,1405.7,921.2,1406,921.7z M1404.5,919.6c-1.1,0.8-2.3,1.6-3.5,2.3c-0.3-0.2-0.7-0.3-1.1-0.5
						c1.2-0.9,2.4-1.8,3.6-2.7C1403.8,919,1404.2,919.3,1404.5,919.6z M1402.6,918.2c-1.4,1-2.8,2-4.1,3.1c-0.7,0-1.4,0.2-2.2,0.5
						c1.7-1.4,3.4-2.8,5.2-4.1C1401.9,917.8,1402.3,918,1402.6,918.2z M1390.6,920.6c1.1-1.3,2.3-2.2,3.6-2.8
						c-1.4,1.2-2.9,2.4-4.3,3.6C1390.2,921.2,1390.4,920.9,1390.6,920.6z M1388.6,924c2.6-2.2,5.2-4.5,7.8-6.6
						c0.1-0.1,0.1-0.1,0.1-0.2c0.4-0.1,0.8-0.1,1.2-0.1c-3.5,3.1-6.8,6.3-10.1,9.6C1387.9,925.7,1388.2,924.8,1388.6,924z
						 M1387.3,928.4c3.8-3.9,7.7-7.7,11.9-11.3c0.4,0,0.8,0.1,1.2,0.2c-4.7,3.5-9.1,7.4-13.2,11.5
						C1387.3,928.7,1387.3,928.5,1387.3,928.4z M1387,930.4c1.9-2,4-4,6-5.8c-0.5,0.7-0.9,1.5-1.2,2.3c-1.7,1.5-3.3,3-4.9,4.6
						C1387,931.1,1387,930.7,1387,930.4z M1386.9,932.8c1.4-1.4,2.9-2.8,4.3-4.1c-0.1,0.5-0.3,1.1-0.4,1.7c-1.4,1.2-2.7,2.5-4,3.8
						C1386.9,933.7,1386.9,933.3,1386.9,932.8z M1386.9,935.5c1.2-1.3,2.4-2.5,3.7-3.6c-0.1,0.6-0.1,1.2-0.2,1.8
						c-1.2,1.2-2.4,2.5-3.4,3.8C1387,936.8,1387,936.2,1386.9,935.5z M1387.1,938.8c1-1.3,2.1-2.5,3.3-3.7c0,0.4,0,0.7,0,1.1
						c-1.1,1.1-2.2,2.3-3.2,3.5C1387.2,939.4,1387.2,939.1,1387.1,938.8z M1387.4,941c1-1.2,2-2.3,3.1-3.4c0,0.1,0,0.1,0,0.2
						c0,0.3,0,0.6,0.1,0.9c-1,1.2-2,2.4-3,3.7C1387.5,941.9,1387.4,941.4,1387.4,941z M1387.8,943.6c0.9-1.3,1.9-2.4,2.9-3.6
						c0,0.3,0.1,0.7,0.1,1c-1,1.1-1.9,2.2-2.8,3.4C1387.9,944.1,1387.9,943.9,1387.8,943.6z M1388.3,945.6c0.8-1.2,1.7-2.3,2.7-3.3
						c0.1,0.3,0.1,0.6,0.2,0.9c-0.7,1.2-1.7,2.2-2.6,3.3C1388.5,946.1,1388.4,945.9,1388.3,945.6z M1388.9,947.4c0.8-1,1.8-2,2.6-3
						c0.1,0.3,0.2,0.6,0.3,0.9c-0.9,1-1.7,2-2.5,3.1C1389.2,948.1,1389.1,947.8,1388.9,947.4z M1389.8,949.4
						c0.7-1.1,1.5-2.1,2.4-3.1c0.1,0.3,0.3,0.6,0.4,0.8c-0.8,1-1.6,2-2.4,3C1390.1,949.9,1389.9,949.7,1389.8,949.4z M1390.8,951
						c0.7-1,1.5-2,2.3-2.9c0.1,0.1,0.2,0.3,0.2,0.4c-0.8,0.9-1.5,1.9-2.3,2.9C1391,951.3,1390.9,951.2,1390.8,951z M1391.7,952.2
						c0.7-1,1.5-2,2.2-2.9c0.2,0.2,0.4,0.4,0.6,0.6c-0.6,1-1.4,2-2.2,2.9C1392.1,952.7,1391.9,952.4,1391.7,952.2z M1393.1,953.5
						c0.8-0.9,1.5-1.9,2.2-2.9c0.4,0.3,0.7,0.6,1.1,0.8c-0.9,0.8-1.7,1.8-2.3,2.9C1393.7,954,1393.4,953.8,1393.1,953.5z
						 M1395.7,955.2c-0.3-0.1-0.6-0.3-0.8-0.4c0.6-1,1.3-1.9,2.1-2.6c0.1-0.1,0.2-0.2,0.2-0.3c0.1,0,0.1,0.1,0.2,0.1
						c0.4,0.2,0.8,0.3,1.1,0.4C1397.5,953.2,1396.6,954.2,1395.7,955.2C1395.8,955.2,1395.8,955.2,1395.7,955.2z M1396.8,955.6
						c0.8-1,1.7-2,2.6-2.9c0.1-0.1,0.1-0.2,0.1-0.3c0.8,0.1,1.5,0,2.2-0.2c-1.2,1.3-2.3,2.5-3.5,3.8
						C1397.8,955.9,1397.3,955.8,1396.8,955.6z M1400.8,956.1c-0.4,0-0.9,0-1.3,0c2.8-3.1,5.7-6.1,8.6-9.2c0.4,0,0.7,0,1.1-0.1
						C1406.1,949.7,1403.4,952.9,1400.8,956.1z M1408.8,950.2c-1.7,1.6-3.2,3.3-4.7,5c-0.6,0.3-1.1,0.5-1.7,0.6
						c2.2-2.8,4.5-5.4,7.1-7.8C1409.3,948.8,1409,949.6,1408.8,950.2z"/>
				</g>
				<g class="st5">
					<path class="st6" d="M1372,887.4c-0.1-0.6-0.3-1.1-0.4-1.7c-0.3-1.1-0.5-2.3-0.8-3.4c-0.1-0.5-0.2-1.1-0.4-1.6
						c-1.6-6.7-2.9-13.6-4.8-20.2c-0.5-1.6-2.8-1.3-4.2-1.5c-0.5-0.1-1.1-0.2-1.6-0.2c-0.3,0-0.8,0-1.2,0.1
						c-0.6,0.1-0.8,0.9-1.1,1.4c-0.3,0.7-0.6,1.4-1,2.1c-0.6,1.4-1.3,2.8-1.9,4.1c-2.9,6.3-5.6,12.6-8.6,18.9
						c-0.3,0.6-0.7,1.2-0.5,1.9c0.2,0.6,0.9,0.5,1.5,0.6c1.7,0.1,3.5,0.2,5.2,0.4c0.7,0.1,1-0.6,1.3-1.2c0.5-1,0.9-2.1,1.4-3.1
						c0.9-2.1,1.8-4.2,2.8-6.3c1.5,0.1,2.9,0.2,4.4,0.3c0.2,0,0.7,2.7,0.8,3c0.3,1,0.5,2,0.8,3.1c0.3,1,0.5,2,0.8,3.1
						c0.3,1.1,0.4,2,1.7,2.1c0.9,0.1,1.8,0.1,2.7,0.2c0.5,0,0.9,0.1,1.4,0.1c0.4,0,0.8,0.1,1.3,0c0.1,0,0.2,0,0.2-0.1
						c0.1-0.1,0.2-0.2,0.3-0.4c0.1-0.5,0-0.9-0.1-1.4C1372,887.5,1372,887.5,1372,887.4z M1366.4,872.2c-1,0.7-2.2,1.3-3.3,1.8
						c0.1-0.2,0.2-0.5,0.1-0.8c0,0,0,0,0-0.1c1-0.6,2-1.2,3-1.8C1366.3,871.6,1366.3,871.9,1366.4,872.2z M1366,870.7
						c-1,0.6-2.1,1.2-3.1,1.8c-0.1-0.2-0.2-0.4-0.3-0.7c1.1-0.5,2.2-1.1,3.2-1.8C1365.9,870.3,1366,870.5,1366,870.7z M1365.7,869.4
						c-1.1,0.7-2.2,1.3-3.3,1.9c0-0.1-0.1-0.2-0.1-0.2c1.1-0.7,2.2-1.4,3.4-1.9C1365.7,869.2,1365.7,869.3,1365.7,869.4z
						 M1365.3,867.4c0.1,0.3,0.2,0.7,0.2,1c-1.2,0.6-2.4,1.2-3.5,2c-0.1-0.3-0.2-0.6-0.3-0.8
						C1362.9,868.8,1364.1,868.1,1365.3,867.4z M1359.6,860.9c0.4,0,0.8,0.1,1.1,0.1c-0.5,0.2-1,0.4-1.5,0.6
						C1359.4,861.4,1359.5,861.1,1359.6,860.9z M1358.8,862.6c1-0.6,2.2-0.9,3.2-1.5c0.2,0,0.3,0,0.5,0c-1.4,0.7-2.8,1.4-4.1,2.3
						C1358.6,863.1,1358.7,862.9,1358.8,862.6z M1357.9,864.7c1.7-1.5,3.9-2.4,5.9-3.4c0,0,0,0,0,0c0,0,0,0,0,0
						c0,0.1,0.1,0.3,0.1,0.4c0,0,0,0,0,0c-2.2,0.8-4.2,2.1-6.2,3.3C1357.8,864.9,1357.8,864.8,1357.9,864.7z M1357.2,866.1
						c2.2-1.3,4.4-2.8,6.9-3.8c0,0.1,0,0.2,0.1,0.2c-2.4,1.6-4.9,3-7.4,4.5C1356.9,866.8,1357.1,866.5,1357.2,866.1z M1356.3,868.2
						c2.7-1.6,5.4-3.1,8-4.9c0,0.2,0.1,0.4,0.1,0.6c-2.8,2-5.8,3.6-8.7,5.5C1356,869,1356.1,868.6,1356.3,868.2z M1355.3,870.4
						c3.1-2,6.3-3.8,9.3-5.9c0.1,0.2,0.1,0.4,0.2,0.6c-3.4,1.9-6.7,4-9.9,6.2C1355,871.1,1355.1,870.8,1355.3,870.4z M1354.4,872.5
						c0.1,0,0.1,0,0.2-0.1c3.4-2.3,6.8-4.5,10.4-6.5c0.1,0.3,0.1,0.5,0.2,0.8c-1.2,0.8-2.4,1.5-3.7,2.2c-0.3-0.4-1-0.4-1.4,0
						c-0.2,0.1-0.3,0.2-0.4,0.4c-0.1,0.3-0.3,0.5-0.4,0.8c-1.6,0.9-3.3,1.7-4.9,2.5C1354.3,872.6,1354.3,872.5,1354.4,872.5z
						 M1360.8,872.7c-0.2,0-0.5,0-0.7,0c0.1-0.2,0.2-0.5,0.4-0.7C1360.6,872.2,1360.7,872.4,1360.8,872.7z M1353.8,873.6
						c1.6-0.8,3.2-1.6,4.8-2.4c-0.1,0.2-0.2,0.4-0.3,0.6c-1.2,0.7-2.4,1.3-3.7,1.9c-0.3,0.2-0.7,0.3-1.1,0.5
						C1353.7,874,1353.8,873.8,1353.8,873.6z M1353.2,875.1c0.7-0.4,1.7-0.8,2.3-1.1c0.8-0.4,1.5-0.8,2.3-1.2c0,0,0,0,0,0.1
						c0,0.1-0.1,0.1-0.1,0.2c-1.6,0.9-3.1,1.9-4.8,2.6C1353,875.5,1353.1,875.3,1353.2,875.1z M1352.5,876.6
						c1.8-0.7,3.5-1.7,5.2-2.7c0,0,0,0,0,0.1c-1.8,1.1-3.6,2.1-5.4,3.1C1352.3,876.9,1352.4,876.8,1352.5,876.6z M1351.9,886.2
						C1351.9,886.2,1351.9,886.2,1351.9,886.2C1351.9,886.2,1351.9,886.2,1351.9,886.2C1351.9,886.2,1351.9,886.2,1351.9,886.2z
						 M1352.4,885.1c-0.5,0.4-1.1,0.7-1.8,1c0,0,0,0,0,0c-0.2,0-0.3,0-0.5,0c0.8-0.4,1.6-0.8,2.4-1.3
						C1352.5,884.9,1352.4,885,1352.4,885.1z M1353,883.8c-1.3,0.8-2.7,1.5-4.1,2.2c0,0-0.1,0-0.1,0.1c-0.2,0-0.4,0-0.6,0
						c0,0,0-0.1,0-0.1c0,0,0,0,0,0c1.7-1,3.4-1.9,5.1-3C1353.2,883.2,1353.1,883.5,1353,883.8z M1353.8,881.8c-1.7,1.1-3.4,2-5.1,3
						c0.2-0.4,0.4-0.9,0.6-1.3c0.1,0,0.1,0,0.2,0c1.5-0.7,3-1.4,4.5-2.2C1354,881.5,1353.9,881.6,1353.8,881.8z M1354.5,880.3
						c-1.5,0.9-3.1,1.6-4.8,2.3c0.1-0.2,0.2-0.4,0.2-0.5c0.1,0,0.1,0,0.2,0c1.5-0.6,3-1.4,4.5-2.2
						C1354.6,880,1354.5,880.2,1354.5,880.3z M1355.1,878.9c-1.5,0.9-3.1,1.7-4.7,2.4c0.1-0.2,0.2-0.4,0.3-0.7
						c1.6-0.6,3.1-1.5,4.6-2.2C1355.2,878.6,1355.2,878.7,1355.1,878.9z M1355.7,877.5c-1.6,0.7-3.1,1.5-4.6,2.1
						c0-0.1,0.1-0.2,0.1-0.3c1.5-1,3.1-1.7,4.8-2.5C1355.9,877.1,1355.8,877.3,1355.7,877.5z M1357,875.6c-0.2,0-0.3,0.1-0.5,0.2
						c-1.6,0.8-3.2,1.5-4.8,2.4c0,0,0-0.1,0-0.1c2.1-1.3,4.3-2.5,6.4-3.7c0.1,0,0.2,0.1,0.3,0.1c0.1,0,0.2,0,0.4,0
						C1358.2,875,1357.6,875.3,1357,875.6z M1358.3,875.7c0.6-0.3,1.1-0.7,1.6-1c0.6,0,1.2,0.1,1.8,0.1c-0.6,0.3-1.3,0.6-2,1
						C1359.2,875.8,1358.8,875.7,1358.3,875.7z M1361.7,875.9C1361.7,875.9,1361.6,875.9,1361.7,875.9c-0.3,0.1-0.5,0-0.8,0
						c0.7-0.4,1.4-0.7,2.1-1c1.2-0.6,2.4-1.3,3.6-2c0,0.1,0.1,0.3,0.1,0.4C1365,874.2,1363.3,874.9,1361.7,875.9z M1363.3,876
						c-0.2,0-0.3,0-0.5,0c1.3-0.7,2.7-1.3,4-2c0,0.2,0.1,0.4,0.1,0.6c-0.1,0-0.1,0-0.2,0c-1,0.6-1.9,1.1-3,1.6
						C1363.6,876.1,1363.5,876.1,1363.3,876z M1364.1,877.2c0-0.2,0.1-0.3,0-0.5c1-0.4,2-1,2.9-1.5c0,0,0,0,0.1,0
						c0.1,0.4,0.2,0.7,0.3,1.1c-1,0.5-2.1,1-3.1,1.5C1364.2,877.6,1364.1,877.4,1364.1,877.2z M1364.4,878.4c1-0.5,2.1-1,3.1-1.5
						c0,0.2,0.1,0.4,0.1,0.6c-1,0.5-2,1.2-3,1.9C1364.6,879.1,1364.5,878.8,1364.4,878.4z M1365,880.7c-0.1-0.2-0.1-0.4-0.2-0.6
						c0.9-0.7,1.9-1.4,2.9-1.9c0,0.1,0.1,0.3,0.1,0.4C1366.9,879.3,1366,880.1,1365,880.7z M1365.2,881.4c1-0.6,1.9-1.4,2.9-2.1
						c0,0.2,0.1,0.3,0.1,0.5c-0.9,0.7-1.9,1.5-2.8,2.1C1365.3,881.8,1365.2,881.6,1365.2,881.4z M1365.6,882.9
						c0-0.1-0.1-0.2-0.1-0.3c1-0.6,1.9-1.4,2.8-2.1c0,0.2,0.1,0.4,0.1,0.6C1367.5,881.6,1366.5,882.3,1365.6,882.9z M1365.8,883.6
						c0.9-0.6,1.8-1.3,2.9-1.8c0,0.2,0.1,0.3,0.1,0.5c-1,0.6-1.9,1.1-2.9,1.7C1365.8,883.8,1365.8,883.7,1365.8,883.6z M1366,884.6
						c1-0.5,1.9-1.1,2.9-1.7c0.1,0.2,0.1,0.4,0.2,0.6c-1,0.4-2,0.9-2.9,1.6C1366.1,885,1366.1,884.8,1366,884.6z M1366.4,885.8
						C1366.4,885.8,1366.4,885.8,1366.4,885.8c0.9-0.7,1.9-1.2,2.8-1.6c0,0.2,0.1,0.4,0.1,0.5c-1,0.4-2,0.9-2.9,1.5
						C1366.4,886.1,1366.4,886,1366.4,885.8z M1367.4,887.2c-0.2,0-0.5,0-0.7,0c0-0.1,0-0.1-0.1-0.2c0.9-0.6,1.8-1.1,2.8-1.5
						c0.1,0.2,0.1,0.5,0.2,0.7C1368.9,886.5,1368.2,886.8,1367.4,887.2C1367.4,887.1,1367.4,887.2,1367.4,887.2z M1368.8,887.3
						c0.3-0.1,0.7-0.3,1-0.4c0,0.2,0.1,0.3,0.1,0.5C1369.6,887.3,1369.2,887.3,1368.8,887.3z"/>
					<path class="st6" d="M1399.4,844.2c-2.6-0.8-5.7-0.8-7.8-1.3c-5.7-1.3-11.4-3.2-17.3-3.6c-6.7-0.4-14.2,2.4-20.3,4.9
						c-4.3,1.8-10.1,3-13.3,6.6c-2.1,2.4-3.1,5.5-3.8,8.5c-1.4,6.2-1.6,12.6-1.5,18.9c0,4.9-0.3,14,4.3,17.2
						c2.2,1.5,5.4,1.3,7.9,1.5c5.9,0.5,11.8,1,17.6,1.4c5,0.4,10.5,2.6,15.1-0.2c6.7-4.2,13.3-8.8,20-13.1c0.7-0.5,1.5-1,2-1.7
						c0.7-0.9,0.8-2.2,1-3.3c0.6-5.8,1-11.6,1.2-17.4c0.1-4.3,1.1-11.3-0.8-15.4C1402.8,845.6,1401.2,844.8,1399.4,844.2z
						 M1392.7,847.9c-1.3,0.8-2.6,1.6-4,2.3c-3,1.2-5.5,3.1-8.5,4.3c-0.5,0.2-1,0.4-1.5,0.5c-0.5,0.1-1.1,0-1.6-0.1
						c-4.8-0.6-9.5-1.6-14.2-2.3c-2.5-0.3-5.1-0.5-7.6-0.8c-1.5-0.2-5.8-1.5-7.1-0.9c4.6-2.3,9.4-4.2,14.2-5.7
						c4.9-1.7,9.6-3.3,14.8-3c5.8,0.4,11.6,2.3,17.2,3.7c0.5,0.1,1,0.2,1.4,0C1394.8,846.5,1393.8,847.2,1392.7,847.9z M1373,893.7
						c-4.5,0.5-9.9-0.8-14.4-1.2c-4.2-0.3-13.9,0.4-16.7-3.5c-2.3-3.3-1.2-12.9-0.9-16.9c0.3-4.6,0.4-9.7,2.1-14
						c0.8-1.9,0.8-1.8,2.8-2c2.3-0.1,4.8,0.6,7.1,0.8c7.9,0.9,15.8,1,23.7,2.2c0.4,0.1,0.8,0.1,1,0.5c0.1,0.2,0.2,0.4,0.2,0.6
						c1,6.8,0.2,13.9-0.2,20.7c-0.1,2.7-0.1,5.4-0.4,8C1376.6,893.3,1377.3,893.2,1373,893.7z M1382.7,889.2c-0.1-0.7-0.1-1.4,0-2.1
						c0.3-5.3,0.6-10.7,0.9-16c0.2-4.2,1-8.7,0.4-12.9c-0.3-2.1,12.5-6.5,14.2-7c1.9-0.5,2.1-0.8,2.7,1.3c0.6,2.3-0.2,5.8-0.3,8.2
						c-0.2,3.5-0.4,6.9-0.8,10.4c-0.2,2.1,0.4,6.7-1.6,7.9c-3,1.8-6,3.7-9,5.6C1387.4,885.9,1384.6,889,1382.7,889.2z"/>
				</g>
				<g class="st5">
					<path class="st6" d="M1479.4,777.1c-22.8,15.7-42.4,35.3-58.1,58.1c-1.2,1.8,1.4,3.9,2.6,2.1c15.5-22.6,34.9-42,57.5-57.5
						C1483.1,778.6,1481.1,775.9,1479.4,777.1z"/>
					<path class="st6" d="M1414.5,827.8c4.9-9.2,11.1-17.3,18.7-24.5c1.5-1.5-1.1-3.6-2.6-2.1c-7.7,7.4-14.1,15.9-19.1,25.3
						C1410.5,828.4,1413.5,829.7,1414.5,827.8z"/>
					<path class="st6" d="M1403.2,820.3c5.9-20.2,15.7-38.8,29.1-55c1.4-1.7-1.2-3.8-2.6-2.1c-13.6,16.5-23.6,35.3-29.6,55.8
						C1399.6,821,1402.6,822.4,1403.2,820.3z"/>
				</g>
				<path class="st7" d="M1316.9,871c-0.5,1.9-3.5,1.4-3-0.5c0.7-3.7-1.2-5-5.4-3.9c-1.9,1.5-2.4,3.1-1.4,5.1c0.7,3,2.4,4.5,5.5,4.8
					c4.5,0.5,8.3-2.7,9.2-7.1c1.8-8.5-5.7-15.6-13.9-15.4c-2,0-2.3-3-0.3-3.1c8-0.1,15.9,5.1,17.3,13.3c1.3,7.7-3.8,15.9-12.3,15.3
					c-6.7-0.5-12.5-8.7-7.1-14.5C1310.3,860,1318.7,864.1,1316.9,871z"/>
				<g>
					<path class="st7" d="M1433.1,859.8c-0.5,0.3-1,0.6-1.5,1.1c-0.9,0.7-1.8,1.5-3,1.6c-1.6,0.1-2.9-0.9-4.1-1.8
						c-1-0.8-2-1.6-3-1.5c-0.7,0.1-1.4,0.5-2.1,1c-0.9,0.6-1.9,1.4-3.2,1.3c-1.1-0.1-2-0.8-2.7-1.4c-0.1-0.1-0.3-0.2-0.4-0.3
						c-0.4-0.3-1.4-1-2.1-0.6c-0.4,0.2-0.8,0-1-0.3c-0.2-0.4-0.1-0.8,0.3-1c1-0.5,2.3-0.2,3.7,0.8c0.1,0.1,0.3,0.2,0.4,0.3
						c0.7,0.5,1.3,1,1.9,1.1c0.8,0.1,1.5-0.4,2.3-1c0.8-0.6,1.7-1.2,2.8-1.3c1.6-0.1,2.9,0.9,4.1,1.8c1,0.8,2,1.6,3,1.5
						c0.8-0.1,1.5-0.6,2.2-1.3c0.5-0.4,1.1-0.9,1.7-1.2c2-1,4.8-0.3,6.2,1.6c0.2,0.3,0.2,0.6,0,0.9c0,0-0.1,0.1-0.1,0.1
						c-0.3,0.2-0.8,0.1-1-0.2C1436.5,859.6,1434.5,859.1,1433.1,859.8z"/>
					<path class="st7" d="M1433.1,867.6c-0.5,0.3-1,0.6-1.5,1.1c-0.9,0.7-1.8,1.5-3,1.6c-1.6,0.1-2.9-0.9-4.1-1.8
						c-1-0.8-2-1.6-3-1.5c-0.7,0.1-1.4,0.5-2.1,1c-0.9,0.6-1.9,1.4-3.2,1.3c-1.1-0.1-2-0.8-2.7-1.4c-0.1-0.1-0.3-0.2-0.4-0.3
						c-0.4-0.3-1.4-1-2.1-0.6c-0.4,0.2-0.8,0-1-0.3c-0.2-0.4-0.1-0.8,0.3-1c1-0.5,2.3-0.2,3.7,0.8c0.1,0.1,0.3,0.2,0.4,0.3
						c0.7,0.5,1.3,1,1.9,1.1c0.8,0.1,1.5-0.4,2.3-1c0.8-0.6,1.7-1.2,2.8-1.3c1.6-0.1,2.9,0.9,4.1,1.8c1,0.8,2,1.6,3,1.5
						c0.8-0.1,1.5-0.6,2.2-1.3c0.5-0.4,1.1-0.9,1.7-1.2c2-1,4.8-0.3,6.2,1.6c0.2,0.3,0.2,0.6,0,0.9c0,0-0.1,0.1-0.1,0.1
						c-0.3,0.2-0.8,0.1-1-0.2C1436.5,867.5,1434.5,866.9,1433.1,867.6z"/>
				</g>
			</g>
		</g>
	</g>
</g>
</svg>
