<svg id="Layer_1" data-name="Layer 1" xmlns="http://www.w3.org/2000/svg" viewBox="0 0 238.51 516.46">
    <defs>
        <style>.cls-1,.cls-2,.cls-3,.cls-8,.cls-9{fill:none;stroke-miterlimit:10;}.cls-1,.cls-2,.cls-3{stroke:#afafaf;stroke-width:0.5px;}.cls-2{stroke-dasharray:3.01 3.01;}.cls-3{stroke-dasharray:3;}.cls-4{fill:#e5e5e5;}.cls-5{fill:#007F80;opacity:0.4;}.cls-10,.cls-6{fill:#aaa;}.cls-6,.cls-7,.cls-9{opacity:0.5;}.cls-8,.cls-9{stroke:#aaa;}</style>
    </defs>
    <line class="cls-1" x1="9.24" y1="440.77" x2="9.24" y2="439.27" />
    <line class="cls-2" x1="9.24" y1="436.26" x2="9.24" y2="95" />
    <line class="cls-1" x1="9.24" y1="93.5" x2="9.24" y2="92" />
    <line class="cls-3" x1="67.28" y1="507.23" x2="226.64" y2="507.23" />
    <circle class="cls-4" cx="9.12" cy="90.64" r="1.55" />
    <circle class="cls-4" cx="226.42" cy="506.94" r="1.55" />
    <path class="cls-5" d="M0,342.14S26.92,373,16.92,422c-10.3,50.5-1.11,86.66,27.95,85.83s130.76-17.91,193.4,8.63H0Z" />
    <g class="cls-6">
        <path class="cls-7" d="M54.13,477.9a2.35,2.35,0,0,0-.39-1.62,2.58,2.58,0,0,0-1.71-.85A238.1,238.1,0,0,0,25.37,474c-2,0-4.09-.06-6.14-.11a1,1,0,0,0-1,.75c-1.09,4.72-1.21,10.4-1.31,15.4,0,1.23-.05,2.43-.09,3.59h0a2.47,2.47,0,0,0,.88,2.26,2.28,2.28,0,0,0,1,.35l.44,0,12.71.63a1.34,1.34,0,0,0,.17.27,4.19,4.19,0,0,0-.24,2,1.64,1.64,0,0,0,.07.28,23.87,23.87,0,0,0-3.51.33c-.42.12-1.7.49-2,1.57a2,2,0,0,0,.58,2,3.58,3.58,0,0,0,1.49.9,20.53,20.53,0,0,0,4.65,1.14,28.18,28.18,0,0,0,8.06-.26,5.34,5.34,0,0,0,3.54-1.64,1.73,1.73,0,0,0,.1-2.09c-.68-1-2.8-1.5-5.3-1.76a3.19,3.19,0,0,0,.47-1,2.67,2.67,0,0,0,0-1.29l12.19.6a1,1,0,0,0,1-.91Zm-11,24.5a4.5,4.5,0,0,1-2.26.84,22.31,22.31,0,0,1-11.74-.79,2.56,2.56,0,0,1-.72-.36,1.33,1.33,0,0,1-.12-.16,3.1,3.1,0,0,1,.65-.25h0a25.17,25.17,0,0,1,4.89-.34l.12,0,.17,0a14.49,14.49,0,0,0,2.08,0C39.28,501.46,42.33,501.78,43.1,502.4ZM38,497.63a.58.58,0,0,1,.07.53,1.55,1.55,0,0,1-.78.95,3.44,3.44,0,0,1-1.17.33c-.69,0-1.38,0-2,0a.71.71,0,0,1-.38-.52,3.34,3.34,0,0,1,.29-1.49,1.07,1.07,0,0,0,.07-.39l3.78.19A1,1,0,0,0,38,497.63Zm-18.74-3.25a4.23,4.23,0,0,1-.43,0s-.07-.15-.06-.63c0-1.16.07-2.37.09-3.61A83.5,83.5,0,0,1,20,475.85l5.36.09a236.4,236.4,0,0,1,26.39,1.38l.47.1a1.19,1.19,0,0,1,0,.38l-1,18.16Z" />
        <path class="cls-7" d="M46.09,491.28a169.74,169.74,0,0,0-22.64-.69c-.65-.53-.52-3.76.37-9.61.18-1.15.3-2,.33-2.46a1,1,0,1,0-1.92-.09c0,.38-.15,1.25-.31,2.26-.78,5.17-1.32,9.58.09,11.16a1.74,1.74,0,0,0,1.14.62,1.72,1.72,0,0,0,.32,0,171.44,171.44,0,0,1,22.43.69,1,1,0,0,0,1.05-.86A1,1,0,0,0,46.09,491.28Z" />
    </g>
    <g class="cls-6">
        <path class="cls-7" d="M6,451.53a65.82,65.82,0,0,1,16.93,16.93c.35.51-.4,1.12-.75.61A64.87,64.87,0,0,0,5.44,452.32C4.92,452,5.49,451.18,6,451.53Z" />
        <path class="cls-7" d="M24.9,466.3a28.5,28.5,0,0,0-5.44-7.15c-.45-.43.31-1,.75-.61a29.49,29.49,0,0,1,5.58,7.37C26.08,466.46,25.19,466.85,24.9,466.3Z" />
        <path class="cls-7" d="M28.18,464.12a44.83,44.83,0,0,0-8.47-16,.48.48,0,0,1,.75-.61,45.55,45.55,0,0,1,8.61,16.25C29.24,464.32,28.36,464.72,28.18,464.12Z" />
    </g>
    <g class="cls-6">
        <path class="cls-7" d="M37.1,464.33c-.76.51-.88,2,.16,2.25a1.11,1.11,0,0,0,1.23-.73c.32-.77,0-1.85-1-1.68A1.09,1.09,0,0,0,37.1,464.33Z" />
        <path class="cls-7" d="M33.29,469.4c-.76.51-.88,2,.16,2.25a1.11,1.11,0,0,0,1.23-.73c.32-.77,0-1.85-1-1.68A1.29,1.29,0,0,0,33.29,469.4Z" />
        <path class="cls-7" d="M38,469.48c-.76.51-.88,2,.16,2.24a1.11,1.11,0,0,0,1.23-.73c.32-.77,0-1.84-1-1.67A1,1,0,0,0,38,469.48Z" />
        <path class="cls-7" d="M38,470.7a15.29,15.29,0,0,0-1-5.42c-.13-.36.53-.48.67-.13a15.94,15.94,0,0,1,1,5.58C38.65,471.11,38,471.08,38,470.7Z" />
        <path class="cls-7" d="M33.73,470.15a14,14,0,0,0,5.2.4c.36,0,.31.63,0,.67a14.18,14.18,0,0,1-5.35-.43C33.18,470.69,33.38,470.05,33.73,470.15Z" />
    </g>
    <g class="cls-6">
        <path class="cls-7" d="M15,471.11c-.48.32-.55,1.24.09,1.41a.7.7,0,0,0,.77-.46c.2-.48,0-1.16-.61-1.05A.63.63,0,0,0,15,471.11Z" />
        <path class="cls-7" d="M12.6,474.28c-.48.32-.55,1.24.1,1.41a.7.7,0,0,0,.77-.46c.2-.48,0-1.15-.62-1.05A.77.77,0,0,0,12.6,474.28Z" />
        <path class="cls-7" d="M15.52,474.33c-.48.32-.55,1.23.1,1.4a.69.69,0,0,0,.77-.45c.2-.49,0-1.16-.62-1A.55.55,0,0,0,15.52,474.33Z" />
        <path class="cls-7" d="M15.53,475.1a9.64,9.64,0,0,0-.61-3.4c-.09-.22.33-.3.41-.08a10,10,0,0,1,.63,3.49C16,475.35,15.53,475.33,15.53,475.1Z" />
        <path class="cls-7" d="M12.88,474.75a8.66,8.66,0,0,0,3.25.25c.23,0,.19.4,0,.42a9,9,0,0,1-3.35-.27C12.54,475.09,12.66,474.69,12.88,474.75Z" />
    </g>
    <g class="cls-6">
        <path class="cls-7" d="M47.14,501.83c.2.3.78.35.89-.06a.44.44,0,0,0-.29-.49c-.3-.13-.73,0-.67.39A.46.46,0,0,0,47.14,501.83Z" />
        <path class="cls-7" d="M49.15,503.35c.2.31.78.36.89-.06a.44.44,0,0,0-.29-.49c-.3-.12-.73,0-.67.39A.39.39,0,0,0,49.15,503.35Z" />
        <path class="cls-7" d="M49.18,501.5c.21.3.79.35.9-.06a.44.44,0,0,0-.29-.49c-.31-.13-.73,0-.67.39A.44.44,0,0,0,49.18,501.5Z" />
        <path class="cls-7" d="M49.67,501.49a6.38,6.38,0,0,0-2.16.38c-.14.06-.19-.21,0-.26a6.27,6.27,0,0,1,2.23-.39C49.84,501.22,49.82,501.49,49.67,501.49Z" />
        <path class="cls-7" d="M49.44,503.18a5.35,5.35,0,0,0,.17-2.07c0-.14.25-.12.27,0a5.66,5.66,0,0,1-.18,2.13C49.66,503.4,49.4,503.32,49.44,503.18Z" />
    </g>
    <g class="cls-6">
        <path class="cls-7" d="M55.17,499.05c-.66.17-.48,1.22.19,1.05l7.92-2c.67-.17.49-1.22-.18-1.05Z" />
        <path class="cls-7" d="M63.15,501.8a.53.53,0,0,0,.1-1.06,24.44,24.44,0,0,0-8.77.54c-.67.17-.49,1.22.18,1.06A23.8,23.8,0,0,1,63.15,501.8Z" />
        <path class="cls-7" d="M56,504.62l5,.78c.68.11.78-1,.1-1.06l-5-.79C55.41,503.45,55.31,504.51,56,504.62Z" />
    </g>
    <path class="cls-8" d="M58.69,486.84c.11.45.84.33.72-.13-.16-.88.27-1.19,1.29-.94A.89.89,0,0,1,61,487a1.36,1.36,0,0,1-1.3,1.14,2,2,0,0,1-2.2-1.68,3.16,3.16,0,0,1,3.3-3.67c.46,0,.54-.73.07-.73a4,4,0,0,0-4.12,3.17,3,3,0,0,0,2.93,3.65c1.61-.11,3-2.08,1.69-3.44A1.58,1.58,0,0,0,58.69,486.84Z" />
    <path class="cls-8" d="M9.09,499.52a3.88,3.88,0,0,1,.56.4,1.92,1.92,0,0,0,1.15.6,2.29,2.29,0,0,0,1.55-.69,1.86,1.86,0,0,1,1.15-.58,1.8,1.8,0,0,1,.79.4,1.82,1.82,0,0,0,1.23.48,2.06,2.06,0,0,0,1.05-.53l.14-.11c.16-.12.55-.38.81-.24a.28.28,0,0,0,.37-.12.26.26,0,0,0-.1-.37,1.33,1.33,0,0,0-1.4.3l-.15.12a1.65,1.65,0,0,1-.75.41,1.44,1.44,0,0,1-.86-.39,2.17,2.17,0,0,0-1.06-.49,2.29,2.29,0,0,0-1.56.69,1.86,1.86,0,0,1-1.15.58,1.64,1.64,0,0,1-.85-.48,3.37,3.37,0,0,0-.65-.47,1.94,1.94,0,0,0-2.35.61A.26.26,0,0,0,7,500l.05,0a.28.28,0,0,0,.38-.08A1.39,1.39,0,0,1,9.09,499.52Z" />
    <path class="cls-8" d="M9.09,502.51a3.88,3.88,0,0,1,.56.4,2,2,0,0,0,1.15.61,2.35,2.35,0,0,0,1.55-.7,1.8,1.8,0,0,1,1.15-.57,1.67,1.67,0,0,1,.79.39,1.82,1.82,0,0,0,1.23.48,2,2,0,0,0,1.05-.53l.14-.11c.16-.12.55-.38.81-.24a.28.28,0,0,0,.37-.12.26.26,0,0,0-.1-.37,1.33,1.33,0,0,0-1.4.3l-.15.12a1.56,1.56,0,0,1-.75.41,1.37,1.37,0,0,1-.86-.38,2.09,2.09,0,0,0-1.06-.5,2.29,2.29,0,0,0-1.56.69,1.81,1.81,0,0,1-1.15.58,1.64,1.64,0,0,1-.85-.48,3.37,3.37,0,0,0-.65-.47,1.94,1.94,0,0,0-2.35.61A.26.26,0,0,0,7,503s0,0,.05.05a.28.28,0,0,0,.38-.07A1.38,1.38,0,0,1,9.09,502.51Z" />
</svg>