<?xml version="1.0" encoding="utf-8"?>
<!-- Generator: Adobe Illustrator 25.4.1, SVG Export Plug-In . SVG Version: 6.00 Build 0)  -->
<svg version="1.1" id="Layer_1" xmlns="http://www.w3.org/2000/svg" xmlns:xlink="http://www.w3.org/1999/xlink" x="0px" y="0px"
	 viewBox="0 0 1500 1000" style="enable-background:new 0 0 1500 1000;" xml:space="preserve">
<style type="text/css">
	.st0{fill:none;stroke:#AEAEAE;stroke-miterlimit:10;}
	.st1{fill:none;stroke:#AEAEAE;stroke-miterlimit:10;stroke-dasharray:8.9167,8.9167;}
	.st2{fill:none;stroke:#AEAEAE;stroke-miterlimit:10;stroke-dasharray:9;}
	.st3{fill:#E4E4E4;}
	.st4{opacity:0.4;fill:#B2C78B;}
	.st5{opacity:0.5;}
	.st6{fill:#A9A9A9;}
	.st7{opacity:0.5;fill:#A9A9A9;}
	.st8{fill:none;stroke:#AEAEAE;stroke-width:0.5;stroke-miterlimit:10;}
	.st9{fill:none;stroke:#AEAEAE;stroke-width:0.5;stroke-miterlimit:10;stroke-dasharray:3.0067,3.0067;}
	.st10{fill:none;stroke:#AEAEAE;stroke-width:0.5;stroke-miterlimit:10;stroke-dasharray:3;}
	.st11{opacity:0.4;fill:#B1C787;}
</style>
<g>
	<g>
		<g>
			<g>
				<g>
					<line class="st0" x1="33.3" y1="737.7" x2="33.3" y2="733.2"/>
					<line class="st1" x1="33.3" y1="724.3" x2="33.3" y2="282.9"/>
					<line class="st0" x1="33.3" y1="278.5" x2="33.3" y2="274"/>
				</g>
			</g>
			<line class="st2" x1="232.4" y1="965.8" x2="1303.6" y2="965.8"/>
			<circle class="st3" cx="32.9" cy="263.1" r="5.3"/>
			<circle class="st3" cx="1312.2" cy="964.7" r="5.3"/>
			<path class="st4" d="M1.6,399.3c0,0,92.4,105.9,58.1,274c-35.4,173.3-3.8,297.3,95.9,294.5s448.7-61.5,663.6,29.6H1.6V399.3z"/>
			<g class="st5">
				<g>
					<g>
						<g>
							<path class="st6" d="M117,942.2c-6.9-14.4-17.8-26.5-24.9-40.7c-3.8-7.5-3.9-14.1-4.5-22.4c-0.8-11.7-1.7-23.4-1.2-35.1
								c2.6-0.3,4.9-1.1,6.4-2.5c3.5-3.1,3.1-8.8,0-12c-4.2-4.4-11.6-3.6-17.1-3.8c-7.5-0.3-21.4-2.8-24.9,6.3
								c-2.7,7,3.3,9.9,9.7,11c-0.9,8.6-1.8,17.2-2.8,25.8c-1.1,10.6-2.2,21.4-7.6,30.9c-3.3,5.7-7.7,10.6-10.9,16.4
								c-2.9,5.4-5.7,10.9-8.6,16.3c-4.4,8.4-11.5,20.7-7.9,30.6c3.6,9.7,15.5,12.8,24.6,13.5c14,1.1,29.1,1.7,43.1,0.9
								c8.1-0.5,17.5-1.7,24-7C123.7,963,121.4,951.5,117,942.2z M60.2,838.3c-1.5-0.3-2.7-1.8-2.9-3.3c0-0.1,0-0.2,0-0.3
								c0-0.9,0.3-1.8,0.8-2.5c0.7-0.8,1.7-1.3,2.7-1.5c2.5-0.6,5.2-0.5,7.7-0.3c2.3,0.2,4.6,0.5,6.9,0.6c2.2,0.1,4.6,0.2,6.8-0.1
								c2.1-0.2,4.4,0.2,6.2,1.4c0.4,0.3,0.8,0.6,1.1,1c0.2,0.3,0.2,0.7,0.3,1.1c0.1,1.2-0.1,2.6-1.1,3.4c-0.8,0.6-1.8,0.8-2.8,0.9
								c-2.4,0.2-4.7,0-7.1,0c-2.5,0-5,0-7.5-0.1C67.5,838.7,63.8,839,60.2,838.3z M58.8,893c5.1-15.5,5.4-33.1,6.9-49.4
								c1.9,0.1,3.7,0.1,5,0.1c2.7,0,6.7,0.5,10.6,0.5c-0.3,7-0.1,13.9,0.3,20.8c0.5,8.9,0.2,18.7,1.7,27.5c0.5,2.8,1.4,5.5,2.6,8
								c-4.8-1.3-10.5-1.3-13.1-1.4c-4-0.1-11.2-0.5-17,1C56.9,897.9,58,895.6,58.8,893z M87.8,907.4c-0.1,1-8,2.7-9.4,3
								c-3,0.5-6,0.5-9,0.4c-2.5-0.1-15-0.5-17.2-3.1C56.5,902,88.2,903.9,87.8,907.4z M115.7,959.5c-3.8,18.5-38.9,12.3-51,12.2
								c-10.7-0.1-32.2,2.4-36.9-10.6c-3.6-10,6.6-24.7,11.1-33c3-5.6,5.8-11.2,9.4-16.5c0.1-0.2,0.3-0.4,0.4-0.6
								c4.5,4.3,15.6,4.6,20.2,4.8c4.4,0.2,18.2-0.2,22.9-5c0.4,0.6,0.8,1.3,1.3,1.9c7.1,10.5,14.6,21.3,19.9,32.9
								C114.8,949.8,116.7,954.8,115.7,959.5z"/>
							<path class="st6" d="M78.8,890.4c1.3-13,1.6-26,1.1-39c-0.1-3.3-5.2-3.8-5.1-0.5c0.5,13,0.2,26-1.1,39
								C73.4,893.2,78.5,893.7,78.8,890.4z"/>
							<path class="st6" d="M44.8,953.2c1.7-0.8,2.7-2.7,2.4-4.6c-0.2-1.5-1.3-2.8-2.7-3.4c-1.4-0.6-3.4,0.3-4.3,1.3
								c-1.5,1.6-1.8,4-0.4,5.7C41.1,953.7,43.2,954.1,44.8,953.2z M42.4,949.4c0.2-0.5,1.1-0.7,1.5-0.3c0.1,0.2,0.2,0.4,0.1,0.6
								c0,0.1-0.1,0.2-0.2,0.4c-0.1,0.1-0.3,0.3-0.5,0.3C42.7,950.5,42.1,950,42.4,949.4z"/>
							<path class="st6" d="M62.7,945.3c-0.7,0-1.4,0.1-2,0.3c-0.7,0.2-1.3,0.5-1.9,1c-0.3,0.2-0.6,0.5-0.9,0.8
								c-2,2.3-0.9,5.9,1.1,7.8c2.1,2,5.6,2.8,8.2,1.3c2.7-1.5,2.7-5.3,1.4-7.7C67.4,946.6,65.2,945.3,62.7,945.3z M65.3,952.7
								c-0.2,0.3-0.4,0.4-0.6,0.6c-1,0.4-2.4-0.2-3-1c-0.7-0.9-0.9-2.2,0.2-2.9c0.7-0.4,1.7-0.4,2.4,0.1c0.7,0.5,1.1,1.3,1.2,2.1
								C65.5,952,65.5,952.4,65.3,952.7z"/>
							<path class="st6" d="M86.3,936.4c-2.8-0.4-5,1.4-6.4,3.7c-0.2,0.4-0.4,0.7-0.6,1.1c-0.6,1.6-0.2,3.3,0.2,4.9
								c0.7,2.4,3.2,3.9,5.7,3.7c3.3-0.3,6-2.9,6.3-6.1C91.9,940.4,89.7,936.9,86.3,936.4z M86.6,945.5c-0.5,0.5-1.2,0.8-1.8,0.9
								c-0.5,0.1-1.1,0-1.5-0.3c-0.6-0.4-0.9-1-0.9-1.7c0-0.6,0.3-1.1,0.5-1.6c0.5-1.1,1.4-2.5,2.8-2.4c1.2,0.2,2.1,1.2,2.2,2.4
								C87.8,943.7,87.3,944.7,86.6,945.5z"/>
							<path class="st6" d="M65.5,929.8c1.7-6.9-9.6-12.4-12-4.7c-0.5,1.7-0.7,4.3,0.4,5.9c1,1.5,2.8,2.4,4.5,2.8
								C61.4,934.4,64.7,932.9,65.5,929.8z M56.9,928.2c-0.2-0.7,0-1.5,0.6-2.5c1.4-2.2,4.2,1.1,4.3,2.7
								C61.9,930.5,57.5,930.5,56.9,928.2z"/>
							<path class="st6" d="M78.2,954.7c-0.8,0.7-1.5,1.5-2,2.5c-0.7,1.5-0.9,3.3-0.3,4.9c0.5,1.4,1.7,2.5,3.2,3
								c2.7,0.9,6.1,0,7.8-2.4c1.7-2.5,1.4-6-0.9-8C83.6,952.5,80.4,953,78.2,954.7z M83.8,960.1c-0.4,1-1.6,1.5-2.6,1.5
								c-0.8,0-1.5-0.3-1.7-1.1c-0.2-0.8,0-1.7,0.5-2.4C81.5,955.9,84.9,957.5,83.8,960.1z"/>
							<path class="st6" d="M88.7,922.1c-1.2,0.1-2.2,0.7-3,1.5c-0.6,0.6-1.2,1.4-1.3,2.3c-0.1,1.2,0.3,2.4,1.2,3.2
								c1.4,1.2,3.5,1.2,5,0.3c1.5-0.9,2.6-2.6,2.2-4.4C92.4,922.9,90.5,921.9,88.7,922.1z M89.3,926.5c-0.1,0.1-0.1,0.2-0.2,0.3
								c-0.3,0.3-0.6,0.4-1,0.3c-0.1,0-0.2-0.1-0.2-0.1c-0.3-0.2-0.4-0.5-0.3-0.9c0-0.2,0.2-0.4,0.4-0.5c0,0,0,0,0.1,0
								C88.6,925.2,89.7,925.7,89.3,926.5z"/>
							<path class="st6" d="M102.7,949.1c-0.2,0-0.4,0-0.5-0.1c-1.6-0.1-3.2,0.3-4.6,1.2c-1.3,0.8-2.3,1.9-2.7,3.4
								c-0.2,1.2-0.1,2.4,0.4,3.5c1.2,3.1,4.5,5.4,7.9,4.4c2.9-0.9,4.6-3.9,4.4-6.9C107.4,951.8,105.6,949.5,102.7,949.1z
								 M103,957.2c-0.8,0.9-2,1-2.9,0.3c-1-0.7-1.5-1.9-1.1-3.1c0.3-0.8,0.9-1.4,1.7-1.7c0.3-0.1,0.6-0.2,1-0.1
								c0.5,0.1,1,0.4,1.3,0.9C104,954.6,104.1,956.1,103,957.2z"/>
							<path class="st6" d="M49,955.9c-0.9,0-1.7-0.3-2.7,0c-0.4,0.1-0.7,0.2-1,0.3c-0.5,0.2-0.9,0.5-1.3,0.8
								c-1.4,1.2-2.2,3.1-2.1,4.9c0.1,1.6,1.2,3.4,2.6,4.3c2.3,1.5,5.6,1.3,7.7-0.5c2.2-1.8,2.5-5.1,1-7.4
								C52.1,956.8,50.7,956,49,955.9z M49.8,962.6c-0.5,0.6-1.6,0.9-2.4,0.7c-1-0.2-1.8-1-1.8-2.1c0-0.6,0.3-1.1,0.6-1.5
								c0.1-0.2,0.3-0.3,0.5-0.4c0.3-0.1,0.6-0.1,1-0.1c0.3,0,0.7,0,1,0.1c0.2,0.1,0.4,0.3,0.6,0.4
								C50.2,960.5,50.6,961.7,49.8,962.6z"/>
							<path class="st6" d="M42.4,939c2.3,1.4,5.1,0.5,6.7-1.5c1.5-1.9,1.7-4.9,0.1-6.9c-0.9-1.1-2.3-1.8-3.7-1.7
								c-1.6,0-3.3,1.3-4.2,2.5c-1,1.3-1.5,3-1.1,4.6C40.5,937.2,41.3,938.4,42.4,939z M43.7,933.8c0.2-0.6,0.9-0.9,1.5-1
								c0.5-0.1,1,0,1.2,0.5c0.3,0.7,0.1,1.4-0.4,2c-0.4,0.4-1.1,0.6-1.7,0.4C43.5,935.4,43.4,934.5,43.7,933.8z"/>
							<path class="st6" d="M76.2,932.6c-0.6-1.7-2.2-3.2-4-3.6c-1.9-0.4-3.8,0.7-5,2.1c-0.5,0.6-0.9,1.4-1.3,2.1
								c-1,1.8-0.9,4.1,0.1,5.8c1.6,2.7,5,3.4,7.6,1.9C76.8,939.3,77.4,935.7,76.2,932.6z M71.5,937.8c-2.1,0.7-2.4-1.7-1.9-3.2
								c0.1-0.4,0.3-0.7,0.5-1c0.1-0.1,0.1-0.3,0.2-0.4c1.2-1.5,2.4,0.7,2.6,1.7C73.1,936.2,72.8,937.3,71.5,937.8z"/>
							<path class="st6" d="M97.7,945.2c1.8,1,4,1.1,5.6-0.4c2-1.9,2.3-5.3,0.7-7.6c-1-1.5-2.8-2.3-4.5-2.3
								c-2.1,0.1-3.5,1.3-4.5,3.1c-0.3,0.6-0.5,1.2-0.6,1.8C94.2,941.9,95.9,944.2,97.7,945.2z M97.8,940.2c0.2-1.2,1.8-1.9,2.7-1
								c0.6,0.5,0.8,1.5,0.5,2.2c-0.1,0.2-0.2,0.4-0.4,0.5c-0.5,0.3-1.1,0.2-1.7,0c-0.2-0.1-0.4-0.1-0.5-0.2
								C97.9,941.4,97.7,940.8,97.8,940.2z"/>
							<path class="st6" d="M30,953.1c-0.3,0.2-0.5,0.4-0.7,0.7c-2.3,2.8-0.6,7.2,2.8,8.1c2.4,0.7,4.8-0.7,5.8-3
								c0.3-0.6,0.4-1.2,0.4-1.9C38.4,952.9,33.1,950.7,30,953.1z M34.4,957.2c-0.4,1.3-2.5,1-2.2-0.5
								C32.4,955.3,34.9,955.9,34.4,957.2z"/>
						</g>
					</g>
					<g>
						<path class="st6" d="M152.7,956.5c-0.7,6.3-8,7-11.1,2.1c-2.1-3.4-1.9-7.9-1.5-11.7c0.3-2.7,0.8-5.5,2-8.1
							c0.6-1.3,1.3-2.6,2.2-3.7c0.9-1,1.9-1.8,3-2.5c1.4-0.8,2.5-1,4.1-0.7c0.3,0.1,0.6,0.1,0.9,0.3c0.6,0.3,0.9,0.9,1.1,1.5
							c0.3,1.1-0.4,2.5,0.6,3.3c0.7,0.5,1.6,0.4,1.9-0.5c1.4-5.1-3.4-8.5-8.3-6.8c-6.4,2.2-9.1,9.4-10,15.6
							c-0.9,6.2-1,15.3,5.7,18.6c5.2,2.5,11.2-1.5,11.8-7C155.4,955.2,152.9,954.8,152.7,956.5z"/>
						<path class="st6" d="M161.5,959.6c0-0.2,0-0.4,0.1-0.8c0.2-0.9,0.9-1.4,0.5-2.4c-0.3-0.7-1-1.2-1.8-1.3
							c-1-0.1-3.6,0.4-3.7,1.8c0,1.7,1.8,0.8,2.2,1.4c0.2,0.2,0,0.5-0.2,0.7c-0.6,0.7-0.9,2,0.2,2.3c1.3,0.4,1.4,1.9,0.5,2.8
							c-0.9,1-2.4,1.2-3.7,1.1c-1.7,0-2,2.5-0.3,2.6c2.6,0.1,5.7-0.6,6.8-3.2c0.6-1.3,0.4-2.8-0.3-4.1
							C161.8,960,161.6,959.8,161.5,959.6z"/>
						<path class="st6" d="M179.2,932c-0.2,4.6-0.4,9.2-0.5,13.8c-3.2,0.6-6.4,0.6-9.6,0.1c0.2-4.5,0.3-9,0.5-13.5
							c0.1-1.7-2.5-2-2.6-0.3c-0.4,10.3-0.8,20.5-1.2,30.8c-0.1,1.7,2.5,2,2.6,0.3c0.2-4.9,0.4-9.8,0.6-14.7c3.2,0.5,6.4,0.5,9.6,0
							c-0.2,4.6-0.4,9.3-0.5,13.9c-0.1,1.7,2.5,2,2.6,0.3c0.4-10.1,0.8-20.2,1.2-30.4C181.8,930.7,179.3,930.3,179.2,932z"/>
						<path class="st6" d="M187.2,960c-0.1-0.1-0.3-0.5-0.6-1c0,0,0.1-0.1,0.1-0.1c2.8-2.7-1.3-6.7-3.6-3.7
							c-1.2,1.5-0.2,2.9,0.7,4.2c-2,2.3-1.7,7.1,2.1,6.9c1.8-0.1,2.7-1.8,2.4-3.4C188.2,961.9,187.7,960.9,187.2,960z M184.6,956.3
							c0.1-0.2,0.3-0.3,0.5-0.4c0.1,0,0.1,0,0.2,0c0.4,0.1,0.5,0.5,0.5,0.9c-0.1,0.3-0.3,0.6-0.5,0.8c0,0-0.1,0.1-0.1,0.1
							c-0.1,0-0.1,0-0.2,0c-0.1,0-0.1-0.1-0.2-0.1c-0.1-0.1-0.2-0.3-0.3-0.4C184.4,956.9,184.4,956.6,184.6,956.3z M186.2,963.3
							c-0.4,0.7-1.1,0.5-1.5-0.1c-0.5-0.7,0-1.6,0.4-2.3c0-0.1,0.1-0.1,0.1-0.2c0.3,0.3,0.7,0.6,0.9,1
							C186.3,962.3,186.4,962.9,186.2,963.3z"/>
						<path class="st6" d="M209.9,938.9c-0.1-0.6-0.3-1.2-0.4-1.8c-2-6.2-8.9-7.9-12.7-2.1c-3.8,5.7-4.3,13.1-4.3,19.7
							c0,5.7,3.6,14.9,10.7,9.4C209.7,959,211.3,946.4,209.9,938.9z M207.4,948.2c-0.3,2.1-0.8,4.2-1.5,6.2
							c-0.6,1.6-1.2,3.5-2.1,4.9c-0.2,0.4-0.5,0.8-0.8,1.2c-0.9,1.2-2.2,2.4-3.7,2.6c-0.4,0.1-0.9,0.1-1.3,0
							c-0.7-0.2-1.2-0.8-1.6-1.4c-2.8-4.2-1.5-10.6-0.6-15.2c0.6-3.4,1.3-7.6,3.2-10.6c1.6-2,4.2-3.9,6.8-0.8c0.8,1,1.2,2.7,1.4,3.9
							C207.9,942.2,207.8,945.3,207.4,948.2z"/>
						<path class="st6" d="M216.2,955.4c-1-1-2.7-1.1-3.7,0.1c-0.4,0.6-0.4,1.6,0.4,1.7c0.1,0,0.1,0,0.2,0c0.1,0,0.1,0,0.2,0
							c0.1,0,0.2,0,0.3,0c0.1,0,0.2,0,0.3-0.1c0.2,0,0.4,0,0.6,0.1c1,0.8-1.6,1.6-1.9,2c-0.4,0.5-0.3,1.2,0.2,1.6
							c0.4,0.3,1.3,0.3,1.3,1c0,0.5-0.2,1-0.6,1.3c-0.8,0.7-2.1,0.9-3,0.5c-1.5-0.7-2.5,1.7-1,2.4c2.1,0.9,4.8,0.5,6.2-1.3
							c1.2-1.5,1.1-3.3,0.2-4.8C217.1,958.6,217.7,956.9,216.2,955.4z"/>
					</g>
					<g>
						<path class="st6" d="M148.6,803.7c-7.8,29.6-22.6,56.7-43.2,79.2c-1.6,1.8,1.3,4.1,2.9,2.3c21.1-23.1,36.1-50.8,44-81
							C152.9,801.9,149.2,801.4,148.6,803.7z"/>
						<path class="st6" d="M192.8,869c-16.4,19-37.2,33.3-60.8,42c-2.2,0.8-0.9,4.3,1.4,3.5c24.1-8.9,45.5-23.7,62.3-43.1
							C197.2,869.5,194.3,867.2,192.8,869z"/>
						<path class="st6" d="M156,859.3c1.2-2.1-2.2-3.6-3.4-1.5c-7.5,13.2-17.2,24.9-28.9,34.6c-1.8,1.5,0.4,4.5,2.2,3
							C138.1,885.2,148.2,873.1,156,859.3z"/>
					</g>
					<g>
						<path class="st6" d="M58.9,781.3c-3,2.8-1.8,7.7,1.9,9.2c4.1,1.6,8.7-0.7,10.4-4.5c1.5-3.4,0.4-7.7-3.5-8.6
							c-3-0.7-6.7,1-6.9,4.3c-0.1,1.4,2.1,1.6,2.2,0.2c0.1-2,2.3-2.8,4.1-2.4c2.5,0.5,3.1,3.1,2.3,5.2c-0.8,2.3-3,3.9-5.4,4.1
							c-2.9,0.2-6.5-3.2-3.6-5.8C61.4,782,59.9,780.4,58.9,781.3L58.9,781.3z"/>
					</g>
					<g>
						<path class="st6" d="M36.4,764.5c-1.3,2.1-0.8,4.9,1.1,6.5c2,1.8,5,1.2,6.6-0.8c1.6-2,1.6-4.8-0.4-6.5c-1.9-1.5-4.7-1.6-6.6,0
							c-1.1,0.9,0.4,2.6,1.4,1.7c2.2-1.9,5.9,0.6,4,3.3c-2,2.9-5.9-0.2-4.3-2.9C38.9,764.5,37.1,763.3,36.4,764.5L36.4,764.5z"/>
					</g>
					<path class="st6" d="M63.5,800.4c-6.2,5.1-3.7,15.5,4.2,17.8c4.8,1.4,9.7-1.5,11.7-5.8c0-0.1,0.1-0.2,0.1-0.3
						c4-9.1-7-17.5-15-12.4C64.1,799.9,63.8,800.1,63.5,800.4z M75.8,810.2c-3.3,8.6-15.9,1.1-10.9-5.6c0.2-0.3,0.4-0.6,0.6-0.9
						c0.2-0.1,0.3-0.2,0.5-0.3C70.7,799.8,78.1,804.3,75.8,810.2z"/>
					<g>
						<path class="st6" d="M40.8,794.2c-2.5,4.5,0.7,12.1,6.6,10.8c3-0.7,4.5-4,4.2-6.8c-0.4-4.7-4.6-9.3-9.3-5.8
							C41.7,792.9,41.2,793.5,40.8,794.2z"/>
					</g>
				</g>
			</g>
		</g>
	</g>
</g>
</svg>
