<svg id="Layer_1" data-name="Layer 1" xmlns="http://www.w3.org/2000/svg" viewBox="0 0 238.51 516.46">
    <defs>
        <style>.cls-1,.cls-2,.cls-3,.cls-8,.cls-9{fill:none;stroke-miterlimit:10;}.cls-1,.cls-2,.cls-3{stroke:#afafaf;stroke-width:0.5px;}.cls-2{stroke-dasharray:3.01 3.01;}.cls-3{stroke-dasharray:3;}.cls-4{fill:#e5e5e5;}.cls-5{fill:#007F80;opacity:0.4;}.cls-10,.cls-6{fill:#aaa;}.cls-6,.cls-7,.cls-9{opacity:0.5;}.cls-8,.cls-9{stroke:#aaa;}</style>
    </defs>
    <line class="cls-1" x1="9.24" y1="440.77" x2="9.24" y2="439.27" />
    <line class="cls-2" x1="9.24" y1="436.26" x2="9.24" y2="95" />
    <line class="cls-1" x1="9.24" y1="93.5" x2="9.24" y2="92" />
    <line class="cls-3" x1="67.28" y1="507.23" x2="226.64" y2="507.23" />
    <circle class="cls-4" cx="9.12" cy="90.64" r="1.55" />
    <circle class="cls-4" cx="226.42" cy="506.94" r="1.55" />
    <path class="cls-5" d="M0,342.14S26.92,373,16.92,422c-10.3,50.5-1.11,86.66,27.95,85.83s130.76-17.91,193.4,8.63H0Z" />
    <path class="cls-6" d="M41.21,507.72c.07.24.45.17.38-.07-.08-.46.15-.63.69-.49a.46.46,0,0,1,.18.63.71.71,0,0,1-.69.6,1.07,1.07,0,0,1-1.16-.88,1.67,1.67,0,0,1,1.74-1.94c.25,0,.28-.38,0-.39a2.14,2.14,0,0,0-2.18,1.68,1.57,1.57,0,0,0,1.55,1.93c.85-.06,1.58-1.1.89-1.82A.83.83,0,0,0,41.21,507.72Z" />
    <g class="cls-7">
        <path class="cls-8" d="M13.63,467.58a2,2,0,0,1-.5-1.76,2.17,2.17,0,0,1,2.46-1.77l9.23,1.44a2.08,2.08,0,0,1,1.73,2.42,2.17,2.17,0,0,1-2.46,1.77l-9.24-1.43A2,2,0,0,1,13.63,467.58Z" />
        <path class="cls-8" d="M9.93,473.72a2.11,2.11,0,0,1-.53-1.49,2.17,2.17,0,0,1,2.22-2.07A55.35,55.35,0,0,1,24,471.85a2.07,2.07,0,0,1,1.49,2.57A2.17,2.17,0,0,1,22.87,476a51.17,51.17,0,0,0-11.43-1.56A2.08,2.08,0,0,1,9.93,473.72Z" />
    </g>
    <path class="cls-9" d="M44,485l-3.19-.54a14.28,14.28,0,0,1,.62-2.5,1.58,1.58,0,1,0-3-1.06,16.08,16.08,0,0,0-.75,3l-2.45-.41a1.58,1.58,0,0,0-.53,3.12l2.8.47a17.55,17.55,0,0,0,.3,2.6,1.69,1.69,0,0,0,.53.9A1.59,1.59,0,0,0,41,489.06a14.28,14.28,0,0,1-.21-1.44l2.75.46A1.58,1.58,0,0,0,44,485Z" />
    <g class="cls-7">
        <path class="cls-8" d="M35.9,475.44A1.58,1.58,0,0,1,37.46,473a41.14,41.14,0,0,1,9,2.53,1.58,1.58,0,1,1-1.2,2.93A38.19,38.19,0,0,0,37,476.11,1.57,1.57,0,0,1,35.9,475.44Z" />
    </g>
    <g class="cls-7">
        <path class="cls-8" d="M11.38,492.48a7.36,7.36,0,0,1-2.5-2.37,5.75,5.75,0,0,1-1-3.18,4.93,4.93,0,0,1,.9-2.89,6,6,0,0,1,2.45-2,7.85,7.85,0,0,1,3.41-.74,7.18,7.18,0,0,1,3.16.67,5.26,5.26,0,0,1,2.21,1.93,5.33,5.33,0,0,1,.8,2.92A6.53,6.53,0,0,1,20,490a6.76,6.76,0,0,1-2.29,2.43,5.65,5.65,0,0,1-3.1.92A6.46,6.46,0,0,1,11.38,492.48Zm4.36-4.15a1.8,1.8,0,0,0,.54-1.3,1.77,1.77,0,0,0-.57-1.31,1.9,1.9,0,0,0-1.36-.55,1.8,1.8,0,0,0-1.29.5,1.63,1.63,0,0,0-.54,1.22,2.13,2.13,0,0,0,2,2A1.68,1.68,0,0,0,15.74,488.33Zm-.15,14.95,9.24-21.64,6-.26-8.74,25.23ZM29,505.51a6,6,0,0,1-2.32-2.12,5.59,5.59,0,0,1-.86-3.05,6.41,6.41,0,0,1,.8-3.12,6.31,6.31,0,0,1,2.27-2.4,5.32,5.32,0,0,1,2.68-.81A6.25,6.25,0,0,1,35,495a7.38,7.38,0,0,1,2.52,2.48,6.07,6.07,0,0,1,.94,3.27,5.08,5.08,0,0,1-.73,2.6,5.94,5.94,0,0,1-2.43,2.22,7,7,0,0,1-3.2.75A6.49,6.49,0,0,1,29,505.51Zm4.16-3.73a1.72,1.72,0,0,0,.62-1.34,1.83,1.83,0,0,0-1.89-1.89,1.79,1.79,0,0,0-1.37.55,2,2,0,0,0-.52,1.4,1.89,1.89,0,0,0,.45,1.34,1.61,1.61,0,0,0,1.24.49A2.11,2.11,0,0,0,33.18,501.78Z" />
    </g>
    <g class="cls-7">
        <path class="cls-10" d="M6.14,447.76a43,43,0,0,1,11.07,11.06c.23.34-.26.74-.49.4a42.69,42.69,0,0,0-10.95-11C5.43,448,5.8,447.52,6.14,447.76Z" />
        <path class="cls-10" d="M18.5,457.42a18.47,18.47,0,0,0-3.56-4.68c-.29-.28.2-.68.49-.4a18.87,18.87,0,0,1,3.65,4.82C19.27,457.52,18.69,457.77,18.5,457.42Z" />
        <path class="cls-10" d="M20.65,456A29.54,29.54,0,0,0,15.1,445.5c-.26-.31.23-.71.49-.4a29.79,29.79,0,0,1,5.64,10.63C21.34,456.12,20.76,456.38,20.65,456Z" />
    </g>
    <g class="cls-7">
        <path class="cls-10" d="M63.25,484.75a44.25,44.25,0,0,1-16.81,13.06c-.52.23-.11,1,.4.78A45.18,45.18,0,0,0,64,485.22C64.34,484.77,63.6,484.31,63.25,484.75Z" />
        <path class="cls-10" d="M66.65,503a34.85,34.85,0,0,1-17.11,3.36.44.44,0,0,0,0,.88,35.81,35.81,0,0,0,17.55-3.46C67.57,503.57,67.16,502.8,66.65,503Z" />
        <path class="cls-10" d="M59.62,497.49c.45-.34-.14-1-.59-.65a29.69,29.69,0,0,1-9.52,4.77c-.54.16-.35,1,.2.86A31.12,31.12,0,0,0,59.62,497.49Z" />
    </g>
    <path class="cls-6" d="M8,497.55a2.31,2.31,0,0,1,.38.28,1.43,1.43,0,0,0,.81.43,1.62,1.62,0,0,0,1.08-.49c.28-.22.54-.43.81-.4a1.21,1.21,0,0,1,.56.27,1.25,1.25,0,0,0,.86.34,1.41,1.41,0,0,0,.73-.37l.1-.08c.11-.08.39-.26.57-.17a.2.2,0,0,0,.26-.08.19.19,0,0,0-.07-.26.92.92,0,0,0-1,.21l-.11.08a1.14,1.14,0,0,1-.52.29.9.9,0,0,1-.6-.27,1.58,1.58,0,0,0-.75-.35,1.67,1.67,0,0,0-1.09.49,1.27,1.27,0,0,1-.81.4,1.14,1.14,0,0,1-.59-.33,2.15,2.15,0,0,0-.46-.33,1.36,1.36,0,0,0-1.64.42.2.2,0,0,0,0,.24l0,0a.2.2,0,0,0,.27,0A1,1,0,0,1,8,497.55Z" />
    <path class="cls-6" d="M8,499.65a2.31,2.31,0,0,1,.38.28,1.41,1.41,0,0,0,.81.42,1.58,1.58,0,0,0,1.08-.49,1.32,1.32,0,0,1,.81-.4,1.34,1.34,0,0,1,.56.28,1.3,1.3,0,0,0,.86.34,1.41,1.41,0,0,0,.73-.37l.1-.08c.11-.09.39-.27.57-.17a.2.2,0,0,0,.19-.35.94.94,0,0,0-1,.22l-.11.08a1,1,0,0,1-.52.28.94.94,0,0,1-.6-.26,1.41,1.41,0,0,0-.75-.35,1.58,1.58,0,0,0-1.09.49,1.32,1.32,0,0,1-.81.4,1.16,1.16,0,0,1-.59-.34,2.56,2.56,0,0,0-.46-.33,1.35,1.35,0,0,0-1.64.43.18.18,0,0,0,0,.23.08.08,0,0,0,0,0,.21.21,0,0,0,.27-.05A1,1,0,0,1,8,499.65Z" />
</svg>