<svg id="Layer_1" data-name="Layer 1" xmlns="http://www.w3.org/2000/svg" viewBox="0 0 238.51 516.46">
    <defs>
        <style>.cls-1,.cls-2,.cls-3{fill:none;stroke:#afafaf;}.cls-1,.cls-2,.cls-3,.cls-7,.cls-8{stroke-miterlimit:10;}.cls-1,.cls-2,.cls-3,.cls-8{stroke-width:0.5px;}.cls-2{stroke-dasharray:3.01 3.01;}.cls-3{stroke-dasharray:3;}.cls-4{fill:#e5e5e5;}.cls-5{fill:#007F80;opacity:0.4;}.cls-10,.cls-6{opacity:0.5;}.cls-10,.cls-7,.cls-8,.cls-9{fill:#aaa;}.cls-7,.cls-8{stroke:#aaa;fill-rule:evenodd;}.cls-7{stroke-width:0.25px;}</style>
    </defs>
    <line class="cls-1" x1="9.24" y1="440.77" x2="9.24" y2="439.27" />
    <line class="cls-2" x1="9.24" y1="436.26" x2="9.24" y2="95" />
    <line class="cls-1" x1="9.24" y1="93.5" x2="9.24" y2="92" />
    <line class="cls-3" x1="67.28" y1="507.23" x2="226.64" y2="507.23" />
    <circle class="cls-4" cx="9.12" cy="90.64" r="1.55" />
    <circle class="cls-4" cx="226.42" cy="506.94" r="1.55" />
    <path class="cls-5" d="M0,342.14S26.92,373,16.92,422c-10.3,50.5-1.11,86.66,27.95,85.83s130.76-17.91,193.4,8.63H0Z" />
    <g class="cls-6">
        <path class="cls-7" d="M61.15,494.57l1.54-.45a.17.17,0,0,1,.21.08c.06.09,0,.15-.06.22s0,0-.05,0a6.21,6.21,0,0,1-2.42.89l-.37.06c-.2,0-.4,0-.54.24s-.21.11-.32.16A21.06,21.06,0,0,0,56.81,497a51.21,51.21,0,0,0-8.64,6.2c-1.19,1-2.37,2.13-3.56,3.18A31.76,31.76,0,0,1,42,508.49a14.06,14.06,0,0,1-3.47,1.88,7.66,7.66,0,0,1-2.92.48,6.91,6.91,0,0,1-4-1.54c-1.36-1.09-2.65-2.25-3.92-3.43-2.41-2.24-4.66-4.63-6.88-7.05A17.51,17.51,0,0,1,19,496.71a4.57,4.57,0,0,1-.63-1.27,2.78,2.78,0,0,1,0-1.59,5.08,5.08,0,0,1,.85-1.71,7.55,7.55,0,0,1,3.1-2.58,5.55,5.55,0,0,1,1.31-.36,2.49,2.49,0,0,1,1.45.22,5.08,5.08,0,0,1,1.21.85l.28.25a.67.67,0,0,0,.15-.13A20.35,20.35,0,0,1,30,487.05c.6-.5,1.21-1,1.83-1.48a22.07,22.07,0,0,1,2.81-1.91c1.19-.68,2.38-1.33,3.61-1.92a22.91,22.91,0,0,1,4.64-1.52,2.67,2.67,0,0,1,1.16-.05.89.89,0,0,0,.6-.09,17.23,17.23,0,0,1,3.64-1.19c.2,0,.41-.05.61-.06a.12.12,0,0,1,.14.09.17.17,0,0,1-.09.21,5.71,5.71,0,0,1-.58.21c-.88.29-1.77.57-2.64.87a1.43,1.43,0,0,0-.65.28l.62.38c.23.13.41.43.67.4s.47-.23.71-.35a14.33,14.33,0,0,1,2.46-1,1.69,1.69,0,0,1,.67-.08s.06,0,.09.07a.14.14,0,0,1,0,.16,1.71,1.71,0,0,1-.55.29l-2.5,1.07-.49.21a7.26,7.26,0,0,0,.84.77,1.28,1.28,0,0,0,.51-.25,12.36,12.36,0,0,1,3.14-1.26,1.16,1.16,0,0,1,.18,0c.09,0,.18,0,.19.13a.16.16,0,0,1-.06.15,1.52,1.52,0,0,1-.33.18c-.74.37-1.49.7-2.26,1l-.91.37c0,.2.14.26.24.34s.3.38.53.4.4-.19.6-.3a10,10,0,0,1,2.13-1,1.83,1.83,0,0,1,.66-.11.18.18,0,0,1,.14.1.17.17,0,0,1-.06.15,6,6,0,0,1-.66.35l-2,.91-.41.2a3.25,3.25,0,0,0,.68.66.24.24,0,0,0,.29,0L51,484a8.14,8.14,0,0,1,2-.73,1,1,0,0,1,.24,0s.09.08.12.13a.14.14,0,0,1,0,.11,1.93,1.93,0,0,1-.59.34c-.62.26-1.26.5-1.89.76a4.31,4.31,0,0,0-.49.22,1.13,1.13,0,0,0,.06.14l.65.58a2.44,2.44,0,0,0,.76-.37,9.64,9.64,0,0,1,2.3-.9l.24-.05c.1,0,.21,0,.28.07s0,.21-.17.28l-1.76.76-1.26.51c0,.07,0,.12.06.14.18.2.33.47.58.53s.44-.19.65-.31a9.9,9.9,0,0,1,2.43-1.06.51.51,0,0,1,.3,0,.16.16,0,0,1,.08.08s0,.09,0,.11a.58.58,0,0,1-.18.17c-.33.17-.65.35-1,.5-.64.3-1.28.58-1.91.86,0,.07,0,.12,0,.14.2.21.36.51.63.58s.53-.19.78-.32a17.4,17.4,0,0,1,2.27-1,1.09,1.09,0,0,1,.24-.07.17.17,0,0,1,.21.07c.06.08,0,.16-.06.21-.3.19-.59.39-.89.56a10.7,10.7,0,0,1-1.89.77l-.21.07c-.07.15,0,.22.1.28.24.25.5.5.75.74a.25.25,0,0,0,.33,0c.28-.14.56-.27.83-.42a13.62,13.62,0,0,1,1.73-.81l.18-.07c.1-.05.21-.07.27,0s0,.22-.13.3-.43.31-.66.45a8.59,8.59,0,0,1-1.79.84l-.22.09a.47.47,0,0,0,.17.27c.16.14.26.35.46.4s.35-.11.52-.18a17.25,17.25,0,0,1,2.54-.76l.12,0c.09,0,.18,0,.22.08a.18.18,0,0,1-.12.24,8,8,0,0,1-.9.41,12.09,12.09,0,0,1-1.77.55,1.39,1.39,0,0,0-.25.12l.68.75a.24.24,0,0,0,.33,0l.82-.44a8.6,8.6,0,0,1,1.91-.71c.1,0,.21,0,.25.09s0,.19-.13.24c-.29.16-.58.32-.88.46a13.1,13.1,0,0,1-1.59.68c-.08,0-.14.08-.23.12a.54.54,0,0,0,.08.17,5,5,0,0,0,.62.68,2.53,2.53,0,0,0,.85-.47,8.3,8.3,0,0,1,1.7-.88,1.63,1.63,0,0,1,.3-.07.1.1,0,0,1,.1,0c0,.05,0,.14,0,.17a.83.83,0,0,1-.22.2,15.76,15.76,0,0,1-2,1.16c-.14.07-.32.1-.42.26s.16.27.24.41a.2.2,0,0,0,.27.06l1.3-.59,1.27-.49.3-.08a.18.18,0,0,1,.21.08.16.16,0,0,1-.07.21c-.26.16-.52.33-.79.48a11,11,0,0,1-1.44.56l-.66.23a3.19,3.19,0,0,0,.42.8,1.21,1.21,0,0,0,.54-.2,16.78,16.78,0,0,1,2.3-.88.63.63,0,0,1,.19,0c.08,0,.17,0,.19.1a.31.31,0,0,1-.06.16,1.75,1.75,0,0,1-.27.16l-1.22.58a9,9,0,0,0-1.32.46s-.07.08-.17.18A9,9,0,0,0,61.15,494.57Zm-2.23.83-.39-.64a23.76,23.76,0,0,0-2.5-3.14c-1.3-1.45-2.73-2.77-4.09-4.15-1.9-1.93-4-3.67-6-5.45a6.16,6.16,0,0,0-1.11-.78,2.53,2.53,0,0,0-1.92-.24c-.75.2-1.51.4-2.26.62a22.76,22.76,0,0,0-3.85,1.7,30.35,30.35,0,0,0-5.42,3.56c-.94.79-1.87,1.57-2.72,2.44l-1.55,1.6a13.22,13.22,0,0,0,2,1.88,6.51,6.51,0,0,1,.63-.76c.54-.51,1-1.08,1.51-1.63a22.78,22.78,0,0,1,7.23-5.34A11.71,11.71,0,0,1,41.69,484a3.24,3.24,0,0,1,2.37.5,7.87,7.87,0,0,1,.92.72q1.83,1.64,3.54,3.39c1.1,1.14,2.15,2.34,3.3,3.43.6.58,1.18,1.17,1.76,1.75a2,2,0,0,1,.43.53.56.56,0,0,1-.31.85l-.42.13a12,12,0,0,0-2.24.87,20.62,20.62,0,0,0-5.14,3.63,33.24,33.24,0,0,0-3.23,3.59,19.21,19.21,0,0,1-2.84,2.93,9.63,9.63,0,0,1-4,2,5.4,5.4,0,0,1-3.39-.27l-.18-.06a.13.13,0,0,0-.1,0,.14.14,0,0,0,0,.11,2.41,2.41,0,0,0,.69.86,4.35,4.35,0,0,0,2.3,1,6.32,6.32,0,0,0,2.86-.32,12.34,12.34,0,0,0,3.44-1.82,32.66,32.66,0,0,0,2.83-2.3c1.62-1.44,3.21-2.92,4.89-4.29a42.13,42.13,0,0,1,6.66-4.51,11.83,11.83,0,0,1,2.85-1.18A2,2,0,0,0,58.92,495.4Zm-5.63-.87a1.23,1.23,0,0,0-.37-.46c-1.64-1.6-3.27-3.21-4.83-4.89-1-1.08-2.11-2.1-3.19-3.11a14.84,14.84,0,0,0-1.14-1,2.42,2.42,0,0,0-1.63-.48,5.46,5.46,0,0,0-1.74.41,22.38,22.38,0,0,0-8.23,5.47,19.66,19.66,0,0,1-2.52,2.56c-.12.08-.12.2,0,.31l1.64,1.52.05,0a.15.15,0,0,0,.17,0l.26-.34a20.24,20.24,0,0,1,2.37-2.78,8.63,8.63,0,0,1,1.25-1,5.46,5.46,0,0,1,5.59-.4l.95.46a2.45,2.45,0,0,0,2.48-.1l.21-.12.17-.07a.35.35,0,0,1,.4.1.28.28,0,0,1,.07.34,7.22,7.22,0,0,1-.44.88,3.09,3.09,0,0,0-.26,2.57c.07.24.14.48.19.72a3.38,3.38,0,0,1-.36,2.45,6.46,6.46,0,0,1-.9,1.18,23.71,23.71,0,0,1-3.65,3,2.92,2.92,0,0,1-.83.41c-.09,0-.21,0-.26.15.16.28.33.55.48.84a1.73,1.73,0,0,1-.71,2.4c-.42.25-.84.52-1.25.8a9.53,9.53,0,0,1-1.12.64.75.75,0,0,1-.24.08.1.1,0,0,1-.1,0c0-.05-.06-.12,0-.16.07-.21.27-.31.44-.43a19,19,0,0,1,1.86-1.2,1.27,1.27,0,0,0,0-.14c0-.06-.1-.13-.16-.19s-.19-.15-.37,0-.17.12-.25.17l-1.72,1.11-.22.11a.18.18,0,0,1-.23,0,.16.16,0,0,1,0-.22,1,1,0,0,1,.18-.17c.36-.28.72-.56,1.09-.82l1-.65a1.22,1.22,0,0,0-.14-.16c-.33-.28-.34-.28-.68-.05a15.28,15.28,0,0,1-1.71,1,1,1,0,0,1-.28.1s-.08,0-.11,0a.14.14,0,0,1,0-.17l.22-.22A12.81,12.81,0,0,1,36,504c.15-.1.34-.15.43-.32a1,1,0,0,0-.08-.11l-.19-.15c-.22-.17-.23-.18-.48,0a9.59,9.59,0,0,1-1.28.76l-.33.16c-.1,0-.22.05-.27-.06s0-.19.11-.26l.3-.22.89-.57.31-.19c.05,0,.11-.07.07-.15s-.11-.1-.2-.09h-.06a5,5,0,0,0-2.83,2.08,3.45,3.45,0,0,0-.6,2.11.24.24,0,0,0,.16.23,6.29,6.29,0,0,0,3.59.32,9.39,9.39,0,0,0,4.08-2.11,22.48,22.48,0,0,0,2.79-3,30.7,30.7,0,0,1,4.08-4.14,19.81,19.81,0,0,1,5.15-3.17C52.17,494.92,52.71,494.74,53.29,494.53Zm-15.88,7.4a1.94,1.94,0,0,0-.4-.49c-1.32-1.28-2.63-2.57-4-3.83-1.72-1.63-3.47-3.23-5.21-4.85-.62-.58-1.21-1.18-1.82-1.77a4.92,4.92,0,0,0-1-.81,1.76,1.76,0,0,0-1.31-.23,4.3,4.3,0,0,0-1,.31,6.91,6.91,0,0,0-3.32,3.28,2.41,2.41,0,0,0,.16,2.58,12.32,12.32,0,0,0,1.19,1.58c1.78,2,3.57,4,5.49,5.89,1.47,1.43,3,2.82,4.51,4.15.1.09.18.22.38.17,0-.09,0-.17-.05-.25a4.24,4.24,0,0,1,.94-3.59A5.88,5.88,0,0,1,35.28,502,6.52,6.52,0,0,1,37.41,501.93Zm-4-5,.45-.52a14,14,0,0,1,2-2,6.53,6.53,0,0,1,1.49-.87,3.06,3.06,0,0,1,1.52-.2,1.73,1.73,0,0,1,1.47,1.09,2.17,2.17,0,0,1,.1,1.4,4.64,4.64,0,0,1-.86,1.7A12.72,12.72,0,0,1,37,500c-.1.07-.23.11-.24.28l1.54,1.69.1.05.5-.36c.86-.6,1.7-1.25,2.51-1.92a17,17,0,0,0,1.6-1.46,5.58,5.58,0,0,0,.76-1,2.43,2.43,0,0,0,.32-1.84c-.08-.3-.14-.61-.23-.9a3.6,3.6,0,0,1,.21-2.6c0-.09.08-.18.12-.27a.24.24,0,0,0-.25,0,3.07,3.07,0,0,1-2.34-.23l-1.19-.54a4.56,4.56,0,0,0-2.42-.36,5.33,5.33,0,0,0-2.64,1.12,11.75,11.75,0,0,0-1.58,1.49c-.57.65-1.12,1.32-1.68,2-.09.1-.22.18-.21.39Zm2.86,2.82a16.23,16.23,0,0,1,1.47-1.34,9.17,9.17,0,0,0,1.52-1.71,3,3,0,0,0,.49-1.25A1.21,1.21,0,0,0,38.6,494a2.55,2.55,0,0,0-.55,0,3.38,3.38,0,0,0-1.26.51,7.79,7.79,0,0,0-1.49,1.19c-.41.41-.82.82-1.22,1.24-.1.09-.24.15-.25.33Zm-.15,2.93c.34.26.62.45.89.67s.57.47.83.72.47.5.71.76a1.26,1.26,0,0,0-.38-1.68A2.7,2.7,0,0,0,36.13,502.66Z" />
    </g>
    <g class="cls-6">
        <path class="cls-7" d="M48.47,474l.66.34a.17.17,0,0,1,.1.17c0,.12-.14.09-.22.07a6.54,6.54,0,0,1-.75-.24c-.37-.14-.72-.3-1.08-.45a.39.39,0,0,0-.39,0,.89.89,0,0,1-1.07-.2c-.1-.1-.18-.15-.31-.05a3.22,3.22,0,0,1-2.72.55s0,0-.06,0-.07.18-.09.27a2,2,0,0,1-.39.92,1.37,1.37,0,0,1-1.36.52c-.1,0-.19-.11-.3,0-.24,1.15-1.4,2-2.73.73a1.71,1.71,0,0,1-1.83.5,1.41,1.41,0,0,1-1-1.18c-.11-.09-.22,0-.32,0a1.76,1.76,0,0,1-1.7-1.7s0-.07,0-.1a.15.15,0,0,0-.15-.17,1.65,1.65,0,0,1-.86-.39,1.46,1.46,0,0,1,0-2.2c.07-.07.19-.1.21-.24l-.31-.32a1.71,1.71,0,0,1,.4-2.51,1.19,1.19,0,0,1,1.21-.12.2.2,0,0,0,.3-.12,1.32,1.32,0,0,1,.53-.57,1.21,1.21,0,0,1,1.26-.05l.48.29a1.81,1.81,0,0,1,.89-.67,1.63,1.63,0,0,1,1.09.07,1.82,1.82,0,0,1,.78.82c1.38-.42,2.08-.06,2.37,1.22a1.66,1.66,0,0,1,1.33.48,1.6,1.6,0,0,1,.37,1.39,4.08,4.08,0,0,1,2,.53,5,5,0,0,1,.49.31c.12.08.2.21.33.26s.23-.11.37-.14a1,1,0,0,1,.86.15,1.34,1.34,0,0,1,.27.26.39.39,0,0,0,.41.17,6.65,6.65,0,0,1,1.48.07l.57.11a.12.12,0,0,1,.09.12.13.13,0,0,1-.1.11,5,5,0,0,1-1.22,0l-.9-.09c-.08,0-.13,0-.13.12a.13.13,0,0,0,.12.14,5.14,5.14,0,0,1,1.69.39,3.49,3.49,0,0,1,.34.15.15.15,0,0,1,0,.09.1.1,0,0,1-.09.11.5.5,0,0,1-.21,0l-.89-.17c-.06-.06-.13-.11-.22-.06l-.34-.09a1,1,0,0,0-.43-.14.11.11,0,0,0-.12.07s0,.1,0,.13a1.66,1.66,0,0,0,.58.15.46.46,0,0,0,.27.09A.37.37,0,0,0,48.47,474Zm-14.25-1.25a2.2,2.2,0,0,1,.89.18,1.73,1.73,0,0,1,.61.5,3.42,3.42,0,0,1,.31.79,1.71,1.71,0,0,1,1.83.52,1.61,1.61,0,0,1,1.83-.4,2,2,0,0,1,.38-.81,1.63,1.63,0,0,1,.72-.52,1.86,1.86,0,0,1,.88,0,3.49,3.49,0,0,1,0-1.21,2.44,2.44,0,0,1-.74-.2,2.18,2.18,0,0,1-.53-.43c-.17-.19-.18-.45-.31-.65a2,2,0,0,1-1.94-.88,2.48,2.48,0,0,1-.72.22,2.08,2.08,0,0,1-.74-.08,3.79,3.79,0,0,1-.62-.35,1.53,1.53,0,0,1-2,.6,1.56,1.56,0,0,1-.5,1,.16.16,0,0,0-.07.19A1.43,1.43,0,0,1,34.22,472.72Zm11-.48-.08-.06a4.48,4.48,0,0,0-1.79-.74,1.81,1.81,0,0,0-.52,0,.66.66,0,0,0-.62.49,1.78,1.78,0,0,0,0,1.14,1,1,0,0,0,.62.61,1.89,1.89,0,0,0,.67.11,3.88,3.88,0,0,0,1.58-.36c.37-.17.36-.18.34-.6A.75.75,0,0,0,45.18,472.24ZM37.5,475a1.27,1.27,0,0,0-1.7-.06,1,1,0,0,0-.34,1,.86.86,0,0,0,.71.69,1.43,1.43,0,0,0,1.2-.24.4.4,0,0,0,.21-.45,1.28,1.28,0,0,1,0-.67A.28.28,0,0,0,37.5,475Zm-2.13-.31.11-.11a.28.28,0,0,0,.09-.37,2.55,2.55,0,0,0-.13-.29,1.14,1.14,0,0,0-1.12-.64,1,1,0,0,0-.8,1.42,1.59,1.59,0,0,0,1.19.79.23.23,0,0,0,.28-.17A1.46,1.46,0,0,1,35.37,474.64Zm2.92.36a1,1,0,0,0,.13,1.5,1,1,0,0,0,1.49-.33,1.68,1.68,0,0,0,.16-.39.38.38,0,0,0,0-.36c-.18-.2-.21-.48-.41-.66l0,0A1.08,1.08,0,0,0,38.29,475Zm2.2-1.32a1.12,1.12,0,0,0-.33.76,1,1,0,0,0,.63.95.94.94,0,0,0,1.07-.36,1.67,1.67,0,0,0,.33-.89.86.86,0,0,0-.44-.72A1.09,1.09,0,0,0,40.49,473.68Zm-8.28-3.23a.82.82,0,0,0,1.36-.11,1.36,1.36,0,0,0,.2-.54.5.5,0,0,0-.05-.36,1.63,1.63,0,0,1-.22-.75c0-.1-.06-.15-.16-.18a1.18,1.18,0,0,0-1.13,1.94Zm5.8-2.81a1,1,0,0,0-.93-.23,1,1,0,0,0-.81,1,.91.91,0,0,0,.78.92,1.87,1.87,0,0,0,.88,0,.22.22,0,0,0,.2-.21,1.07,1.07,0,0,1,.15-.61c.2-.31.17-.36-.12-.67A1.82,1.82,0,0,0,38,467.64Zm2.31.78a1.09,1.09,0,0,0-1.18-.18.86.86,0,0,0-.23,1.44,1.77,1.77,0,0,0,1.06.41c.12,0,.22,0,.26-.14a1.81,1.81,0,0,1,.42-.6.21.21,0,0,0,.05-.2A1.26,1.26,0,0,0,40.32,468.42Zm-6.86,3.3a.93.93,0,0,0-1.18-.11,1,1,0,0,0-.31,1.1,1.29,1.29,0,0,0,.9.75.25.25,0,0,0,.29-.09,1.69,1.69,0,0,1,.55-.48.18.18,0,0,0,.11-.17A1.2,1.2,0,0,0,33.46,471.72Zm.85-3.77a1,1,0,0,0,0,1.44.91.91,0,0,0,1.32-.12.6.6,0,0,0,.18-.57.93.93,0,0,1,0-.37.35.35,0,0,0-.28-.47c-.12,0-.23-.11-.35-.14A.82.82,0,0,0,34.31,468ZM41,471a1.72,1.72,0,0,0,.65.32.4.4,0,0,0,.48-.1c.08-.09.25-.1.27-.24a1.13,1.13,0,0,0-.84-1.42.72.72,0,0,0-.64.18A.83.83,0,0,0,41,471Zm5.68,1.45a.65.65,0,0,0-.38-.16.52.52,0,0,0-.46.28.75.75,0,0,0,.36.89.49.49,0,0,0,.53-.11A.66.66,0,0,0,46.66,472.46Z" />
    </g>
    <g class="cls-6">
        <path class="cls-8" d="M18.09,487.62a12.71,12.71,0,0,1-3.18-.43,8,8,0,0,1-1.77-.72,3.21,3.21,0,0,1-1.5-1.76c-.41-1.11-.78-2.23-1.14-3.35-.93-2.86-1.84-5.72-2.59-8.62a44.11,44.11,0,0,1-1-5.36,8.44,8.44,0,0,1,0-1,1.21,1.21,0,0,1,.3-.83,4.29,4.29,0,0,1,.83-.76,10.42,10.42,0,0,1,1.67-.92,24.28,24.28,0,0,1,5.58-1.69,32.23,32.23,0,0,1,3.51-.5,21.32,21.32,0,0,1,5.11.14,1.35,1.35,0,0,1,1.11.85c.1.24.2.48.28.73,1.28,3.69,2.69,7.32,4.07,11,.63,1.67,1.15,3.37,1.61,5.09a.14.14,0,0,1,0,.06c.18.68.18.68-.24,1.28a2.29,2.29,0,0,0-.09,2.6c.06.11.14.22.2.33.19.35.17.54-.13.79a6.79,6.79,0,0,1-1.24.88,15.66,15.66,0,0,1-2.56,1,24.35,24.35,0,0,1-3.17.75A27,27,0,0,1,18.09,487.62ZM7.74,468.53a.73.73,0,0,0,0,.42c.2,1,.39,2,.62,3,.4,1.73.93,3.43,1.46,5.14.36,1.2.75,2.39,1.13,3.59.07.23.11.26.32.19a2.88,2.88,0,0,1,1.05-.12,1.79,1.79,0,0,1,1.73,1.13c.06.14.12.15.26.08a12.9,12.9,0,0,1,1.7-.75,28.87,28.87,0,0,1,7.58-1.55c1.33-.1,2.66-.14,4-.11a.54.54,0,0,0,.41-.08,1.48,1.48,0,0,1,.2-.83,3.15,3.15,0,0,1,1.19-1.24c.22-.11.23-.14.15-.35-.34-1-.68-2-1.05-3-1.12-2.91-2.24-5.81-3.27-8.75l-.11-.32a.18.18,0,0,0-.22-.12l-.28.05a2.34,2.34,0,0,1-2.37-1.18,2.44,2.44,0,0,1-.34-1.34c0-.12-.05-.17-.16-.19h-.17a21.23,21.23,0,0,0-3.09.09,37.47,37.47,0,0,0-5,.9,20.6,20.6,0,0,0-3.24,1.1c-.18.08-.2.11-.13.3a2.5,2.5,0,0,1,.2.93,3.16,3.16,0,0,1-1,2.2A2.72,2.72,0,0,1,7.74,468.53Zm22.52,11.73-.14-.06a46,46,0,0,0-5.12,0,35.41,35.41,0,0,0-5,.6,22.2,22.2,0,0,0-4,1.12,11.35,11.35,0,0,0-1.82.89A3.79,3.79,0,0,0,13,483.9a1.77,1.77,0,0,0-.3,1.12.59.59,0,0,0,.23.48,4.46,4.46,0,0,0,.9.58,8,8,0,0,0,2,.65,17.78,17.78,0,0,0,4.49.18,26.21,26.21,0,0,0,3.85-.53,20.44,20.44,0,0,0,4.2-1.23,5.49,5.49,0,0,0,1.42-.79c.13-.1.32-.17.36-.34s-.13-.3-.2-.44a2.86,2.86,0,0,1,.17-3.09ZM9.72,465.54l-.09-.73a.16.16,0,0,0-.25-.13l-.92.53a3,3,0,0,0-.81.69.74.74,0,0,0-.23.55c0,.47.09.93.15,1.4,0,.16.13.2.29.13a3.35,3.35,0,0,0,1.41-1.08A2.57,2.57,0,0,0,9.72,465.54Zm2.41,18.67a3.75,3.75,0,0,1,.9-1.36l.61-.49c.15-.12.15-.16,0-.32a2.06,2.06,0,0,0-2.09-.77c-.36,0-.38.09-.28.42l.24.75ZM25,464.51c-.13-.36-.23-.66-.34-1s-.19-.49-.29-.73a.59.59,0,0,0-.45-.39,6.63,6.63,0,0,0-1.34-.16.16.16,0,0,0-.16.18,2.39,2.39,0,0,0,.27.79,1.91,1.91,0,0,0,1.18,1.06A5,5,0,0,0,25,464.51Zm5.53,15.24-.68-1.95c0-.1-.14-.07-.19,0a4.64,4.64,0,0,0-1.07,1.49c-.1.22,0,.32.2.34.42.05.85.1,1.28.13C30.16,479.75,30.31,479.83,30.48,479.75Z" />
        <path class="cls-8" d="M20.26,479.56a.36.36,0,0,1-.3-.14c-.12-.12-.23-.25-.34-.37a1.62,1.62,0,0,0-1.25-.55c-.34,0-.68,0-1,0a4.26,4.26,0,0,1-1.07,0,2.62,2.62,0,0,1-1.73-.95,5,5,0,0,1-1.08-2.38c0-.26-.07-.52-.12-.78s-.06-.33-.1-.49a1.2,1.2,0,0,0-1.1-1,.87.87,0,0,1-.22-.05c-.09,0-.23-.06-.25-.19s.1-.18.2-.23a4.69,4.69,0,0,0,1.1-.76c.18-.17.35-.35.51-.53a2.34,2.34,0,0,0,.51-1.95c0-.28-.09-.56-.15-.83a2,2,0,0,1,.61-1.95,5.39,5.39,0,0,1,.74-.6l.79-.53a1.51,1.51,0,0,0,.63-.91,3.63,3.63,0,0,1,.15-.54.27.27,0,0,1,.46-.1,2.43,2.43,0,0,1,.33.38,2.12,2.12,0,0,0,1.25.81c.33.08.65.18,1,.28a3.37,3.37,0,0,1,2.47,2.52c.09.35.16.7.24,1.05s.12.5.19.76a1.31,1.31,0,0,0,1,1c.13,0,.26.07.38.12a.3.3,0,0,1,.17.41,3.11,3.11,0,0,1-.2.41,3.65,3.65,0,0,0-.38,2.55,7.1,7.1,0,0,1,.16,1.46,2.07,2.07,0,0,1-.8,1.66,5.21,5.21,0,0,1-1.22.68c-.21.09-.42.17-.62.27a1.08,1.08,0,0,0-.64,1,1.13,1.13,0,0,1-.06.32A.25.25,0,0,1,20.26,479.56Zm-.17-.85a2,2,0,0,1,1.39-1.33,3.9,3.9,0,0,0,.47-.2,5.45,5.45,0,0,0,.58-.33,1.56,1.56,0,0,0,.78-1.46,13.73,13.73,0,0,0-.19-1.57,3.46,3.46,0,0,1,.22-1.93c.09-.24.22-.47.33-.71a.12.12,0,0,0-.06-.18l-.17,0a1.73,1.73,0,0,1-1.23-1.13,5.72,5.72,0,0,1-.17-.59c-.12-.5-.17-1-.3-1.49a2.74,2.74,0,0,0-1.87-2c-.31-.11-.64-.21-1-.29a2.81,2.81,0,0,1-1.69-1.05c-.08-.12-.19-.09-.23.07a2.53,2.53,0,0,1-1.08,1.33c-.23.16-.46.32-.68.49a5.16,5.16,0,0,0-.54.5,1.48,1.48,0,0,0-.38,1.4c.06.26.1.52.14.78a3,3,0,0,1-.84,2.68,4.23,4.23,0,0,1-.68.59c-.09.06-.21.1-.23.25a1.87,1.87,0,0,1,1.12,1.56c0,.22.08.45.11.67a5.74,5.74,0,0,0,.52,1.71,4.43,4.43,0,0,0,.57.84,2.35,2.35,0,0,0,2.09.74,8.63,8.63,0,0,1,1.24-.05,2.23,2.23,0,0,1,1.35.49C19.81,478.54,19.89,478.68,20.09,478.71Z" />
        <path class="cls-8" d="M15.83,484.33l-.12,0a.18.18,0,0,1-.07-.08s0-.09,0-.1a1.25,1.25,0,0,1,.25-.09c.7-.15,1.41-.25,2.11-.33,1.23-.14,2.46-.29,3.69-.41,1-.1,2-.16,3-.23h.39a.18.18,0,0,1,.17.11c0,.07-.07.16-.18.18l-1.17.11-6,.6c-.66.07-1.31.17-2,.25Z" />
        <path class="cls-8" d="M19.65,485.27h-.19c-.05,0-.11,0-.12-.09s0-.14.11-.17a1.76,1.76,0,0,1,.33-.07l3.22-.45,2.94-.41c.32,0,.64-.06.95-.08.1,0,.21,0,.21.12s-.1.14-.19.16l-.88.17c-1.52.23-3,.47-4.56.61-.49,0-1,.11-1.45.17Z" />
        <path class="cls-8" d="M26.68,481.1h.67a.12.12,0,0,1,.1.12.12.12,0,0,1-.08.12,1.94,1.94,0,0,1-.33.07l-2.74.23a.57.57,0,0,1-.38-.05.28.28,0,0,1-.06-.09.19.19,0,0,1,.05-.1.86.86,0,0,1,.21-.07l2.56-.26Z" />
    </g>
    <g class="cls-6">
        <path class="cls-8" d="M31.94,460.85a2.08,2.08,0,0,1-.85-.17,1.19,1.19,0,0,1-.65-1.56,1.68,1.68,0,0,1,1.16-1,1.57,1.57,0,0,1,.61-.05.84.84,0,0,1,.26.07.57.57,0,0,1,.13.08.27.27,0,0,1,0,.37l-.11.11a1.69,1.69,0,0,0-.28.32.65.65,0,0,0-.11.22.36.36,0,0,0,.14.42.67.67,0,0,0,.21.1,1.6,1.6,0,0,0,.29.05l.23,0a.38.38,0,0,1,.1,0,.26.26,0,0,1,.16.31.65.65,0,0,1-.11.22.8.8,0,0,1-.23.22,1.57,1.57,0,0,1-.61.23A2.22,2.22,0,0,1,31.94,460.85Zm0-.16.36,0a1.31,1.31,0,0,0,.57-.24.58.58,0,0,0,.2-.21.61.61,0,0,0,0-.12.12.12,0,0,0-.07-.12L33,460h-.13a2.32,2.32,0,0,1-.45-.06.77.77,0,0,1-.29-.17.49.49,0,0,1-.15-.47.64.64,0,0,1,.13-.29,2.5,2.5,0,0,1,.34-.39l.09-.09a.11.11,0,0,0,0-.17.21.21,0,0,0-.12-.07.86.86,0,0,0-.28,0,1.61,1.61,0,0,0-1.52,1,1,1,0,0,0,.26,1.14,1.16,1.16,0,0,0,.32.2A1.93,1.93,0,0,0,32,460.69Z" />
    </g>
    <g class="cls-6">
        <path class="cls-9" d="M13,494.52l.08-.07a.67.67,0,0,0,0-.94l-.36-.36-.13.12.36.37a.48.48,0,0,1,0,.68l-.08.08Z" />
        <path class="cls-9" d="M12.46,493.15l.12-.13-.08-.08a.66.66,0,0,0-.93,0l-.37.37.12.13.37-.37a.49.49,0,0,1,.69,0Z" />
        <path class="cls-9" d="M11.35,494.8l.13-.13-.36-.36a.48.48,0,0,1,0-.68l.08-.08-.13-.13-.07.08a.65.65,0,0,0,0,.93Z" />
        <path class="cls-9" d="M12.49,495l.37-.36-.13-.13-.37.37a.49.49,0,0,1-.68,0l-.08-.08-.13.13.08.08A.66.66,0,0,0,12.49,495Z" />
        <path class="cls-9" d="M12.5,493.35l.58-.57a.65.65,0,0,0,0-.93l-.56-.57a.66.66,0,0,0-.94,0l-.57.57a.66.66,0,0,0,0,.93l.37.37.12-.13-.36-.37a.48.48,0,0,1,0-.68l.57-.56a.48.48,0,0,1,.68,0L13,492a.5.5,0,0,1,0,.69l-.57.56a.48.48,0,0,1-.68,0l-.08-.08-.13.12.08.08A.66.66,0,0,0,12.5,493.35Z" />
        <path class="cls-9" d="M14.15,495l.58-.56a.67.67,0,0,0,0-.94l-.56-.57a.67.67,0,0,0-.94,0l-.37.37.13.12.37-.36a.48.48,0,0,1,.68,0l.57.58a.49.49,0,0,1,0,.68l-.57.57a.5.5,0,0,1-.69,0l-.56-.57a.5.5,0,0,1,0-.69l.08-.07-.12-.13-.08.08a.66.66,0,0,0,0,.93l.57.57A.65.65,0,0,0,14.15,495Z" />
        <path class="cls-9" d="M11.07,494.51l-.37.37a.48.48,0,0,1-.68,0l-.57-.57a.48.48,0,0,1,0-.68l.57-.57a.49.49,0,0,1,.68,0l.57.57a.49.49,0,0,1,0,.68l-.07.08.12.13.08-.08a.65.65,0,0,0,0-.93l-.56-.58a.66.66,0,0,0-.94,0l-.57.56a.67.67,0,0,0,0,.94l.57.57a.66.66,0,0,0,.93,0l.37-.37Z" />
        <path class="cls-9" d="M12.47,496.68l.58-.57a.66.66,0,0,0,0-.93l-.36-.37-.12.13.36.36a.5.5,0,0,1,0,.69l-.57.56a.49.49,0,0,1-.69,0L11.1,496a.49.49,0,0,1,0-.68l.58-.56a.48.48,0,0,1,.68,0l.08.08.13-.12-.08-.08a.66.66,0,0,0-.94,0l-.57.56a.67.67,0,0,0,0,.94l.57.57A.66.66,0,0,0,12.47,496.68Z" />
        <path class="cls-9" d="M12.46,494l0,0,0,0a.12.12,0,0,0-.1-.05h0v0a.09.09,0,0,0,0-.06.07.07,0,0,0-.06,0h0s0,0,0,0h0a.13.13,0,0,0-.06-.1l0,0a0,0,0,0,1,0,0l0,0v0h0l0,0h0l0,0a.12.12,0,0,0-.05.05s0,0,0,.05h0v0h-.05l0,0a.14.14,0,0,0,0,.06v0h0a.08.08,0,0,0-.07.05l0,0h0l0,0,0,0,0,0a.11.11,0,0,0,.09,0h0a0,0,0,0,1,0,0v0a.14.14,0,0,0,0,.07.09.09,0,0,0,.07,0h0v0h0a.09.09,0,0,0,0,.07l0,0,0,0,0,0v0h0l0,0h0l0,0,0,0h0a.08.08,0,0,0,0-.05h0v0h0s0,0,0,0h0a0,0,0,0,0,0,0h0l.05,0h0a.14.14,0,0,0,0-.06h0a0,0,0,0,1,0,0h0l.06,0,0,0h0a.08.08,0,0,1,0,0ZM12,494v-.13h.12V494Z" />
    </g>
    <g class="cls-6">
        <path class="cls-9" d="M6.17,446.33a44,44,0,0,1,11.3,11.3c.24.34-.26.76-.5.41A43.41,43.41,0,0,0,5.79,446.85C5.44,446.62,5.83,446.09,6.17,446.33Z" />
        <path class="cls-9" d="M18.79,456.2a19.24,19.24,0,0,0-3.63-4.78c-.3-.29.2-.69.5-.41a19.68,19.68,0,0,1,3.72,4.93C19.58,456.3,19,456.56,18.79,456.2Z" />
        <path class="cls-9" d="M21,454.74A29.94,29.94,0,0,0,15.32,444a.32.32,0,0,1,.5-.41,30.32,30.32,0,0,1,5.75,10.86C21.69,454.87,21.1,455.14,21,454.74Z" />
    </g>
    <g class="cls-6">
        <path class="cls-9" d="M64.11,498.18a29.83,29.83,0,0,1-11.73,3.94.23.23,0,1,0,0,.45,30.5,30.5,0,0,0,12-4.05C64.67,498.36,64.39,498,64.11,498.18Z" />
        <path class="cls-9" d="M61.62,507.74a20.55,20.55,0,0,1-9.63-.9c-.29-.1-.51.32-.22.43a21.07,21.07,0,0,0,9.88.92C62,508.14,61.94,507.7,61.62,507.74Z" />
        <path class="cls-9" d="M59.27,503.94a.22.22,0,1,0-.15-.41,19.3,19.3,0,0,1-6,.93c-.32,0-.42.45-.1.45A20,20,0,0,0,59.27,503.94Z" />
    </g>
    <path class="cls-10" d="M9.41,501.45a4.61,4.61,0,0,1,.7.53,2.76,2.76,0,0,0,1.45.83,2.49,2.49,0,0,0,1.84-.76c.46-.36.89-.71,1.37-.64a2.38,2.38,0,0,1,1,.55,2.5,2.5,0,0,0,1.53.68,2.19,2.19,0,0,0,1.25-.59l.16-.13c.18-.14.64-.43,1-.25a.31.31,0,0,0,.45-.12.35.35,0,0,0-.15-.47,1.53,1.53,0,0,0-1.69.28l-.18.14a1.64,1.64,0,0,1-.88.46,1.87,1.87,0,0,1-1.08-.54,3,3,0,0,0-1.33-.69,2.48,2.48,0,0,0-1.85.77,2,2,0,0,1-1.37.64,2.31,2.31,0,0,1-1.07-.66,5.18,5.18,0,0,0-.83-.63,2.21,2.21,0,0,0-2.83.6.35.35,0,0,0,0,.42l.07.06a.31.31,0,0,0,.46-.06A1.55,1.55,0,0,1,9.41,501.45Z" />
    <path class="cls-10" d="M9.61,505.17a4.12,4.12,0,0,1,.7.54,2.83,2.83,0,0,0,1.45.83,2.5,2.5,0,0,0,1.84-.77,2,2,0,0,1,1.37-.64,2.38,2.38,0,0,1,1,.55,2.45,2.45,0,0,0,1.53.68,2.19,2.19,0,0,0,1.25-.59l.16-.13c.18-.13.64-.43,1-.24a.33.33,0,0,0,.45-.13.35.35,0,0,0-.15-.47,1.52,1.52,0,0,0-1.69.29l-.18.13a1.64,1.64,0,0,1-.88.46,1.85,1.85,0,0,1-1.08-.53,2.93,2.93,0,0,0-1.33-.69,2.47,2.47,0,0,0-1.85.76,2,2,0,0,1-1.37.64,2.28,2.28,0,0,1-1.07-.65,4.65,4.65,0,0,0-.83-.63,2.2,2.2,0,0,0-2.83.6.33.33,0,0,0,0,.41l.07.07a.32.32,0,0,0,.46-.07A1.57,1.57,0,0,1,9.61,505.17Z" />
</svg>