<svg id="Layer_1" data-name="Layer 1" xmlns="http://www.w3.org/2000/svg" viewBox="0 0 238.51 516.46">
    <defs>
        <style>.cls-1,.cls-2,.cls-3,.cls-8,.cls-9{fill:none;stroke-miterlimit:10;}.cls-1,.cls-2,.cls-3{stroke:#afafaf;stroke-width:0.5px;}.cls-2{stroke-dasharray:3.01 3.01;}.cls-3{stroke-dasharray:3;}.cls-4{fill:#e5e5e5;}.cls-5{fill:#007F80;opacity:0.4;}.cls-10,.cls-6{fill:#aaa;}.cls-6,.cls-7,.cls-9{opacity:0.5;}.cls-8,.cls-9{stroke:#aaa;}</style>
    </defs>
    <line class="cls-1" x1="9.24" y1="440.77" x2="9.24" y2="439.27" />
    <line class="cls-2" x1="9.24" y1="436.26" x2="9.24" y2="95" />
    <line class="cls-1" x1="9.24" y1="93.5" x2="9.24" y2="92" />
    <line class="cls-3" x1="67.28" y1="507.23" x2="226.64" y2="507.23" />
    <circle class="cls-4" cx="9.12" cy="90.64" r="1.55" />
    <circle class="cls-4" cx="226.42" cy="506.94" r="1.55" />
    <path class="cls-5" d="M0,342.14S26.92,373,16.92,422c-10.3,50.5-1.11,86.66,27.95,85.83s130.76-17.91,193.4,8.63H0Z" />
    <g class="cls-6">
        <path class="cls-7" d="M33.64,500.37c-2-4.21-5.17-7.74-7.26-11.87-1.1-2.18-1.14-4.11-1.3-6.53a94.43,94.43,0,0,1-.35-10.23,3.35,3.35,0,0,0,1.88-.72,2.47,2.47,0,0,0,0-3.48c-1.23-1.28-3.37-1-5-1.1-2.17-.09-6.24-.81-7.24,1.84-.78,2,1,2.87,2.81,3.19L16.39,479c-.33,3.09-.63,6.25-2.22,9-.95,1.66-2.24,3.1-3.16,4.78s-1.67,3.17-2.5,4.75c-1.28,2.45-3.36,6.05-2.3,8.92s4.52,3.72,7.18,3.93a94.22,94.22,0,0,0,12.57.26c2.35-.14,5.1-.5,7-2.05C35.58,506.44,34.93,503.06,33.64,500.37ZM17.07,470.08a1.16,1.16,0,0,1-.85-1V469a1.08,1.08,0,0,1,.25-.73,1.37,1.37,0,0,1,.78-.45,7.31,7.31,0,0,1,2.24-.09c.67.05,1.33.15,2,.18a14.38,14.38,0,0,0,2,0,2.79,2.79,0,0,1,1.8.41.89.89,0,0,1,.31.3.69.69,0,0,1,.09.31,1.13,1.13,0,0,1-.32,1,1.4,1.4,0,0,1-.83.25c-.68.05-1.37,0-2.06,0H20.28A15,15,0,0,1,17.07,470.08Zm-.4,16c1.48-4.53,1.57-9.65,2-14.4.57,0,1.08,0,1.45,0,.8,0,1.95.14,3.09.16-.07,2,0,4,.08,6.07a73.57,73.57,0,0,0,.5,8,9.68,9.68,0,0,0,.75,2.34,17.4,17.4,0,0,0-3.82-.41,19.7,19.7,0,0,0-5,.28A12.71,12.71,0,0,0,16.67,486Zm8.44,4.17c0,.28-2.34.8-2.73.87a12,12,0,0,1-2.61.11c-.73,0-4.39-.14-5-.9C16,488.65,25.23,489.21,25.11,490.21Zm8.14,15.2c-1.1,5.38-11.33,3.59-14.87,3.55-3.12,0-9.39.71-10.75-3.09-1-2.92,1.93-7.18,3.24-9.61a49.49,49.49,0,0,1,2.74-4.8l.12-.16c1.3,1.26,4.56,1.32,5.89,1.38s5.32-.05,6.68-1.45l.36.55a67.21,67.21,0,0,1,5.79,9.58A6.83,6.83,0,0,1,33.25,505.41Z" />
        <path class="cls-7" d="M22.51,485.26a82.83,82.83,0,0,0,.32-11.36c0-.95-1.53-1.1-1.49-.14A82.83,82.83,0,0,1,21,485.12.75.75,0,0,0,22.51,485.26Z" />
        <path class="cls-7" d="M12.61,503.57a1.27,1.27,0,0,0,.7-1.33,1.37,1.37,0,0,0-.79-1,1.28,1.28,0,0,0-1.26.38,1.27,1.27,0,0,0-.1,1.67A1.16,1.16,0,0,0,12.61,503.57Zm-.72-1.12a.28.28,0,0,1,.44-.09.2.2,0,0,1,0,.18.23.23,0,0,1-.07.11.29.29,0,0,1-.15.09A.21.21,0,0,1,11.89,502.45Z" />
        <path class="cls-7" d="M17.82,501.26a1.85,1.85,0,0,0-.58.09,2,2,0,0,0-.56.28,1.43,1.43,0,0,0-.26.23,1.73,1.73,0,0,0,.31,2.27,2.12,2.12,0,0,0,2.39.39,1.65,1.65,0,0,0,.39-2.24A1.9,1.9,0,0,0,17.82,501.26Zm.74,2.17a.35.35,0,0,1-.18.16.87.87,0,0,1-.88-.28.57.57,0,0,1,.06-.86.64.64,0,0,1,.69,0,.92.92,0,0,1,.36.61A.54.54,0,0,1,18.56,503.43Z" />
        <path class="cls-7" d="M24.68,498.68a1.88,1.88,0,0,0-1.86,1.08,2,2,0,0,0-.16.33,2.24,2.24,0,0,0,.07,1.42,1.57,1.57,0,0,0,1.66,1.07,2,2,0,0,0,1.83-1.79A1.94,1.94,0,0,0,24.68,498.68Zm.09,2.64a1,1,0,0,1-.53.26.69.69,0,0,1-.45-.09.57.57,0,0,1-.27-.5,1.16,1.16,0,0,1,.14-.48c.15-.31.41-.74.81-.69a.78.78,0,0,1,.63.7A1,1,0,0,1,24.77,501.32Z" />
        <path class="cls-7" d="M18.63,496.75c.5-2-2.8-3.61-3.49-1.36a2.21,2.21,0,0,0,.11,1.71,2.08,2.08,0,0,0,1.31.8A1.72,1.72,0,0,0,18.63,496.75Zm-2.51-.46a.87.87,0,0,1,.18-.74c.4-.64,1.21.34,1.24.79C17.57,497,16.29,497,16.12,496.29Z" />
        <path class="cls-7" d="M22.31,504a2.12,2.12,0,0,0-.57.72,1.94,1.94,0,0,0-.09,1.42,1.39,1.39,0,0,0,.91.86,2,2,0,0,0,2.27-.71,1.82,1.82,0,0,0-.26-2.34A1.73,1.73,0,0,0,22.31,504ZM24,505.57a.8.8,0,0,1-.76.43c-.24,0-.46-.07-.51-.33a.88.88,0,0,1,.15-.7A.64.64,0,0,1,24,505.57Z" />
        <path class="cls-7" d="M25.37,494.49a1.39,1.39,0,0,0-.88.43,1.13,1.13,0,0,0-.37.67,1,1,0,0,0,.34.93,1.25,1.25,0,0,0,1.46.08,1.27,1.27,0,0,0,.65-1.29A1.07,1.07,0,0,0,25.37,494.49Zm.21,1.29a.27.27,0,0,1-.07.08.28.28,0,0,1-.28.1.15.15,0,0,1-.07,0,.2.2,0,0,1-.09-.26.23.23,0,0,1,.1-.15h0C25.37,495.41,25.69,495.54,25.58,495.78Z" />
        <path class="cls-7" d="M29.47,502.38l-.16,0a2.2,2.2,0,0,0-1.32.34,1.6,1.6,0,0,0-.78,1,1.83,1.83,0,0,0,.11,1,1.83,1.83,0,0,0,3.57-.74A1.64,1.64,0,0,0,29.47,502.38Zm.09,2.35a.62.62,0,0,1-.85.08.73.73,0,0,1-.31-.9.78.78,0,0,1,.51-.49.53.53,0,0,1,.28,0,.64.64,0,0,1,.38.25A.78.78,0,0,1,29.56,504.73Z" />
        <path class="cls-7" d="M13.81,504.37a2.91,2.91,0,0,0-.78,0,1.32,1.32,0,0,0-.3.09,1.57,1.57,0,0,0-.38.22,1.76,1.76,0,0,0-.62,1.44,1.74,1.74,0,0,0,.75,1.24,1.92,1.92,0,0,0,2.24-.14A1.66,1.66,0,0,0,15,505,1.5,1.5,0,0,0,13.81,504.37Zm.24,1.93a.76.76,0,0,1-.69.22.63.63,0,0,1-.52-.61.64.64,0,0,1,.18-.43.35.35,0,0,1,.15-.12.82.82,0,0,1,.28-.05.71.71,0,0,1,.29.05.52.52,0,0,1,.18.12A.58.58,0,0,1,14.05,506.3Z" />
        <path class="cls-7" d="M11.89,499.44a1.51,1.51,0,0,0,2-.44,1.7,1.7,0,0,0,0-2,1.37,1.37,0,0,0-1.1-.51,1.82,1.82,0,0,0-1.23.73,1.61,1.61,0,0,0-.32,1.35A1.47,1.47,0,0,0,11.89,499.44Zm.38-1.53c.06-.17.27-.25.43-.29a.26.26,0,0,1,.35.15.57.57,0,0,1-.11.57.48.48,0,0,1-.48.13C12.22,498.39,12.2,498.12,12.27,497.91Z" />
        <path class="cls-7" d="M21.74,497.58a1.72,1.72,0,0,0-1.15-1.06,1.53,1.53,0,0,0-1.45.62,2.9,2.9,0,0,0-.38.6,1.79,1.79,0,0,0,0,1.71A1.65,1.65,0,0,0,21,500,1.87,1.87,0,0,0,21.74,497.58Zm-1.37,1.49c-.63.2-.71-.49-.56-.92a1.38,1.38,0,0,1,.14-.3.41.41,0,0,1,.07-.11c.36-.44.7.2.75.51S20.76,499,20.37,499.07Z" />
        <path class="cls-7" d="M28,501.23a1.34,1.34,0,0,0,1.62-.12,1.77,1.77,0,0,0,.21-2.21,1.56,1.56,0,0,0-1.32-.66,1.49,1.49,0,0,0-1.3.9,1.4,1.4,0,0,0-.18.52A1.87,1.87,0,0,0,28,501.23Zm0-1.45a.51.51,0,0,1,.8-.3.57.57,0,0,1,.15.64.41.41,0,0,1-.12.14.62.62,0,0,1-.5,0l-.15-.07A.44.44,0,0,1,28,499.78Z" />
        <path class="cls-7" d="M8.28,503.53a1.94,1.94,0,0,0-.21.2,1.51,1.51,0,0,0,.82,2.35,1.43,1.43,0,0,0,1.69-.86,1.3,1.3,0,0,0,.12-.55A1.53,1.53,0,0,0,8.28,503.53Zm1.28,1.22a.33.33,0,0,1-.65-.14C9,504.18,9.7,504.35,9.56,504.75Z" />
        <path class="cls-7" d="M44,504.53a1.7,1.7,0,0,1-3.23.6,5.32,5.32,0,0,1-.42-3.41,7.93,7.93,0,0,1,.57-2.35,4.56,4.56,0,0,1,.65-1.08,3.39,3.39,0,0,1,.88-.72,1.73,1.73,0,0,1,1.2-.2.79.79,0,0,1,.26.08.66.66,0,0,1,.33.42c.09.32-.12.74.16,1a.33.33,0,0,0,.55-.15c.41-1.49-1-2.46-2.4-2-1.88.64-2.65,2.75-2.91,4.54s-.29,4.48,1.66,5.42a2.49,2.49,0,0,0,3.44-2A.37.37,0,0,0,44,504.53Z" />
        <path class="cls-7" d="M46.61,505.44a.56.56,0,0,1,0-.23c.07-.25.26-.41.16-.7a.61.61,0,0,0-.52-.39c-.31,0-1.06.11-1.07.52s.52.22.65.4,0,.15,0,.21-.26.57.07.67a.5.5,0,0,1,.16.83,1.38,1.38,0,0,1-1.07.33c-.48,0-.59.74-.1.75a2,2,0,0,0,2-.95,1.33,1.33,0,0,0-.09-1.18C46.68,505.55,46.63,505.5,46.61,505.44Z" />
        <path class="cls-7" d="M51.76,497.38l-.15,4a7.7,7.7,0,0,1-2.79,0l.15-3.94c0-.48-.73-.58-.75-.1q-.16,4.49-.35,9c0,.49.73.59.75.1.06-1.42.11-2.84.17-4.27a8.43,8.43,0,0,0,2.79,0c0,1.36-.1,2.71-.16,4.07,0,.48.73.58.75.1q.18-4.43.34-8.85C52.53,497,51.78,496.9,51.76,497.38Z" />
        <path class="cls-7" d="M54.1,505.56l-.19-.3,0,0c.83-.77-.37-2-1.05-1.08-.34.43-.07.85.2,1.23-.6.66-.49,2.06.62,2a.81.81,0,0,0,.71-1A2.88,2.88,0,0,0,54.1,505.56Zm-.77-1.08a.25.25,0,0,1,.16-.11h.07c.12,0,.15.14.13.25a.53.53,0,0,1-.16.23l0,0a0,0,0,0,1,0,0s0,0-.05,0a.25.25,0,0,1-.08-.1A.31.31,0,0,1,53.33,504.48Zm.46,2c-.12.2-.33.15-.44,0a.62.62,0,0,1,.12-.66l0-.05a1.21,1.21,0,0,1,.25.3A.44.44,0,0,1,53.79,506.51Z" />
        <path class="cls-7" d="M60.71,499.39a4.23,4.23,0,0,0-.13-.51c-.6-1.8-2.59-2.31-3.7-.63A10.59,10.59,0,0,0,55.62,504c0,1.66,1.06,4.33,3.13,2.74C60.66,505.27,61.11,501.58,60.71,499.39ZM60,502.12a8.58,8.58,0,0,1-.43,1.8,9.41,9.41,0,0,1-.6,1.43,3,3,0,0,1-.23.35,1.85,1.85,0,0,1-1.07.77.82.82,0,0,1-.38,0,.9.9,0,0,1-.45-.39c-.81-1.22-.44-3.08-.19-4.42a8.91,8.91,0,0,1,.95-3.08c.47-.57,1.21-1.12,2-.22a2.56,2.56,0,0,1,.4,1.14A8.29,8.29,0,0,1,60,502.12Z" />
        <path class="cls-7" d="M62.54,504.21a.71.71,0,0,0-1.07,0c-.12.16-.13.46.12.49h.19l.08,0a.2.2,0,0,1,.17,0c.31.25-.45.46-.55.58a.33.33,0,0,0,.05.45c.13.1.37.1.38.28a.43.43,0,0,1-.16.37.9.9,0,0,1-.89.15c-.44-.2-.73.5-.29.7a1.55,1.55,0,0,0,1.81-.39,1.21,1.21,0,0,0,.07-1.4A.86.86,0,0,0,62.54,504.21Z" />
        <path class="cls-7" d="M42.84,460a54.62,54.62,0,0,1-12.6,23.08c-.47.52.38,1.2.84.69a56,56,0,0,0,12.84-23.6C44.09,459.48,43,459.32,42.84,460Z" />
        <path class="cls-7" d="M55.71,479A43,43,0,0,1,38,491.27a.54.54,0,0,0,.4,1,44.19,44.19,0,0,0,18.16-12.57C57,479.18,56.17,478.5,55.71,479Z" />
        <path class="cls-7" d="M45,476.21c.35-.61-.64-1-1-.44a36.82,36.82,0,0,1-8.42,10.09c-.53.45.1,1.32.64.87A38.28,38.28,0,0,0,45,476.21Z" />
        <path class="cls-7" d="M16.7,453.47a1.62,1.62,0,0,0,.56,2.68,2.43,2.43,0,0,0,3-1.32,1.74,1.74,0,0,0-1-2.5,1.58,1.58,0,0,0-2,1.27.32.32,0,0,0,.64.06.92.92,0,0,1,1.18-.71c.73.13.89.89.67,1.51a1.79,1.79,0,0,1-1.57,1.19c-.85.06-1.91-.92-1.06-1.69.31-.27-.11-.76-.41-.49Z" />
        <path class="cls-7" d="M10.14,448.57a1.49,1.49,0,0,0,.31,1.9,1.39,1.39,0,0,0,1.79-2.12,1.48,1.48,0,0,0-1.91,0c-.31.27.1.76.41.49.64-.57,1.72.18,1.17,1s-1.73-.06-1.25-.85c.22-.35-.31-.72-.52-.37Z" />
        <path class="cls-7" d="M18,459a3,3,0,0,0,1.23,5.18,2.94,2.94,0,0,0,3.41-1.7l0-.09c1.15-2.65-2.05-5.09-4.39-3.6A1.94,1.94,0,0,0,18,459Zm3.6,2.85c-1,2.5-4.62.32-3.17-1.62a1.27,1.27,0,0,0,.18-.27l.14-.08A1.81,1.81,0,0,1,21.63,461.89Z" />
        <path class="cls-7" d="M11.42,457.23c-.72,1.31.22,3.53,1.93,3.14a1.82,1.82,0,0,0,1.23-2c-.12-1.36-1.35-2.7-2.69-1.69A1.73,1.73,0,0,0,11.42,457.23Z" />
    </g>
</svg>