<svg id="Layer_1" data-name="Layer 1" xmlns="http://www.w3.org/2000/svg" viewBox="0 0 238.51 516.46">
    <defs>
        <style>.cls-1,.cls-2,.cls-3{fill:none;stroke:#afafaf;stroke-miterlimit:10;stroke-width:0.5px;}.cls-2{stroke-dasharray:3.01 3.01;}.cls-3{stroke-dasharray:3;}.cls-4{fill:#e5e5e5;}.cls-5{fill:#007F80;opacity:0.4;}.cls-6,.cls-8{opacity:0.5;}.cls-7,.cls-8{fill:#aaa;}</style>
    </defs>
    <line class="cls-1" x1="9.24" y1="440.77" x2="9.24" y2="439.27" />
    <line class="cls-2" x1="9.24" y1="436.26" x2="9.24" y2="95" />
    <line class="cls-1" x1="9.24" y1="93.5" x2="9.24" y2="92" />
    <line class="cls-3" x1="67.28" y1="507.23" x2="226.64" y2="507.23" />
    <circle class="cls-4" cx="9.12" cy="90.64" r="1.55" />
    <circle class="cls-4" cx="226.42" cy="506.94" r="1.55" />
    <path class="cls-5" d="M0,342.14S26.92,373,16.92,422c-10.3,50.5-1.11,86.66,27.95,85.83s130.76-17.91,193.4,8.63H0Z" />
    <g class="cls-6">
        <path class="cls-7" d="M57.85,482a46.52,46.52,0,0,1-13.36,18c-.45.38.18,1.06.64.68a47.65,47.65,0,0,0,13.61-18.42C59,481.74,58.08,481.48,57.85,482Z" />
        <path class="cls-7" d="M66.47,499.61a36.64,36.64,0,0,1-16.4,8.26c-.58.12-.36,1,.22.9a37.84,37.84,0,0,0,16.82-8.48C67.55,499.9,66.92,499.22,66.47,499.61Z" />
        <path class="cls-7" d="M57.77,496c.37-.47-.42-1-.78-.49a31.41,31.41,0,0,1-8.3,7.54c-.5.31-.07,1.13.44.81A32.38,32.38,0,0,0,57.77,496Z" />
        <path class="cls-7" d="M44.11,455.73c.13.5.91.36.78-.14q-.26-1.44,1.41-1a1,1,0,0,1,.37,1.32,1.46,1.46,0,0,1-1.42,1.23,2.22,2.22,0,0,1-2.39-1.83,3.44,3.44,0,0,1,3.59-4c.51,0,.59-.79.07-.8A4.37,4.37,0,0,0,42.05,454a3.23,3.23,0,0,0,3.18,4c1.75-.12,3.25-2.26,1.84-3.74A1.71,1.71,0,0,0,44.11,455.73Z" />
        <path class="cls-7" d="M29.72,453.35c.52-1.15,1.05-2.3,1.58-3.45.22-.46-.54-.71-.75-.25L29,453.1C28.75,453.56,29.5,453.81,29.72,453.35Z" />
        <path class="cls-7" d="M34,447.81a26.54,26.54,0,0,0-2.74,5.83.4.4,0,0,0,.76.25,25.37,25.37,0,0,1,2.64-5.63C34.94,447.82,34.28,447.38,34,447.81Z" />
        <path class="cls-7" d="M35.22,450.75l-1.63,3.43c-.22.46.54.71.75.25.55-1.14,1.09-2.28,1.64-3.43C36.2,450.54,35.44,450.29,35.22,450.75Z" />
        <path class="cls-7" d="M35.35,453.38c-.35.37.16,1,.52.6S35.7,453,35.35,453.38Z" />
    </g>
    <path class="cls-8" d="M10.1,467.13a25.57,25.57,0,0,0-1.46,16.36c1.4,5.28,5.28,9.54,9.93,12.24a25.28,25.28,0,0,0,7.5,2.9c1,.23,2.1.44,3.17.58a.43.43,0,0,0,0,.16,5.51,5.51,0,0,1-1.36,3.18h-.1a24.92,24.92,0,0,0-6.48.87c-.75.2-2.15.51-2.7,1.26a.35.35,0,0,0-.16.16c-1.24,2.09,1.14,3.91,2.83,4.71,2.63,1.25,5.77,1.41,8.64,1.39a34.81,34.81,0,0,0,8.62-1.14,12.47,12.47,0,0,0,3.57-1.17c.77-.53.9-1.75,1-2.6a1.7,1.7,0,0,0-.32-1.15c-.73-1.12-2.67-1.47-3.85-1.76a29.18,29.18,0,0,0-5.17-.84,7.85,7.85,0,0,1-1.12-2.86c.54,0,1.07-.06,1.61-.13a22.17,22.17,0,0,0,7-2.16,16.25,16.25,0,0,0,5.34-4.83c.1-.13.27-.35.22-.53a.57.57,0,0,0-.11-.16A7.49,7.49,0,0,0,45,490.36a.48.48,0,0,0-.29-.11c-.18,0-.27.26-.35.38s-.29.39-.44.58l-1.35-1.37a18.41,18.41,0,0,0,4.78-6.47,17.17,17.17,0,0,0,.63-1.69,18.35,18.35,0,0,0-6-19.37,18.45,18.45,0,0,0-20.36-1.41l-1.23-1.63a16,16,0,0,1,1.92-1c.35-.15.7-.29,1.06-.41s.74-.13.59-.57-.32-.81-.5-1.21a2.32,2.32,0,0,0-.54-.91l0,0a.57.57,0,0,0-.27-.13c-.26,0-.72.26-1,.36s-.72.31-1.07.48A19.56,19.56,0,0,0,18.54,457a20.75,20.75,0,0,0-3.61,2.93A23.71,23.71,0,0,0,10.1,467.13ZM12,465.26a12.16,12.16,0,0,1,.69,2.06l-.11.24a14.21,14.21,0,0,0-.6-1.81.14.14,0,0,0-.21-.07C11.8,465.54,11.88,465.4,12,465.26Zm.36-.62c.19.69.37,1.4.61,2.08l-.1.2a12.36,12.36,0,0,0-.7-2Zm.25-.42a7.22,7.22,0,0,1,.68,1.85l-.15.29c-.22-.67-.39-1.36-.58-2.05A.41.41,0,0,0,12.57,464.22Zm.31-.47c.24.59.46,1.18.66,1.78l-.09.18a7.62,7.62,0,0,0-.69-1.73l0,0Zm.93,1.32-.09.14c-.2-.58-.42-1.16-.65-1.73l.14-.21C13.42,463.86,13.63,464.46,13.81,465.07Zm-.28-2.24c.19.6.37,1.2.53,1.8h0l-.06.11c-.19-.59-.38-1.17-.6-1.75Zm.35-.46.53,1.73-.15.23c-.16-.6-.34-1.19-.53-1.78Zm.33-.42.45,1.77-.05.08c-.18-.56-.35-1.13-.53-1.69A1.83,1.83,0,0,0,14.21,462Zm.39-.46.43,1.66a.05.05,0,0,0,0,0l-.18.24c-.14-.58-.29-1.16-.44-1.74Zm.47-.53a8.21,8.21,0,0,1,.4,1.68c-.07.09-.15.18-.22.28l-.43-1.68Zm.45-.46c.1.52.2,1.05.28,1.57a.14.14,0,0,0,.06.1l-.15.17a14.6,14.6,0,0,0-.41-1.61A2.39,2.39,0,0,1,15.52,460.5Zm.44-.43a13.93,13.93,0,0,0,.25,1.7l-.15.17c-.09-.56-.19-1.12-.31-1.68Zm.4-.38c.07.53.14,1.05.22,1.58a.09.09,0,0,0,0,.07l-.17.17a16.13,16.13,0,0,1-.23-1.68Zm.49-.43c.07.54.13,1.07.2,1.61h0l-.22.22-.23-1.62Zm.5-.41a7.68,7.68,0,0,1,.08,1.59.14.14,0,0,0,0,.07l-.15.14c-.07-.54-.13-1.07-.2-1.6Zm.51-.4c.06.48.11,1,.16,1.44a.48.48,0,0,0-.08.18l-.23.2a7.24,7.24,0,0,0-.12-1.61Zm.42-.29q.11.7.27,1.41l-.17.14h-.1l-.16-1.45Zm.5-.34c0,.49.1,1,.12,1.49l-.11.08a13.45,13.45,0,0,1-.26-1.41Zm.5-.33a9.38,9.38,0,0,0,.16,1.4l0,.06-.24.16c0-.49-.08-1-.13-1.46Zm.56,1.18-.06,0-.09,0a9.22,9.22,0,0,1-.14-1.39l.18-.1C19.77,457.71,19.8,458.19,19.84,458.67Zm.43-1.75c0,.48.06.95.1,1.43l-.27.15c0-.48-.07-.95-.1-1.42Zm2.16.42c0-.43,0-1,0-1.38l.1,0,.39.9v.34Zm-.47.16a10.84,10.84,0,0,0-.11-1.33l.27-.11c0,.41,0,1,0,1.4l-.2.08A.05.05,0,0,0,22,457.5Zm-.42.22a13.3,13.3,0,0,1,0-1.41h0l.05,0a10.55,10.55,0,0,1,0,1.37C21.63,457.74,21.54,457.72,21.54,457.72Zm-.43-1c0-.18-.27-.16-.28,0A6.21,6.21,0,0,0,20.9,458l-.27.15-.09-1.4.73-.36a7.48,7.48,0,0,0,0,1.42l-.12.06A5.8,5.8,0,0,1,21.11,456.73Zm3.8,6.14a6.52,6.52,0,0,1,2.59,2.59l1.83,2.71A13.63,13.63,0,0,0,31,470.5a5.35,5.35,0,0,1,.51.55,1.31,1.31,0,0,0,.3.32.4.4,0,0,0,.42.05c.19-.1.22-.38.42-.49a.39.39,0,0,1,.42.07.53.53,0,0,1,.17.5c-.08.38-.56.49-.88.57s-.39.11-.58.18a2.06,2.06,0,0,0-.82.54c-.22.29-.17.56-.32.86-.67,1.32-1.71.77-2.69.31s-3.45-.87-3.24.75c-.93.55-2.22,1.74-1.31,2.78a1,1,0,0,0,1.24.22c.46-.15.85-.57,1.31-.76a7.08,7.08,0,0,1,1.76-.43,11,11,0,0,1,3.34-.08c.95.17,2.33.83,1.49,2.12a3,3,0,0,1-1.94,1c-1,.18-2.89.21-2.88,1.57a2.42,2.42,0,0,0-1.94.64,2.94,2.94,0,0,0-.27,2.79c.19.64.52,1.23.66,1.88s.31,1.18-.12,1.76a7.87,7.87,0,0,1-1.35-.69,10.26,10.26,0,0,1-2.84-3.94c-.6-1.28-1.78-3.34-1.13-4.77.43-.93,2.06-.89,2.23-2a1.06,1.06,0,0,0-.89-1.18,8,8,0,0,0-2.2.23.53.53,0,0,1-.39-.07.47.47,0,0,1-.1-.51,2.33,2.33,0,0,1,2.9-1.24.42.42,0,0,0,.56-.34,1.88,1.88,0,0,0-2.7-1.55c-1.58.57-2.3,2.27-2.57,3.85-.3-.54,0-2.15-.2-2.59a1.17,1.17,0,0,0-.9-.85.42.42,0,0,0-.48.14,12.37,12.37,0,0,1-.93,1.14c-.26,0-.18-.49-.23-.63a2.17,2.17,0,0,0-.3-.85,1.29,1.29,0,0,0-.19-.21,18.92,18.92,0,0,1,.79-2.18,16.92,16.92,0,0,1,6.25-7.79C22.45,461.53,23.91,462.35,24.91,462.87Zm13.44-.3a3.83,3.83,0,0,1-1.91,1,2.5,2.5,0,0,0-1.61,1c-.59,1,.51,1.22,1.21,1.37a6.61,6.61,0,0,1,2.85,1.23c.94.71,3.36,2.47,2.17,3.78-.52.57-1.05,1.14-1.55,1.74-.36.42-.71.86-1,1.32a2.62,2.62,0,0,0-.65,1.41,2.44,2.44,0,0,1,0,.27,5.4,5.4,0,0,1-.1.58.82.82,0,0,0,.08.58.4.4,0,0,0,.52.14c.14-.09.18-.28.24-.43.3-.7,1.44-1.09,2.08-1.4a2,2,0,0,1,2.12,0,4.58,4.58,0,0,1,.93.88.83.83,0,0,1,.11,1,1,1,0,0,1-.7.42,7.44,7.44,0,0,0-.78.2c-.61.16-1.45.37-1.27,1.16,0,.14.08.3,0,.41a.3.3,0,0,1-.23.08.9.9,0,0,1-.23-.08.81.81,0,0,0-.7-.11c-.25.08-.51.14-.76.23a5.29,5.29,0,0,0-1.45.81,8.28,8.28,0,0,0-2.12,2.62c-.4.74-1.29,1.95-.54,2.74a1.47,1.47,0,0,0,1,.4,2,2,0,0,0,.53-.11h.31a.12.12,0,0,0,.05.05c1.72,1.27.27,4.16,1.83,5.72a16.76,16.76,0,0,1-9.95,1.84c-7.3-.95-14.18-7.05-15.14-14.51a17.38,17.38,0,0,1,.31-5.22,5.34,5.34,0,0,0,.25.87,1,1,0,0,0,.47.42c.72.25,1.32-.75,1.73-1.36.74.74-.61,3.56,1.53,3.5a.4.4,0,0,0,.35-.36,5.57,5.57,0,0,1,.88-2.69c.34-.49,2.29-1.72,2.73-.81-1.46-.17-3.24.66-3.23,2.32,0,.84.66,1.2,1.41,1.2a3.59,3.59,0,0,0,.73-.12c.1,0,1.42-.27,1.2.14-.33.59-1.09.57-1.55,1-1.69,1.52-.22,4.43.52,6.05.87,1.89,2.59,5,4.91,5.41a.84.84,0,0,0,.83-.48,3.57,3.57,0,0,0,.23-2.3c-.37-1.75-2-4.4,1.17-4.37.23,0,.52-.19.45-.47-.28-1.08,2.51-1.15,3.13-1.4a3.23,3.23,0,0,0,1.55-1.2,2,2,0,0,0-.75-2.82c-1.34-.8-3.26-.59-4.73-.41a7.61,7.61,0,0,0-2.56.69c-.09,0-.79.5-.81.49-1.17-.33.64-1.43.91-1.55a.42.42,0,0,0,.22-.54c-.33-1,2.09,0,2.29.06a5.43,5.43,0,0,0,1.16.44,2.42,2.42,0,0,0,1.75-.26c.53-.36.51-.74.7-1.27.34-1,1.31-.77,2.05-1.25a1.36,1.36,0,0,0,.12-2.29,1.18,1.18,0,0,0-.75-.22c-.3,0-.41.16-.63.34a.32.32,0,0,1-.24.08c-.09,0-.12-.14-.16-.23a3.14,3.14,0,0,0-.6-.71,9.33,9.33,0,0,1-.69-1L29,466.28c-.85-1.27-1.62-2.9-3-3.73a8.62,8.62,0,0,0-3.31-1.31,15.56,15.56,0,0,1,1.43-.68,17.25,17.25,0,0,1,5.45-1.21,17.79,17.79,0,0,1,4.55.3,18.4,18.4,0,0,1,2.21.58c.36.12.71.25,1.07.4a2.36,2.36,0,0,1,.47.16c.14.09.21.25.36.35C38.89,461.54,38.79,462.1,38.35,462.57Zm8.24,20.51a9.79,9.79,0,0,0-.54-1c-.37-.61-1.26-1.33-1.39-2s.67-1.33,1.1-1.87a12,12,0,0,0,1.12-1.71,3.77,3.77,0,0,0,.5-1.55c0-.56-.16-1.07-.1-1.64a4,4,0,0,1,.18-.76A16.73,16.73,0,0,1,46.59,483.08Zm-7.11,8a.44.44,0,0,0-.09-.11c-1.12-.94-.78-3-1-4.33a2.13,2.13,0,0,0-1-1.69c-.4-.19-.81-.06-1.22-.16-.67-.17-.51-.1-.37-.73A6.42,6.42,0,0,1,37,481.87a4.46,4.46,0,0,1,4.27-2,.42.42,0,0,0,.37-.66c-.55-.78,1.89-1.06,2.28-1.27a1.54,1.54,0,0,0,.8-1c.36-1.22-.87-2.33-1.85-2.78a3.29,3.29,0,0,0-3.19.5c-.13.07-.4.35-.56.29a.2.2,0,0,1-.08-.26,1.15,1.15,0,0,1,.19-.26c.26-.32.45-.71.72-1q.86-1,1.77-2c1.3-1.44.21-2.54-.92-3.67a11.3,11.3,0,0,0-2.46-1.95,4.14,4.14,0,0,0-.84-.35c-.4-.12-.84,0-1.22-.12a.39.39,0,0,1-.28-.45.46.46,0,0,1,.13-.18,4.15,4.15,0,0,1,.86-.76c.9-.52,1.51.11,2.16-1a2.24,2.24,0,0,0,.33-1.25,15.48,15.48,0,0,1,3.93,3.16,16.63,16.63,0,0,1,1.91,2.57q.42.69.78,1.41a9.09,9.09,0,0,1,.58,1.17,3.09,3.09,0,0,1,.21,1.56c-.08.51-.3,1-.39,1.51-.13.73.07,1.43-.06,2.16-.27,1.52-1.43,2.45-2.26,3.66-.4.58-.71,1.15-.33,1.8s.94,1,1.32,1.6a9.24,9.24,0,0,1,.95,1.85A17.41,17.41,0,0,1,39.48,491.06Zm2.34.38-.06,0-.48-.61.09-.06h0a4.45,4.45,0,0,0,.43.61Zm.2,1.68a16.1,16.1,0,0,1-10.15,3.13A22.75,22.75,0,0,1,18.06,491c-4.06-3.22-6.54-7.27-6.75-12.51-.25-6.39,2.13-13.46,7-17.7l1.16,1.64a18.93,18.93,0,0,0-4.58,6,19.54,19.54,0,0,0-.94,2.21,19.31,19.31,0,0,0-1.17,7.6c0,.21,0,.42.05.63,1.15,8.82,9.91,15.55,18.6,15.34a17.38,17.38,0,0,0,9.16-2.92ZM18,492l.13.1-.23-.1A.12.12,0,0,0,18,492Zm13.93,6.63h-.54c-1.08-.69-2.14-1.38-3.24-2l1.09.19C30.12,497.38,31,498,31.9,498.62Zm-2.06-1.75.84.09a16.05,16.05,0,0,1,2.17,1.64l-.48,0C31.53,498,30.69,497.44,29.84,496.87Zm15.67-5.25a2.89,2.89,0,0,1-.55-.29l-.07,0,.09-.12Zm0,.64a7.67,7.67,0,0,0-.91-.53l.18-.24a.18.18,0,0,0,.06.09,3.77,3.77,0,0,0,.89.41Zm-.34.4-.9-.53.15-.18a7,7,0,0,1,.91.53Zm-.2.24a8.68,8.68,0,0,1-1-.45l.1-.11.9.53Zm-.26.29a4.82,4.82,0,0,1-1-.49l0,0c.32.17.65.32,1,.46Zm-.28.3-1-.45.13-.14a4.31,4.31,0,0,0,1,.5Zm-.38.4a9.06,9.06,0,0,1-1-.54l.12-.11,1,.46Zm-.45.44c-.33-.2-.66-.38-1-.55l.27-.21,0,0c.31.2.63.38,1,.55Zm-.42.39L42,494.24l.35-.27c.35.17.7.35,1,.55Zm-.39.32a5,5,0,0,1-1.1-.58l0,0c.4.18.8.34,1.2.5Zm-.54.42-1.16-.61.36-.22a5.07,5.07,0,0,0,1.09.61Zm-.43.31-1.21-.64.21-.12c.39.22.78.43,1.18.63Zm-.53.33a8.09,8.09,0,0,1-1.33-.63l.36-.18,1.23.65A2.26,2.26,0,0,1,41.28,496.1Zm-.54.31c-.45-.22-.9-.45-1.33-.69l.23-.11a8.72,8.72,0,0,0,1.33.67Zm-.83.4a10.91,10.91,0,0,0-1.19-.82l.38-.14,0,0c.42.24.86.47,1.3.69Zm-1.73-.62.21-.07a10.12,10.12,0,0,1,1.23.82l-.26.1A7.07,7.07,0,0,1,38.18,496.19Zm.62,1.07-.32-.21-.91-.67.32-.1a5.61,5.61,0,0,0,1.17.88Zm-.59.22-1.24-1,.27-.06L38,497c.08.06.34.21.54.36Zm-.56.18a12.1,12.1,0,0,1-1.13-1l.11,0,1.26,1Zm-.43.14L36,496.74l.2,0,0,0c.35.36.72.7,1.1,1Zm-.53.15a17.23,17.23,0,0,0-1.33-1.1l.29,0,1.26,1.08Zm-.49.13-1.28-1.17.11,0a.14.14,0,0,0,0,.1,14.31,14.31,0,0,1,1.29,1Zm-.46.1A12.29,12.29,0,0,1,34.36,497h.19l0,0,1.3,1.18Zm-.54.12c-.47-.45-1-.88-1.48-1.29H34a13.75,13.75,0,0,0,1.38,1.26ZM33.05,497h.25c.54.42,1.06.86,1.56,1.33l-.23,0A15.73,15.73,0,0,0,33.05,497Zm1,1.45L32,497h.53a14.67,14.67,0,0,1,1.72,1.41ZM31.27,497h.3a.05.05,0,0,0,0,0l2,1.47-.4,0A24.51,24.51,0,0,0,31.27,497Zm10.16,10.76a.57.57,0,0,1-.18-.12l.45-.24A1.54,1.54,0,0,1,41.43,507.77Zm-.38.3a1.57,1.57,0,0,1-.24-.21l.17-.07.23.17A.91.91,0,0,1,41.05,508.07Zm-.41.21-.3-.23.21-.08a1.88,1.88,0,0,0,.24.25Zm-.51.17-.31-.21.23-.08,0,0,.24.18Zm-.54.17-.29-.21.2-.06h0l.3.21Zm-.78-.08.18-.05a.12.12,0,0,0,0,.07l.22.16-.13,0Zm-.42.42c-.11-.08-.23-.17-.35-.24l.16,0,.27-.06a3.55,3.55,0,0,0,.31.23Zm-.61.16a4.82,4.82,0,0,1-.5-.27l.35-.06c.15.08.28.17.42.26Zm-.67.16a5.7,5.7,0,0,0-.54-.3l.31-.05c.16.1.32.2.49.29l-.11,0Zm-.8.16a4.14,4.14,0,0,0-.62-.35l.39,0c.22.1.42.21.63.32Zm-1,.18-.69-.42.6-.05a.11.11,0,0,0,.07.09,3.46,3.46,0,0,1,.58.28Zm-1,.15-.88-.48.68-.05.74.44Zm-1,.12-.89-.55.56,0a.1.1,0,0,0,.06.09l.78.43Zm-.94.09c-.23-.21-.46-.43-.7-.62H32l.94.58Zm-1,.08-.93-.69h.73a5.49,5.49,0,0,1,.81.65Zm-2.13-.72.72,0,1,.72-.56,0Zm.19.77q-.52-.42-1.08-.81l.52,0a.14.14,0,0,0,.06.14l1,.64Zm-.81,0a9.78,9.78,0,0,0-1-.83h.19a13.89,13.89,0,0,1,1.18.83Zm-1.2-.05-1.12-.88.8.06,0,0a7.22,7.22,0,0,1,1.07.82Zm-1.24-.1a10.31,10.31,0,0,0-.88-.87l.66.06a.11.11,0,0,0,0,.14l.94.74Zm-.81-.1a7.23,7.23,0,0,1-.89-.86l.33,0a9.8,9.8,0,0,1,.95.87Zm-1.05-.17-1-.88.73.13a7.1,7.1,0,0,0,.79.85l-.1,0Zm-1-.21-.93-.9.53.14a.12.12,0,0,0,0,.14l.81.72Zm-.74-.21c-.38-.33-.74-.68-1.11-1l.06,0,.3.11a.16.16,0,0,0,0,.07l.9.87Zm-1.86-.82c-.17-.25-.33-.52-.5-.78l.48.24L22.05,509l-.31-.13A7.08,7.08,0,0,1,20.88,508.44ZM19,506.7a4.36,4.36,0,0,0,.86.66l.47.73A3.9,3.9,0,0,1,19,506.7Zm11-7.24a.41.41,0,0,0,0-.16c.58.06,1.16.1,1.74.11v.1a8.44,8.44,0,0,0,4.86,6.28c.48.23.78-.54.3-.76a7.62,7.62,0,0,1-2.52-1.86,29.11,29.11,0,0,1,3.72.6c.45.1.91.18,1.36.29a8.07,8.07,0,0,1,1.72.57c.48.23,1,.55.9,1.16a1.15,1.15,0,0,1-.42.79,6.59,6.59,0,0,1-3,1.2,26.78,26.78,0,0,1-2.66.43,45.86,45.86,0,0,1-9.73.12,16,16,0,0,1-3.58-.56c-.74-.25-3.89-1.44-3.5-2.57.31-.91,3.17-1.22,3.93-1.37a28.68,28.68,0,0,1,3.93-.47,19.94,19.94,0,0,1-2.93,2.08c-.46.28.06.92.5.65C27.14,504.53,29.75,502.67,30,499.46Zm-3.88-3.36,1.08.29c1.24.68,2.42,1.44,3.61,2.2l-.43,0C29,497.66,27.57,496.89,26.13,496.1ZM29,498.43c-2.12-1.31-4.27-2.55-6.49-3.66a23.68,23.68,0,0,0,2.26.91c1.66.94,3.38,1.81,5,2.83ZM17,493.7q4.15,1.79,8.15,3.93c-.41-.11-.82-.24-1.22-.37a44,44,0,0,0-5.47-2.57C17.94,494.38,17.45,494.05,17,493.7Zm-1.45-1.14a79.71,79.71,0,0,1,11.52,5.54l-.84-.19A99.59,99.59,0,0,0,16.12,493Zm-.79-.72a63.05,63.05,0,0,1,13.62,6.49l-.49-.07a80.15,80.15,0,0,0-12.58-6.09.14.14,0,0,0-.15,0Zm-1.15-1.18a50.87,50.87,0,0,1,5.48,2.19h.1l.31.22a24.06,24.06,0,0,0,2.1,1.23,51.38,51.38,0,0,0-7.27-2.88Zm-1-1.19A26.36,26.36,0,0,1,17.85,492c-1.52-.65-3.09-1.17-4.63-1.75C13,490,12.8,489.73,12.6,489.47Zm-.66-.91a26.53,26.53,0,0,1,4.32,2l.54.47a25.24,25.24,0,0,0-4.49-2Zm-.89-1.44,4.23,2.51h0l.19.2a26.13,26.13,0,0,0-3.8-1.65C11.46,487.83,11.25,487.48,11.05,487.12Zm-.5-1c.5.26,1,.53,1.5.83.65.38,1.26.87,1.94,1.19.21.26.42.51.64.76l-3.83-2.27C10.71,486.48,10.63,486.31,10.55,486.14Zm-.43-1a23.4,23.4,0,0,1,3,1.79c.15.23.3.45.46.67-.48-.29-.94-.64-1.42-.92s-1.2-.68-1.82-1C10.27,485.55,10.2,485.36,10.12,485.18Zm-.31-.82A31.78,31.78,0,0,1,12.55,486c.07.12.13.24.2.35A24.56,24.56,0,0,0,10,484.8C9.91,484.65,9.86,484.5,9.81,484.36Zm-.3-.94a27,27,0,0,1,2.61,1.81,2.1,2.1,0,0,0,.13.26c-.84-.55-1.71-1-2.58-1.53C9.62,483.78,9.56,483.6,9.51,483.42Zm-.18-.64a20.51,20.51,0,0,1,2.4,1.61l.12.28A26.81,26.81,0,0,0,9.4,483C9.38,483,9.35,482.87,9.33,482.78Zm-.12-.54a14.09,14.09,0,0,1,2.23,1.43l.08.21a19.93,19.93,0,0,0-2.27-1.46A1.16,1.16,0,0,0,9.21,482.24Zm-.12-.6c.7.42,1.4.85,2.08,1.3h0c0,.08.06.16.08.25a13.78,13.78,0,0,0-2.14-1.31C9.12,481.81,9.11,481.72,9.09,481.64ZM9,481c.7.45,1.35,1,2.06,1.39,0,0,0,.1,0,.15-.68-.43-1.36-.86-2.05-1.27H9C9,481.2,9,481.11,9,481Zm-.09-.77c.63.56,1.33,1.06,2,1.57,0,.07,0,.14,0,.21-.68-.44-1.32-.94-2-1.36C8.93,480.53,8.91,480.39,8.9,480.25Zm-.08-.81c.65.53,1.28,1.08,1.93,1.62,0,.12.05.23.07.35a23,23,0,0,1-2-1.57Zm0-.69c.61.56,1.25,1.09,1.87,1.63,0,.09,0,.18,0,.27L8.8,479.06C8.79,479,8.79,478.85,8.78,478.75Zm0-.83c.59.58,1.2,1.13,1.8,1.7,0,.12,0,.23,0,.35-.62-.53-1.24-1.05-1.83-1.61C8.77,478.21,8.76,478.07,8.76,477.92Zm0-.67c.58.63,1.17,1.25,1.76,1.87v.09c-.59-.56-1.19-1.1-1.76-1.67Zm0-.75c.57.66,1.12,1.33,1.7,2,0,.08,0,.15,0,.23l-1.72-1.85C8.77,476.74,8.78,476.62,8.78,476.5Zm.05-.73c.54.68,1.08,1.36,1.63,2a1.93,1.93,0,0,0,0,.24c-.57-.64-1.1-1.3-1.67-1.93Zm.05-.62c.56.63,1.08,1.3,1.58,2v.22c-.54-.66-1.08-1.32-1.6-2C8.87,475.3,8.87,475.22,8.88,475.15Zm.07-.63c.5.62,1,1.21,1.53,1.83,0,.11,0,.23,0,.34-.49-.66-1-1.3-1.55-1.91Zm.08-.61c.49.54,1,1.06,1.51,1.6,0,.15,0,.29,0,.43-.5-.6-1-1.18-1.51-1.8Zm.1-.64c.44.61,1,1.17,1.45,1.75a.57.57,0,0,1,0,.13c-.49-.53-1-1-1.48-1.6C9.1,473.46,9.12,473.37,9.13,473.27Zm.16-.79,1.33,1.92,0,0,0,.22a21.43,21.43,0,0,1-1.42-1.76Zm.16-.74L10.72,474s0,.05,0,.08l-1.3-1.87s0,0,0,0Zm.18-.71c.4.69.79,1.38,1.18,2.07l0,0-.06.38-1.25-2.17Zm.17-.62c.37.7.79,1.38,1.18,2.07a2.38,2.38,0,0,0-.05.26c-.38-.67-.76-1.34-1.15-2a.13.13,0,0,0-.06-.05C9.75,470.6,9.77,470.51,9.8,470.41Zm.19-.62,1.08,2.1s0,0,0,0a.57.57,0,0,1,0,.14c-.39-.67-.79-1.33-1.15-2h0C9.94,470,10,469.87,10,469.79Zm.22-.65c.36.71.72,1.41,1,2.14,0,.08,0,.17-.07.26-.35-.7-.7-1.39-1.06-2.08l0,0C10.14,469.33,10.17,469.24,10.21,469.14Zm.25-.69c.35.73.68,1.45,1,2.2l-.06.22c-.32-.7-.68-1.39-1-2.08Zm.27-.65c.27.69.55,1.38.83,2.07a.13.13,0,0,0,.08.08,2.76,2.76,0,0,1-.08.27c-.3-.71-.62-1.41-1-2.11C10.64,468,10.68,467.9,10.73,467.8Zm.28-.65a14.31,14.31,0,0,1,.84,2.17c0,.1-.07.2-.1.29l-.87-2.17C10.92,467.34,11,467.25,11,467.15Zm.34-.72c.26.74.53,1.48.73,2.25h0l-.07.21a19.56,19.56,0,0,0-.85-2.07C11.22,466.69,11.28,466.56,11.35,466.43Zm.17-.34.15-.3v0a14.37,14.37,0,0,1,.66,2,.1.1,0,0,0,.07.08l-.15.37C12,467.53,11.78,466.81,11.52,466.09Z" />
    <g class="cls-6">
        <path class="cls-7" d="M19.87,454.67c0,.39.6.45.62.05a20.45,20.45,0,0,0-4.82-14.17c-.26-.3-.73.09-.48.39A19.78,19.78,0,0,1,19.87,454.67Z" />
        <path class="cls-7" d="M14.76,446.29c-.22-.33-.69.07-.47.4a10.76,10.76,0,0,1,1.77,5.49c0,.4.63.29.61-.1A11.43,11.43,0,0,0,14.76,446.29Z" />
        <path class="cls-7" d="M14.07,454.31c.1.38.71.28.61-.11a14.53,14.53,0,0,0-6.19-8.65c-.33-.21-.68.29-.35.51A13.79,13.79,0,0,1,14.07,454.31Z" />
    </g>
</svg>