<svg id="Layer_1" data-name="Layer 1" xmlns="http://www.w3.org/2000/svg" viewBox="0 0 238.51 516.46">
    <defs>
        <style>.cls-1,.cls-2,.cls-3{fill:none;stroke:#afafaf;stroke-width:0.5px;}.cls-1,.cls-2,.cls-3,.cls-9{stroke-miterlimit:10;}.cls-2{stroke-dasharray:3.01 3.01;}.cls-3{stroke-dasharray:3;}.cls-4{fill:#e5e5e5;}.cls-5{fill:#007F80;opacity:0.4;}.cls-6,.cls-8{opacity:0.5;}.cls-10,.cls-7,.cls-8,.cls-9{fill:#aaa;}.cls-9{stroke:#aaa;stroke-width:0.25px;}.cls-10{fill-rule:evenodd;}</style>
    </defs>
    <line class="cls-1" x1="9.24" y1="440.77" x2="9.24" y2="439.27" />
    <line class="cls-2" x1="9.24" y1="436.26" x2="9.24" y2="95" />
    <line class="cls-1" x1="9.24" y1="93.5" x2="9.24" y2="92" />
    <line class="cls-3" x1="67.28" y1="507.23" x2="226.64" y2="507.23" />
    <circle class="cls-4" cx="9.12" cy="90.64" r="1.55" />
    <circle class="cls-4" cx="226.42" cy="506.94" r="1.55" />
    <path class="cls-5" d="M0,342.14S26.92,373,16.92,422c-10.3,50.5-1.11,86.66,27.95,85.83s130.76-17.91,193.4,8.63H0Z" />
    <g class="cls-6">
        <path class="cls-7" d="M5,447.2a59.28,59.28,0,0,1,13.2,17.06c.26.5-.48,1-.74.47a58.61,58.61,0,0,0-13.06-16.9C4,447.46,4.6,446.82,5,447.2Z" />
        <path class="cls-7" d="M20.23,462.57a25.46,25.46,0,0,0-4-7c-.36-.44.39-.89.74-.46a26.26,26.26,0,0,1,4.14,7.23C21.27,462.84,20.43,463.09,20.23,462.57Z" />
        <path class="cls-7" d="M23.42,461a40.55,40.55,0,0,0-5.75-15.31.44.44,0,0,1,.74-.46,41.12,41.12,0,0,1,5.85,15.52C24.34,461.29,23.51,461.54,23.42,461Z" />
    </g>
    <path class="cls-8" d="M37.41,508.81a4.12,4.12,0,0,1,.7.54,2.75,2.75,0,0,0,1.45.82,2.49,2.49,0,0,0,1.84-.76,2,2,0,0,1,1.37-.64,2.38,2.38,0,0,1,1,.55,2.45,2.45,0,0,0,1.53.68,2.19,2.19,0,0,0,1.25-.59l.16-.13c.18-.13.64-.43,1-.25a.31.31,0,0,0,.45-.12.35.35,0,0,0-.15-.47,1.53,1.53,0,0,0-1.69.28l-.18.14a1.64,1.64,0,0,1-.88.46,1.91,1.91,0,0,1-1.08-.53,2.93,2.93,0,0,0-1.33-.69,2.44,2.44,0,0,0-1.85.76,2,2,0,0,1-1.37.64,2.23,2.23,0,0,1-1.07-.66,5.13,5.13,0,0,0-.83-.62,2.19,2.19,0,0,0-2.83.59.35.35,0,0,0,0,.42s0,0,.07.06a.31.31,0,0,0,.46-.06A1.56,1.56,0,0,1,37.41,508.81Z" />
    <path class="cls-8" d="M19.61,508.81a4.12,4.12,0,0,1,.7.54,2.75,2.75,0,0,0,1.45.82,2.49,2.49,0,0,0,1.84-.76,2,2,0,0,1,1.37-.64,2.38,2.38,0,0,1,1,.55,2.45,2.45,0,0,0,1.53.68,2.19,2.19,0,0,0,1.25-.59l.16-.13c.18-.13.64-.43,1-.25a.31.31,0,0,0,.45-.12.35.35,0,0,0-.15-.47,1.53,1.53,0,0,0-1.69.28l-.18.14a1.64,1.64,0,0,1-.88.46,1.91,1.91,0,0,1-1.08-.53A2.93,2.93,0,0,0,25,508.1a2.44,2.44,0,0,0-1.85.76,2,2,0,0,1-1.37.64,2.23,2.23,0,0,1-1.07-.66,5.13,5.13,0,0,0-.83-.62,2.19,2.19,0,0,0-2.83.59.35.35,0,0,0,0,.42s0,0,.07.06a.31.31,0,0,0,.46-.06A1.56,1.56,0,0,1,19.61,508.81Z" />
    <path class="cls-8" d="M15.22,502.34c0,.21.39.16.33,0-.07-.41.13-.56.6-.44a.42.42,0,0,1,.16.56.62.62,0,0,1-.61.52.93.93,0,0,1-1-.77,1.46,1.46,0,0,1,1.52-1.69c.22,0,.25-.34,0-.34a1.85,1.85,0,0,0-1.89,1.46,1.37,1.37,0,0,0,1.35,1.69c.74,0,1.37-1,.77-1.59A.72.72,0,0,0,15.22,502.34Z" />
    <path class="cls-8" d="M41.41,488.55c.08.33.59.24.51-.09-.11-.63.2-.85.92-.67a.62.62,0,0,1,.24.86,1,1,0,0,1-.93.81,1.44,1.44,0,0,1-1.56-1.19,2.26,2.26,0,0,1,2.35-2.62c.33,0,.38-.51.05-.52a2.86,2.86,0,0,0-2.93,2.26A2.12,2.12,0,0,0,42.14,490c1.15-.08,2.13-1.49,1.2-2.46A1.12,1.12,0,0,0,41.41,488.55Z" />
    <g class="cls-6">
        <path class="cls-7" d="M30.13,501a4.42,4.42,0,1,1,5,3.73A4.43,4.43,0,0,1,30.13,501Zm.88-.13a3.53,3.53,0,1,0,3-4A3.54,3.54,0,0,0,31,500.84Z" />
        <path class="cls-7" d="M29.23,498.41l-9-.47a.42.42,0,0,1-.34-.19l-4.51-6.48a.44.44,0,0,1-.05-.43.44.44,0,0,1,.34-.26l19.23-2.81a.45.45,0,0,1,.45.66l-5.72,9.77a.45.45,0,0,1-.32.21Zm-12.72-7.06,4,5.72,8.52.45,5.11-8.74Zm3.74,6.15h0Z" />
        <path class="cls-7" d="M14.93,491.58l21-3.06a.45.45,0,0,0,.38-.5.44.44,0,0,0-.5-.37l-21,3.06a.44.44,0,0,0-.37.5A.43.43,0,0,0,14.93,491.58Z" />
        <path class="cls-7" d="M22.31,504.79a1.61,1.61,0,0,0,1.33-1.21l.82-3.45,10,.64a.44.44,0,1,0,.05-.88l-10.38-.67a.45.45,0,0,0-.46.34l-.91,3.81a.72.72,0,0,1-1.38.05l-1.34-4.18a.6.6,0,0,0-.09-.15l-8.08-9.53a.44.44,0,0,0-.4-.15l-2.19.32a.44.44,0,1,0,.13.87l1.94-.28,7.87,9.28,1.32,4.09A1.59,1.59,0,0,0,22.31,504.79Z" />
        <path class="cls-7" d="M31.88,500.71a2.65,2.65,0,1,1,3,2.24A2.66,2.66,0,0,1,31.88,500.71Zm.88-.13a1.76,1.76,0,1,0,1.49-2A1.77,1.77,0,0,0,32.76,500.58Z" />
        <path class="cls-7" d="M34.57,500.77a.67.67,0,0,0,.18-.07.45.45,0,0,0,.12-.62l-3.54-5.28a.44.44,0,0,0-.73.49l3.54,5.28A.45.45,0,0,0,34.57,500.77Z" />
        <line class="cls-7" x1="15.26" y1="494.21" x2="17.71" y2="493.86" />
        <path class="cls-7" d="M15.32,494.65l2.46-.36a.44.44,0,0,0-.13-.87l-2.46.36a.44.44,0,1,0,.13.87Z" />
    </g>
    <g class="cls-6">
        <path class="cls-9" d="M53.14,499.61l-6.55-6.55,4.54-4.54a.86.86,0,0,1,1.19,0l.56.56a.87.87,0,0,1,.25.64.87.87,0,0,1,.64.25l1.77,1.77a.85.85,0,0,1,.11,1.07l-.29.43.42-.29a.86.86,0,0,1,1.08.11l.81.81a.86.86,0,0,1,.25.6.84.84,0,0,1-.25.6Zm-5.69-6.55,5.69,5.68,4.1-4.1a.21.21,0,0,0,.07-.17.23.23,0,0,0-.07-.17l-.81-.81a.24.24,0,0,0-.31,0l-3,2.05,2-3a.23.23,0,0,0,0-.3l-1.77-1.77a.25.25,0,0,0-.27,0l-1.06.51.49-1.08a.25.25,0,0,0,0-.27l-.56-.56a.24.24,0,0,0-.33,0Z" />
        <path class="cls-9" d="M43.45,505a2.27,2.27,0,0,1-1.61-3.87,30.25,30.25,0,0,1,4-2.7.77.77,0,0,0,.35-.55.78.78,0,0,0-.22-.62l-1.19-1.19a.84.84,0,0,1-.25-.6.86.86,0,0,1,.25-.6l1.47-1.46L52.77,500l-1.47,1.46a.87.87,0,0,1-1.2,0l-1.18-1.18a.8.8,0,0,0-.62-.22.77.77,0,0,0-.56.35,30.79,30.79,0,0,1-2.69,4,2.26,2.26,0,0,1-1.6.67Zm2.77-10.73-1,1a.24.24,0,0,0-.07.16.24.24,0,0,0,.07.17l1.19,1.19a1.37,1.37,0,0,1-.23,2.12,42,42,0,0,0-3.87,2.61,1.67,1.67,0,0,0,0,2.34,1.64,1.64,0,0,0,1.18.49h0a1.62,1.62,0,0,0,1.17-.49,39.53,39.53,0,0,0,2.61-3.86,1.37,1.37,0,0,1,2.12-.23L50.53,501a.25.25,0,0,0,.34,0l1-1Zm-2.74,9.5a1.07,1.07,0,0,1-.76-1.83,1.09,1.09,0,0,1,1.52,0,1.07,1.07,0,0,1,.31.76,1.1,1.1,0,0,1-.31.76h0A1.07,1.07,0,0,1,43.48,503.79Zm0-1.54a.47.47,0,0,0-.33.8.49.49,0,0,0,.66,0h0a.46.46,0,0,0,.13-.33.44.44,0,0,0-.13-.33A.47.47,0,0,0,43.48,502.25Z" />
    </g>
    <g class="cls-6">
        <path class="cls-10" d="M24.24,483.29a.75.75,0,0,0,.35-.64.78.78,0,0,0-.37-.65l-2.12-1.37.66-1L25,481.05a.81.81,0,0,0,.77.06.79.79,0,0,0,.45-.6,4.5,4.5,0,0,0-4.64-5.19H21.1a6,6,0,0,1-3.22-.51l-7.77-5a2.08,2.08,0,0,0-2.86.63A2,2,0,0,0,7,472a2,2,0,0,0,.9,1.3l7.77,5a6.06,6.06,0,0,1,1.8,2.72l.2.47a4.47,4.47,0,0,0,1.74,2.1.67.67,0,0,0,.72,0,4.25,4.25,0,0,0,4.14-.32Zm-.38-.72a.11.11,0,0,1,.05.09.09.09,0,0,1,0,.07,3.61,3.61,0,0,1-3.34.33l1.2-1.86Zm-4.11.45a3.7,3.7,0,0,1-1.48-1.79h0l-.2-.47a6.51,6.51,0,0,0-2-3l-7.77-5a1.39,1.39,0,0,1,1.5-2.35l7.77,5a6.53,6.53,0,0,0,3.6.62h.52a3.77,3.77,0,0,1,2.24.6,3.82,3.82,0,0,1,1.67,2.4,3.92,3.92,0,0,1,0,1.41.15.15,0,0,1-.06.09.16.16,0,0,1-.13,0l-2.54-1.64a.34.34,0,0,0-.47.1L19.75,483Z" />
        <path class="cls-10" d="M21.81,478.57a.31.31,0,0,0,0-.25.34.34,0,0,0-.14-.21l-1.14-.74a.34.34,0,0,0-.47.11l-1,1.6a.39.39,0,0,0,0,.26.32.32,0,0,0,.15.21l1.14.73a.32.32,0,0,0,.46-.1Zm-2,.6.67-1,.56.36-.66,1Z" />
        <path class="cls-10" d="M9.28,471.75a.34.34,0,0,1-.47.1.33.33,0,0,1-.1-.47.33.33,0,0,1,.46-.1.34.34,0,0,1,.11.47Z" />
        <path class="cls-10" d="M16.94,476.28a.34.34,0,0,1,.11.47.35.35,0,0,1-.47.1l-6.49-4.18a.32.32,0,0,1-.1-.46.34.34,0,0,1,.47-.11l6.48,4.18Z" />
    </g>
    <g class="cls-6">
        <path class="cls-9" d="M29.08,485.46a1.58,1.58,0,0,0,2.24,0l4.54-4.54a7.58,7.58,0,1,0-2.23-2.24l-4.55,4.55A1.59,1.59,0,0,0,29.08,485.46Zm4-10.89A6.94,6.94,0,1,1,40,481.51,6.95,6.95,0,0,1,33,474.57Zm-3.51,9.11L34,479.21a7.72,7.72,0,0,0,1.34,1.34L30.87,485a1,1,0,0,1-1.34,0A1,1,0,0,1,29.53,483.68Z" />
        <path class="cls-9" d="M33.67,474.57A6.31,6.31,0,1,0,40,468.26,6.32,6.32,0,0,0,33.67,474.57Zm.63,0A5.68,5.68,0,1,1,40,480.25,5.68,5.68,0,0,1,34.3,474.57Z" />
        <path class="cls-9" d="M29.9,484.41a.29.29,0,0,0,.3.25.31.31,0,0,0,.22-.09.3.3,0,0,0,0-.39.31.31,0,0,0-.56.23Z" />
        <path class="cls-9" d="M35.88,472.67v1.54a1,1,0,0,0,.31.72v2.16a.64.64,0,0,0,.64.63h6.31a.63.63,0,0,0,.63-.63v-2.16a1,1,0,0,0,.31-.72v-1.54a.63.63,0,0,0-.63-.63H42.19v-.63a.63.63,0,0,0-.63-.63H38.4a.63.63,0,0,0-.63.63V472H36.51A.63.63,0,0,0,35.88,472.67Zm5.68-1.26V472H38.4v-.63Zm-4.73,5.68v-1.9h2.84v.31a.32.32,0,1,0,.63,0v-.31h2.84v1.9Zm-.32-2.88v-1.54h6.94v1.54a.36.36,0,0,1-.35.36H36.86a.36.36,0,0,1-.35-.36Z" />
    </g>
    <path class="cls-8" d="M23.87,468.38a1.75,1.75,0,0,0,.71,3,1.69,1.69,0,0,0,2-1l0-.05A1.72,1.72,0,0,0,24,468.26ZM26,470c-.56,1.44-2.66.18-1.83-.93a.91.91,0,0,0,.11-.16l.08,0A1,1,0,0,1,26,470Z" />
    <g class="cls-6">
        <path class="cls-7" d="M53.51,504.51c-.57.13-.37.71.2.57l6.8-1.61c.57-.14.37-.72-.2-.58Z" />
        <path class="cls-7" d="M60.43,506.8c.6.05.68-.55.09-.59a32.49,32.49,0,0,0-7.64.3c-.58.09-.42.68.16.59A31.44,31.44,0,0,1,60.43,506.8Z" />
        <path class="cls-7" d="M54.19,509.38l4.36.44c.6.06.68-.54.09-.6l-4.36-.44C53.69,508.72,53.6,509.32,54.19,509.38Z" />
    </g>
</svg>